%TF.GenerationSoftware,KiCad,Pcbnew,(5.1.9-0-10_14)*%
%TF.CreationDate,2021-03-28T23:18:51-04:00*%
%TF.ProjectId,shademaker,73686164-656d-4616-9b65-722e6b696361,rev?*%
%TF.SameCoordinates,Original*%
%TF.FileFunction,Copper,L2,Bot*%
%TF.FilePolarity,Positive*%
%FSLAX46Y46*%
G04 Gerber Fmt 4.6, Leading zero omitted, Abs format (unit mm)*
G04 Created by KiCad (PCBNEW (5.1.9-0-10_14)) date 2021-03-28 23:18:51*
%MOMM*%
%LPD*%
G01*
G04 APERTURE LIST*
%TA.AperFunction,ComponentPad*%
%ADD10O,1.600000X1.600000*%
%TD*%
%TA.AperFunction,ComponentPad*%
%ADD11R,1.600000X1.600000*%
%TD*%
%TA.AperFunction,ComponentPad*%
%ADD12C,1.600000*%
%TD*%
%TA.AperFunction,ComponentPad*%
%ADD13C,2.600000*%
%TD*%
%TA.AperFunction,ComponentPad*%
%ADD14R,2.600000X2.600000*%
%TD*%
%TA.AperFunction,ComponentPad*%
%ADD15C,1.500000*%
%TD*%
%TA.AperFunction,ComponentPad*%
%ADD16R,1.500000X1.500000*%
%TD*%
%TA.AperFunction,ComponentPad*%
%ADD17O,1.905000X2.000000*%
%TD*%
%TA.AperFunction,ComponentPad*%
%ADD18R,1.905000X2.000000*%
%TD*%
%TA.AperFunction,ComponentPad*%
%ADD19O,2.400000X2.400000*%
%TD*%
%TA.AperFunction,ComponentPad*%
%ADD20R,2.400000X2.400000*%
%TD*%
%TA.AperFunction,Conductor*%
%ADD21C,0.250000*%
%TD*%
%TA.AperFunction,Conductor*%
%ADD22C,0.800000*%
%TD*%
%TA.AperFunction,Conductor*%
%ADD23C,0.500000*%
%TD*%
%TA.AperFunction,Conductor*%
%ADD24C,0.254000*%
%TD*%
%TA.AperFunction,Conductor*%
%ADD25C,0.100000*%
%TD*%
G04 APERTURE END LIST*
D10*
%TO.P,SW1,10*%
%TO.N,I2C_0*%
X176276000Y-89662000D03*
%TO.P,SW1,5*%
%TO.N,GND*%
X186436000Y-97282000D03*
%TO.P,SW1,9*%
%TO.N,I2C_1*%
X178816000Y-89662000D03*
%TO.P,SW1,4*%
%TO.N,GND*%
X183896000Y-97282000D03*
%TO.P,SW1,8*%
%TO.N,I2C_2*%
X181356000Y-89662000D03*
%TO.P,SW1,3*%
%TO.N,GND*%
X181356000Y-97282000D03*
%TO.P,SW1,7*%
%TO.N,I2C_3*%
X183896000Y-89662000D03*
%TO.P,SW1,2*%
%TO.N,GND*%
X178816000Y-97282000D03*
%TO.P,SW1,6*%
%TO.N,I2C_4*%
X186436000Y-89662000D03*
D11*
%TO.P,SW1,1*%
%TO.N,GND*%
X176276000Y-97282000D03*
%TD*%
D10*
%TO.P,R1,2*%
%TO.N,GND*%
X161544000Y-96774000D03*
D12*
%TO.P,R1,1*%
%TO.N,Net-(Q1-Pad1)*%
X171704000Y-96774000D03*
%TD*%
D10*
%TO.P,ARDUINO1,16*%
%TO.N,I2C_3*%
X182245000Y-102870000D03*
%TO.P,ARDUINO1,15*%
%TO.N,I2C_2*%
X182245000Y-118110000D03*
%TO.P,ARDUINO1,30*%
%TO.N,Net-(ARDUINO1-Pad30)*%
X146685000Y-102870000D03*
%TO.P,ARDUINO1,14*%
%TO.N,I2C_1*%
X179705000Y-118110000D03*
%TO.P,ARDUINO1,29*%
%TO.N,GND*%
X149225000Y-102870000D03*
%TO.P,ARDUINO1,13*%
%TO.N,I2C_0*%
X177165000Y-118110000D03*
%TO.P,ARDUINO1,28*%
%TO.N,Net-(ARDUINO1-Pad28)*%
X151765000Y-102870000D03*
%TO.P,ARDUINO1,12*%
%TO.N,Net-(ARDUINO1-Pad12)*%
X174625000Y-118110000D03*
%TO.P,ARDUINO1,27*%
%TO.N,+5V*%
X154305000Y-102870000D03*
%TO.P,ARDUINO1,11*%
%TO.N,STEPPER_EN*%
X172085000Y-118110000D03*
%TO.P,ARDUINO1,26*%
%TO.N,Net-(ARDUINO1-Pad26)*%
X156845000Y-102870000D03*
%TO.P,ARDUINO1,10*%
%TO.N,AUTO*%
X169545000Y-118110000D03*
%TO.P,ARDUINO1,25*%
%TO.N,Net-(ARDUINO1-Pad25)*%
X159385000Y-102870000D03*
%TO.P,ARDUINO1,9*%
%TO.N,SOLENOID_PWM*%
X167005000Y-118110000D03*
%TO.P,ARDUINO1,24*%
%TO.N,I2C_SCL*%
X161925000Y-102870000D03*
%TO.P,ARDUINO1,8*%
%TO.N,STEPPER_DIR*%
X164465000Y-118110000D03*
%TO.P,ARDUINO1,23*%
%TO.N,I2C_SDA*%
X164465000Y-102870000D03*
%TO.P,ARDUINO1,7*%
%TO.N,I2C_4*%
X161925000Y-118110000D03*
%TO.P,ARDUINO1,22*%
%TO.N,Net-(ARDUINO1-Pad22)*%
X167005000Y-102870000D03*
%TO.P,ARDUINO1,6*%
%TO.N,Net-(ARDUINO1-Pad6)*%
X159385000Y-118110000D03*
%TO.P,ARDUINO1,21*%
%TO.N,Net-(ARDUINO1-Pad21)*%
X169545000Y-102870000D03*
%TO.P,ARDUINO1,5*%
%TO.N,STEPPER_STEP*%
X156845000Y-118110000D03*
%TO.P,ARDUINO1,20*%
%TO.N,DOWN*%
X172085000Y-102870000D03*
%TO.P,ARDUINO1,4*%
%TO.N,GND*%
X154305000Y-118110000D03*
%TO.P,ARDUINO1,19*%
%TO.N,UP*%
X174625000Y-102870000D03*
%TO.P,ARDUINO1,3*%
%TO.N,Net-(ARDUINO1-Pad3)*%
X151765000Y-118110000D03*
%TO.P,ARDUINO1,18*%
%TO.N,Net-(ARDUINO1-Pad18)*%
X177165000Y-102870000D03*
%TO.P,ARDUINO1,2*%
%TO.N,Net-(ARDUINO1-Pad2)*%
X149225000Y-118110000D03*
%TO.P,ARDUINO1,17*%
%TO.N,3.3v*%
X179705000Y-102870000D03*
D11*
%TO.P,ARDUINO1,1*%
%TO.N,Net-(ARDUINO1-Pad1)*%
X146685000Y-118110000D03*
%TD*%
D13*
%TO.P,SCREW1,9*%
%TO.N,GND*%
X144212000Y-82677000D03*
%TO.P,SCREW1,8*%
%TO.N,3.3v*%
X147712000Y-82677000D03*
%TO.P,SCREW1,7*%
%TO.N,+5V*%
X151212000Y-82677000D03*
%TO.P,SCREW1,6*%
%TO.N,SOLENOID+*%
X154712000Y-82677000D03*
%TO.P,SCREW1,5*%
%TO.N,I2C_SCL*%
X158212000Y-82677000D03*
%TO.P,SCREW1,4*%
%TO.N,I2C_SDA*%
X161712000Y-82677000D03*
%TO.P,SCREW1,3*%
%TO.N,AUTO*%
X165212000Y-82677000D03*
%TO.P,SCREW1,2*%
%TO.N,DOWN*%
X168712000Y-82677000D03*
D14*
%TO.P,SCREW1,1*%
%TO.N,UP*%
X172212000Y-82677000D03*
%TD*%
D10*
%TO.P,STEPPER1,16*%
%TO.N,SOLENOID+*%
X139065000Y-100965000D03*
%TO.P,STEPPER1,8*%
%TO.N,STEPPER_DIR*%
X126365000Y-118745000D03*
%TO.P,STEPPER1,15*%
%TO.N,GND*%
X139065000Y-103505000D03*
%TO.P,STEPPER1,7*%
%TO.N,STEPPER_STEP*%
X126365000Y-116205000D03*
%TO.P,STEPPER1,14*%
%TO.N,STEPPER_2A(cat5greenwhite)*%
X139065000Y-106045000D03*
%TO.P,STEPPER1,6*%
%TO.N,+5V*%
X126365000Y-113665000D03*
%TO.P,STEPPER1,13*%
%TO.N,STEPPER_1A(cat5green)*%
X139065000Y-108585000D03*
%TO.P,STEPPER1,5*%
%TO.N,+5V*%
X126365000Y-111125000D03*
%TO.P,STEPPER1,12*%
%TO.N,STEPPER_1B(cat5brownwhite)*%
X139065000Y-111125000D03*
%TO.P,STEPPER1,4*%
%TO.N,STEPPER_M2*%
X126365000Y-108585000D03*
%TO.P,STEPPER1,11*%
%TO.N,STEPPER_2B(browncat5)*%
X139065000Y-113665000D03*
%TO.P,STEPPER1,3*%
%TO.N,STEPPER_M1*%
X126365000Y-106045000D03*
%TO.P,STEPPER1,10*%
%TO.N,Net-(STEPPER1-Pad10)*%
X139065000Y-116205000D03*
%TO.P,STEPPER1,2*%
%TO.N,STEPPER_M0*%
X126365000Y-103505000D03*
%TO.P,STEPPER1,9*%
%TO.N,GND*%
X139065000Y-118745000D03*
D11*
%TO.P,STEPPER1,1*%
%TO.N,STEPPER_EN*%
X126365000Y-100965000D03*
%TD*%
D10*
%TO.P,R2,2*%
%TO.N,Net-(Q1-Pad1)*%
X171704000Y-92964000D03*
D12*
%TO.P,R2,1*%
%TO.N,SOLENOID_PWM*%
X161544000Y-92964000D03*
%TD*%
D15*
%TO.P,RJ45,8*%
%TO.N,STEPPER_2B(browncat5)*%
X128270000Y-94107000D03*
%TO.P,RJ45,7*%
%TO.N,STEPPER_1B(cat5brownwhite)*%
X129540000Y-91567000D03*
%TO.P,RJ45,6*%
%TO.N,STEPPER_1A(cat5green)*%
X130810000Y-94107000D03*
%TO.P,RJ45,5*%
%TO.N,GND*%
X132080000Y-91567000D03*
%TO.P,RJ45,4*%
%TO.N,STOP_SWITCH*%
X133350000Y-94107000D03*
%TO.P,RJ45,3*%
%TO.N,STEPPER_2A(cat5greenwhite)*%
X134620000Y-91567000D03*
%TO.P,RJ45,2*%
%TO.N,SOLENOID+*%
X135890000Y-94107000D03*
D16*
%TO.P,RJ45,1*%
%TO.N,SOLENOID-*%
X137160000Y-91567000D03*
%TD*%
D12*
%TO.P,C1,2*%
%TO.N,GND*%
X134594600Y-100304600D03*
%TO.P,C1,1*%
%TO.N,SOLENOID+*%
X130860800Y-100330000D03*
%TD*%
D13*
%TO.P,M2,2*%
%TO.N,STEPPER_M2*%
X129336800Y-118110000D03*
%TO.P,M2,1*%
%TO.N,+5V*%
%TA.AperFunction,ComponentPad*%
G36*
G01*
X128686800Y-111730000D02*
X129986800Y-111730000D01*
G75*
G02*
X130636800Y-112380000I0J-650000D01*
G01*
X130636800Y-113680000D01*
G75*
G02*
X129986800Y-114330000I-650000J0D01*
G01*
X128686800Y-114330000D01*
G75*
G02*
X128036800Y-113680000I0J650000D01*
G01*
X128036800Y-112380000D01*
G75*
G02*
X128686800Y-111730000I650000J0D01*
G01*
G37*
%TD.AperFunction*%
%TD*%
%TO.P,M1,2*%
%TO.N,STEPPER_M1*%
X132740400Y-118110000D03*
%TO.P,M1,1*%
%TO.N,+5V*%
%TA.AperFunction,ComponentPad*%
G36*
G01*
X132090400Y-111730000D02*
X133390400Y-111730000D01*
G75*
G02*
X134040400Y-112380000I0J-650000D01*
G01*
X134040400Y-113680000D01*
G75*
G02*
X133390400Y-114330000I-650000J0D01*
G01*
X132090400Y-114330000D01*
G75*
G02*
X131440400Y-113680000I0J650000D01*
G01*
X131440400Y-112380000D01*
G75*
G02*
X132090400Y-111730000I650000J0D01*
G01*
G37*
%TD.AperFunction*%
%TD*%
%TO.P,MO1,2*%
%TO.N,STEPPER_M0*%
X136144000Y-118110000D03*
%TO.P,MO1,1*%
%TO.N,+5V*%
%TA.AperFunction,ComponentPad*%
G36*
G01*
X135494000Y-111730000D02*
X136794000Y-111730000D01*
G75*
G02*
X137444000Y-112380000I0J-650000D01*
G01*
X137444000Y-113680000D01*
G75*
G02*
X136794000Y-114330000I-650000J0D01*
G01*
X135494000Y-114330000D01*
G75*
G02*
X134844000Y-113680000I0J650000D01*
G01*
X134844000Y-112380000D01*
G75*
G02*
X135494000Y-111730000I650000J0D01*
G01*
G37*
%TD.AperFunction*%
%TD*%
D17*
%TO.P,Q1,3*%
%TO.N,GND*%
X148336000Y-97282000D03*
%TO.P,Q1,2*%
%TO.N,SOLENOID-*%
X150876000Y-97282000D03*
D18*
%TO.P,Q1,1*%
%TO.N,Net-(Q1-Pad1)*%
X153416000Y-97282000D03*
%TD*%
D19*
%TO.P,D1,2*%
%TO.N,Net-(ARDUINO1-Pad12)*%
X156972000Y-92456000D03*
D20*
%TO.P,D1,1*%
%TO.N,STOP_SWITCH*%
X144272000Y-92456000D03*
%TD*%
D21*
%TO.N,GND*%
X139065000Y-118745000D02*
X139555001Y-119235001D01*
D22*
X149225000Y-102870000D02*
X149225000Y-109093000D01*
X154305000Y-114173000D02*
X154305000Y-118110000D01*
X149225000Y-109093000D02*
X154305000Y-114173000D01*
D21*
X132080000Y-91567000D02*
X132080000Y-97790000D01*
X132080000Y-97790000D02*
X134594600Y-100304600D01*
D22*
%TO.N,+5V*%
X128701800Y-113665000D02*
X129336800Y-113030000D01*
X126365000Y-113665000D02*
X128701800Y-113665000D01*
X129336800Y-113030000D02*
X132740400Y-113030000D01*
D21*
%TO.N,STEPPER_DIR*%
X162704999Y-119870001D02*
X164465000Y-118110000D01*
X127490001Y-119870001D02*
X162704999Y-119870001D01*
X126365000Y-118745000D02*
X127490001Y-119870001D01*
%TO.N,STOP_SWITCH*%
X144085999Y-92642001D02*
X144272000Y-92456000D01*
X136149999Y-92642001D02*
X144085999Y-92642001D01*
X136084999Y-92577001D02*
X136149999Y-92642001D01*
X136084999Y-91321001D02*
X136084999Y-92577001D01*
X133350000Y-91245998D02*
X134679998Y-89916000D01*
X134679998Y-89916000D02*
X136084999Y-91321001D01*
X133350000Y-94107000D02*
X133350000Y-91245998D01*
D23*
%TO.N,STEPPER_2B(browncat5)*%
X139065000Y-113095350D02*
X139065000Y-113665000D01*
X128270000Y-102300350D02*
X139065000Y-113095350D01*
X128270000Y-94107000D02*
X128270000Y-102300350D01*
%TO.N,STEPPER_2A(cat5greenwhite)*%
X137814999Y-104794999D02*
X139065000Y-106045000D01*
X137814999Y-101565001D02*
X137814999Y-104794999D01*
X134620000Y-98370002D02*
X137814999Y-101565001D01*
X134620000Y-91567000D02*
X134620000Y-98370002D01*
D22*
%TO.N,SOLENOID-*%
X139192000Y-89662000D02*
X148844000Y-89662000D01*
X137287000Y-91567000D02*
X139192000Y-89662000D01*
X150876000Y-91694000D02*
X150876000Y-97282000D01*
X148844000Y-89662000D02*
X150876000Y-91694000D01*
X137160000Y-91567000D02*
X137287000Y-91567000D01*
D21*
%TO.N,Net-(Q1-Pad1)*%
X153416000Y-97282000D02*
X153670000Y-97282000D01*
X153670000Y-97282000D02*
X155702000Y-99314000D01*
X169164000Y-99314000D02*
X171704000Y-96774000D01*
X155702000Y-99314000D02*
X169164000Y-99314000D01*
%TO.N,3.3v*%
X180830001Y-101744999D02*
X179705000Y-102870000D01*
X188976000Y-97790000D02*
X186944000Y-99822000D01*
X186944000Y-99822000D02*
X182753000Y-99822000D01*
X147712000Y-82677000D02*
X150379000Y-80010000D01*
X188976000Y-83312000D02*
X188976000Y-97790000D01*
X182753000Y-99822000D02*
X179705000Y-102870000D01*
X185674000Y-80010000D02*
X188976000Y-83312000D01*
X150379000Y-80010000D02*
X185674000Y-80010000D01*
%TO.N,I2C_4*%
X179832000Y-99314000D02*
X186436000Y-99314000D01*
X178290001Y-100855999D02*
X179832000Y-99314000D01*
X178290001Y-103410001D02*
X178290001Y-100855999D01*
X186436000Y-99314000D02*
X187960000Y-97790000D01*
X164715003Y-116984999D02*
X178290001Y-103410001D01*
X187960000Y-97790000D02*
X187960000Y-91186000D01*
X163050001Y-116984999D02*
X164715003Y-116984999D01*
X187960000Y-91186000D02*
X186436000Y-89662000D01*
X161925000Y-118110000D02*
X163050001Y-116984999D01*
%TD*%
D24*
%TO.N,GND*%
X189103000Y-82364198D02*
X186237804Y-79499003D01*
X186214001Y-79469999D01*
X186098276Y-79375026D01*
X185966247Y-79304454D01*
X185822986Y-79260997D01*
X185711333Y-79250000D01*
X185711322Y-79250000D01*
X185674000Y-79246324D01*
X185636678Y-79250000D01*
X150416333Y-79250000D01*
X150379000Y-79246323D01*
X150341667Y-79250000D01*
X150230014Y-79260997D01*
X150086753Y-79304454D01*
X149954724Y-79375026D01*
X149838999Y-79469999D01*
X149815201Y-79498997D01*
X148432986Y-80881213D01*
X148276419Y-80816361D01*
X147902581Y-80742000D01*
X147521419Y-80742000D01*
X147147581Y-80816361D01*
X146795434Y-80962225D01*
X146478509Y-81173987D01*
X146208987Y-81443509D01*
X145997225Y-81760434D01*
X145963967Y-81840725D01*
X145856312Y-81639317D01*
X145561224Y-81507381D01*
X144391605Y-82677000D01*
X145561224Y-83846619D01*
X145856312Y-83714683D01*
X145960952Y-83505995D01*
X145997225Y-83593566D01*
X146208987Y-83910491D01*
X146478509Y-84180013D01*
X146795434Y-84391775D01*
X147147581Y-84537639D01*
X147521419Y-84612000D01*
X147902581Y-84612000D01*
X148276419Y-84537639D01*
X148628566Y-84391775D01*
X148945491Y-84180013D01*
X149215013Y-83910491D01*
X149426775Y-83593566D01*
X149462000Y-83508525D01*
X149497225Y-83593566D01*
X149708987Y-83910491D01*
X149978509Y-84180013D01*
X150295434Y-84391775D01*
X150647581Y-84537639D01*
X151021419Y-84612000D01*
X151402581Y-84612000D01*
X151776419Y-84537639D01*
X152128566Y-84391775D01*
X152445491Y-84180013D01*
X152715013Y-83910491D01*
X152926775Y-83593566D01*
X152962000Y-83508525D01*
X152997225Y-83593566D01*
X153208987Y-83910491D01*
X153478509Y-84180013D01*
X153795434Y-84391775D01*
X154147581Y-84537639D01*
X154521419Y-84612000D01*
X154902581Y-84612000D01*
X155276419Y-84537639D01*
X155628566Y-84391775D01*
X155945491Y-84180013D01*
X156215013Y-83910491D01*
X156426775Y-83593566D01*
X156462000Y-83508525D01*
X156497225Y-83593566D01*
X156708987Y-83910491D01*
X156978509Y-84180013D01*
X157295434Y-84391775D01*
X157647581Y-84537639D01*
X158021419Y-84612000D01*
X158402581Y-84612000D01*
X158776419Y-84537639D01*
X159128566Y-84391775D01*
X159445491Y-84180013D01*
X159715013Y-83910491D01*
X159926775Y-83593566D01*
X159962000Y-83508525D01*
X159997225Y-83593566D01*
X160208987Y-83910491D01*
X160478509Y-84180013D01*
X160795434Y-84391775D01*
X161147581Y-84537639D01*
X161521419Y-84612000D01*
X161902581Y-84612000D01*
X162276419Y-84537639D01*
X162628566Y-84391775D01*
X162945491Y-84180013D01*
X163215013Y-83910491D01*
X163426775Y-83593566D01*
X163462000Y-83508525D01*
X163497225Y-83593566D01*
X163708987Y-83910491D01*
X163978509Y-84180013D01*
X164295434Y-84391775D01*
X164647581Y-84537639D01*
X165021419Y-84612000D01*
X165402581Y-84612000D01*
X165776419Y-84537639D01*
X166128566Y-84391775D01*
X166445491Y-84180013D01*
X166715013Y-83910491D01*
X166926775Y-83593566D01*
X166962000Y-83508525D01*
X166997225Y-83593566D01*
X167208987Y-83910491D01*
X167478509Y-84180013D01*
X167795434Y-84391775D01*
X168147581Y-84537639D01*
X168521419Y-84612000D01*
X168902581Y-84612000D01*
X169276419Y-84537639D01*
X169628566Y-84391775D01*
X169945491Y-84180013D01*
X170215013Y-83910491D01*
X170273928Y-83822318D01*
X170273928Y-83977000D01*
X170286188Y-84101482D01*
X170322498Y-84221180D01*
X170381463Y-84331494D01*
X170460815Y-84428185D01*
X170557506Y-84507537D01*
X170667820Y-84566502D01*
X170787518Y-84602812D01*
X170912000Y-84615072D01*
X173512000Y-84615072D01*
X173636482Y-84602812D01*
X173756180Y-84566502D01*
X173866494Y-84507537D01*
X173963185Y-84428185D01*
X174042537Y-84331494D01*
X174101502Y-84221180D01*
X174137812Y-84101482D01*
X174150072Y-83977000D01*
X174150072Y-83273042D01*
X182338000Y-83273042D01*
X182338000Y-83604958D01*
X182402754Y-83930496D01*
X182529772Y-84237147D01*
X182714175Y-84513125D01*
X182948875Y-84747825D01*
X183224853Y-84932228D01*
X183531504Y-85059246D01*
X183857042Y-85124000D01*
X184188958Y-85124000D01*
X184514496Y-85059246D01*
X184821147Y-84932228D01*
X185097125Y-84747825D01*
X185331825Y-84513125D01*
X185516228Y-84237147D01*
X185643246Y-83930496D01*
X185708000Y-83604958D01*
X185708000Y-83273042D01*
X185643246Y-82947504D01*
X185516228Y-82640853D01*
X185331825Y-82364875D01*
X185097125Y-82130175D01*
X184821147Y-81945772D01*
X184514496Y-81818754D01*
X184188958Y-81754000D01*
X183857042Y-81754000D01*
X183531504Y-81818754D01*
X183224853Y-81945772D01*
X182948875Y-82130175D01*
X182714175Y-82364875D01*
X182529772Y-82640853D01*
X182402754Y-82947504D01*
X182338000Y-83273042D01*
X174150072Y-83273042D01*
X174150072Y-81377000D01*
X174137812Y-81252518D01*
X174101502Y-81132820D01*
X174042537Y-81022506D01*
X173963185Y-80925815D01*
X173866494Y-80846463D01*
X173756180Y-80787498D01*
X173698497Y-80770000D01*
X185359199Y-80770000D01*
X188216000Y-83626802D01*
X188216000Y-90367198D01*
X187834688Y-89985886D01*
X187871000Y-89803335D01*
X187871000Y-89520665D01*
X187815853Y-89243426D01*
X187707680Y-88982273D01*
X187550637Y-88747241D01*
X187350759Y-88547363D01*
X187115727Y-88390320D01*
X186854574Y-88282147D01*
X186577335Y-88227000D01*
X186294665Y-88227000D01*
X186017426Y-88282147D01*
X185756273Y-88390320D01*
X185521241Y-88547363D01*
X185321363Y-88747241D01*
X185166000Y-88979759D01*
X185010637Y-88747241D01*
X184810759Y-88547363D01*
X184575727Y-88390320D01*
X184314574Y-88282147D01*
X184037335Y-88227000D01*
X183754665Y-88227000D01*
X183477426Y-88282147D01*
X183216273Y-88390320D01*
X182981241Y-88547363D01*
X182781363Y-88747241D01*
X182626000Y-88979759D01*
X182470637Y-88747241D01*
X182270759Y-88547363D01*
X182035727Y-88390320D01*
X181774574Y-88282147D01*
X181497335Y-88227000D01*
X181214665Y-88227000D01*
X180937426Y-88282147D01*
X180676273Y-88390320D01*
X180441241Y-88547363D01*
X180241363Y-88747241D01*
X180086000Y-88979759D01*
X179930637Y-88747241D01*
X179730759Y-88547363D01*
X179495727Y-88390320D01*
X179234574Y-88282147D01*
X178957335Y-88227000D01*
X178674665Y-88227000D01*
X178397426Y-88282147D01*
X178136273Y-88390320D01*
X177901241Y-88547363D01*
X177701363Y-88747241D01*
X177546000Y-88979759D01*
X177390637Y-88747241D01*
X177190759Y-88547363D01*
X176955727Y-88390320D01*
X176694574Y-88282147D01*
X176417335Y-88227000D01*
X176134665Y-88227000D01*
X175857426Y-88282147D01*
X175596273Y-88390320D01*
X175361241Y-88547363D01*
X175161363Y-88747241D01*
X175004320Y-88982273D01*
X174896147Y-89243426D01*
X174841000Y-89520665D01*
X174841000Y-89803335D01*
X174896147Y-90080574D01*
X175004320Y-90341727D01*
X175161363Y-90576759D01*
X175361241Y-90776637D01*
X175596273Y-90933680D01*
X175857426Y-91041853D01*
X176134665Y-91097000D01*
X176417335Y-91097000D01*
X176694574Y-91041853D01*
X176955727Y-90933680D01*
X177190759Y-90776637D01*
X177390637Y-90576759D01*
X177546000Y-90344241D01*
X177701363Y-90576759D01*
X177901241Y-90776637D01*
X178136273Y-90933680D01*
X178397426Y-91041853D01*
X178674665Y-91097000D01*
X178957335Y-91097000D01*
X179234574Y-91041853D01*
X179495727Y-90933680D01*
X179730759Y-90776637D01*
X179930637Y-90576759D01*
X180086000Y-90344241D01*
X180241363Y-90576759D01*
X180441241Y-90776637D01*
X180676273Y-90933680D01*
X180937426Y-91041853D01*
X181214665Y-91097000D01*
X181497335Y-91097000D01*
X181774574Y-91041853D01*
X182035727Y-90933680D01*
X182270759Y-90776637D01*
X182470637Y-90576759D01*
X182626000Y-90344241D01*
X182781363Y-90576759D01*
X182981241Y-90776637D01*
X183216273Y-90933680D01*
X183477426Y-91041853D01*
X183754665Y-91097000D01*
X184037335Y-91097000D01*
X184314574Y-91041853D01*
X184575727Y-90933680D01*
X184810759Y-90776637D01*
X185010637Y-90576759D01*
X185166000Y-90344241D01*
X185321363Y-90576759D01*
X185521241Y-90776637D01*
X185756273Y-90933680D01*
X186017426Y-91041853D01*
X186294665Y-91097000D01*
X186577335Y-91097000D01*
X186759886Y-91060688D01*
X187200001Y-91500804D01*
X187200000Y-96070666D01*
X187173420Y-96050963D01*
X186919087Y-95930754D01*
X186785039Y-95890096D01*
X186563000Y-96012085D01*
X186563000Y-97155000D01*
X186583000Y-97155000D01*
X186583000Y-97409000D01*
X186563000Y-97409000D01*
X186563000Y-97429000D01*
X186309000Y-97429000D01*
X186309000Y-97409000D01*
X184023000Y-97409000D01*
X184023000Y-97429000D01*
X183769000Y-97429000D01*
X183769000Y-97409000D01*
X181483000Y-97409000D01*
X181483000Y-97429000D01*
X181229000Y-97429000D01*
X181229000Y-97409000D01*
X178943000Y-97409000D01*
X178943000Y-98551915D01*
X179165039Y-98673904D01*
X179299087Y-98633246D01*
X179553420Y-98513037D01*
X179779414Y-98345519D01*
X179968385Y-98137131D01*
X180086000Y-97941018D01*
X180203615Y-98137131D01*
X180392586Y-98345519D01*
X180618580Y-98513037D01*
X180705248Y-98554000D01*
X179869323Y-98554000D01*
X179832000Y-98550324D01*
X179794677Y-98554000D01*
X179794667Y-98554000D01*
X179683014Y-98564997D01*
X179539753Y-98608454D01*
X179407723Y-98679026D01*
X179357709Y-98720072D01*
X179291999Y-98773999D01*
X179268201Y-98802997D01*
X177778999Y-100292200D01*
X177750001Y-100315998D01*
X177726203Y-100344996D01*
X177726202Y-100344997D01*
X177655027Y-100431723D01*
X177584455Y-100563753D01*
X177540999Y-100707014D01*
X177526325Y-100855999D01*
X177530002Y-100893331D01*
X177530002Y-101479491D01*
X177306335Y-101435000D01*
X177023665Y-101435000D01*
X176746426Y-101490147D01*
X176485273Y-101598320D01*
X176250241Y-101755363D01*
X176050363Y-101955241D01*
X175895000Y-102187759D01*
X175739637Y-101955241D01*
X175539759Y-101755363D01*
X175304727Y-101598320D01*
X175043574Y-101490147D01*
X174766335Y-101435000D01*
X174483665Y-101435000D01*
X174206426Y-101490147D01*
X173945273Y-101598320D01*
X173710241Y-101755363D01*
X173510363Y-101955241D01*
X173355000Y-102187759D01*
X173199637Y-101955241D01*
X172999759Y-101755363D01*
X172764727Y-101598320D01*
X172503574Y-101490147D01*
X172226335Y-101435000D01*
X171943665Y-101435000D01*
X171666426Y-101490147D01*
X171405273Y-101598320D01*
X171170241Y-101755363D01*
X170970363Y-101955241D01*
X170815000Y-102187759D01*
X170659637Y-101955241D01*
X170459759Y-101755363D01*
X170224727Y-101598320D01*
X169963574Y-101490147D01*
X169686335Y-101435000D01*
X169403665Y-101435000D01*
X169126426Y-101490147D01*
X168865273Y-101598320D01*
X168630241Y-101755363D01*
X168430363Y-101955241D01*
X168275000Y-102187759D01*
X168119637Y-101955241D01*
X167919759Y-101755363D01*
X167684727Y-101598320D01*
X167423574Y-101490147D01*
X167146335Y-101435000D01*
X166863665Y-101435000D01*
X166586426Y-101490147D01*
X166325273Y-101598320D01*
X166090241Y-101755363D01*
X165890363Y-101955241D01*
X165735000Y-102187759D01*
X165579637Y-101955241D01*
X165379759Y-101755363D01*
X165144727Y-101598320D01*
X164883574Y-101490147D01*
X164606335Y-101435000D01*
X164323665Y-101435000D01*
X164046426Y-101490147D01*
X163785273Y-101598320D01*
X163550241Y-101755363D01*
X163350363Y-101955241D01*
X163195000Y-102187759D01*
X163039637Y-101955241D01*
X162839759Y-101755363D01*
X162604727Y-101598320D01*
X162343574Y-101490147D01*
X162066335Y-101435000D01*
X161783665Y-101435000D01*
X161506426Y-101490147D01*
X161245273Y-101598320D01*
X161010241Y-101755363D01*
X160810363Y-101955241D01*
X160655000Y-102187759D01*
X160499637Y-101955241D01*
X160299759Y-101755363D01*
X160064727Y-101598320D01*
X159803574Y-101490147D01*
X159526335Y-101435000D01*
X159243665Y-101435000D01*
X158966426Y-101490147D01*
X158705273Y-101598320D01*
X158470241Y-101755363D01*
X158270363Y-101955241D01*
X158115000Y-102187759D01*
X157959637Y-101955241D01*
X157759759Y-101755363D01*
X157524727Y-101598320D01*
X157263574Y-101490147D01*
X156986335Y-101435000D01*
X156703665Y-101435000D01*
X156426426Y-101490147D01*
X156165273Y-101598320D01*
X155930241Y-101755363D01*
X155730363Y-101955241D01*
X155575000Y-102187759D01*
X155419637Y-101955241D01*
X155219759Y-101755363D01*
X154984727Y-101598320D01*
X154723574Y-101490147D01*
X154446335Y-101435000D01*
X154163665Y-101435000D01*
X153886426Y-101490147D01*
X153625273Y-101598320D01*
X153390241Y-101755363D01*
X153190363Y-101955241D01*
X153035000Y-102187759D01*
X152879637Y-101955241D01*
X152679759Y-101755363D01*
X152444727Y-101598320D01*
X152183574Y-101490147D01*
X151906335Y-101435000D01*
X151623665Y-101435000D01*
X151346426Y-101490147D01*
X151085273Y-101598320D01*
X150850241Y-101755363D01*
X150650363Y-101955241D01*
X150493320Y-102190273D01*
X150488933Y-102200865D01*
X150377385Y-102014869D01*
X150188414Y-101806481D01*
X149962420Y-101638963D01*
X149708087Y-101518754D01*
X149574039Y-101478096D01*
X149352000Y-101600085D01*
X149352000Y-102743000D01*
X149372000Y-102743000D01*
X149372000Y-102997000D01*
X149352000Y-102997000D01*
X149352000Y-104139915D01*
X149574039Y-104261904D01*
X149708087Y-104221246D01*
X149962420Y-104101037D01*
X150188414Y-103933519D01*
X150377385Y-103725131D01*
X150488933Y-103539135D01*
X150493320Y-103549727D01*
X150650363Y-103784759D01*
X150850241Y-103984637D01*
X151085273Y-104141680D01*
X151346426Y-104249853D01*
X151623665Y-104305000D01*
X151906335Y-104305000D01*
X152183574Y-104249853D01*
X152444727Y-104141680D01*
X152679759Y-103984637D01*
X152879637Y-103784759D01*
X153035000Y-103552241D01*
X153190363Y-103784759D01*
X153390241Y-103984637D01*
X153625273Y-104141680D01*
X153886426Y-104249853D01*
X154163665Y-104305000D01*
X154446335Y-104305000D01*
X154723574Y-104249853D01*
X154984727Y-104141680D01*
X155219759Y-103984637D01*
X155419637Y-103784759D01*
X155575000Y-103552241D01*
X155730363Y-103784759D01*
X155930241Y-103984637D01*
X156165273Y-104141680D01*
X156426426Y-104249853D01*
X156703665Y-104305000D01*
X156986335Y-104305000D01*
X157263574Y-104249853D01*
X157524727Y-104141680D01*
X157759759Y-103984637D01*
X157959637Y-103784759D01*
X158115000Y-103552241D01*
X158270363Y-103784759D01*
X158470241Y-103984637D01*
X158705273Y-104141680D01*
X158966426Y-104249853D01*
X159243665Y-104305000D01*
X159526335Y-104305000D01*
X159803574Y-104249853D01*
X160064727Y-104141680D01*
X160299759Y-103984637D01*
X160499637Y-103784759D01*
X160655000Y-103552241D01*
X160810363Y-103784759D01*
X161010241Y-103984637D01*
X161245273Y-104141680D01*
X161506426Y-104249853D01*
X161783665Y-104305000D01*
X162066335Y-104305000D01*
X162343574Y-104249853D01*
X162604727Y-104141680D01*
X162839759Y-103984637D01*
X163039637Y-103784759D01*
X163195000Y-103552241D01*
X163350363Y-103784759D01*
X163550241Y-103984637D01*
X163785273Y-104141680D01*
X164046426Y-104249853D01*
X164323665Y-104305000D01*
X164606335Y-104305000D01*
X164883574Y-104249853D01*
X165144727Y-104141680D01*
X165379759Y-103984637D01*
X165579637Y-103784759D01*
X165735000Y-103552241D01*
X165890363Y-103784759D01*
X166090241Y-103984637D01*
X166325273Y-104141680D01*
X166586426Y-104249853D01*
X166863665Y-104305000D01*
X167146335Y-104305000D01*
X167423574Y-104249853D01*
X167684727Y-104141680D01*
X167919759Y-103984637D01*
X168119637Y-103784759D01*
X168275000Y-103552241D01*
X168430363Y-103784759D01*
X168630241Y-103984637D01*
X168865273Y-104141680D01*
X169126426Y-104249853D01*
X169403665Y-104305000D01*
X169686335Y-104305000D01*
X169963574Y-104249853D01*
X170224727Y-104141680D01*
X170459759Y-103984637D01*
X170659637Y-103784759D01*
X170815000Y-103552241D01*
X170970363Y-103784759D01*
X171170241Y-103984637D01*
X171405273Y-104141680D01*
X171666426Y-104249853D01*
X171943665Y-104305000D01*
X172226335Y-104305000D01*
X172503574Y-104249853D01*
X172764727Y-104141680D01*
X172999759Y-103984637D01*
X173199637Y-103784759D01*
X173355000Y-103552241D01*
X173510363Y-103784759D01*
X173710241Y-103984637D01*
X173945273Y-104141680D01*
X174206426Y-104249853D01*
X174483665Y-104305000D01*
X174766335Y-104305000D01*
X175043574Y-104249853D01*
X175304727Y-104141680D01*
X175539759Y-103984637D01*
X175739637Y-103784759D01*
X175895000Y-103552241D01*
X176050363Y-103784759D01*
X176250241Y-103984637D01*
X176484222Y-104140978D01*
X164400202Y-116224999D01*
X163087326Y-116224999D01*
X163050001Y-116221323D01*
X163012676Y-116224999D01*
X163012668Y-116224999D01*
X162901015Y-116235996D01*
X162757754Y-116279453D01*
X162625725Y-116350025D01*
X162510000Y-116444998D01*
X162486202Y-116473996D01*
X162248886Y-116711312D01*
X162066335Y-116675000D01*
X161783665Y-116675000D01*
X161506426Y-116730147D01*
X161245273Y-116838320D01*
X161010241Y-116995363D01*
X160810363Y-117195241D01*
X160655000Y-117427759D01*
X160499637Y-117195241D01*
X160299759Y-116995363D01*
X160064727Y-116838320D01*
X159803574Y-116730147D01*
X159526335Y-116675000D01*
X159243665Y-116675000D01*
X158966426Y-116730147D01*
X158705273Y-116838320D01*
X158470241Y-116995363D01*
X158270363Y-117195241D01*
X158115000Y-117427759D01*
X157959637Y-117195241D01*
X157759759Y-116995363D01*
X157524727Y-116838320D01*
X157263574Y-116730147D01*
X156986335Y-116675000D01*
X156703665Y-116675000D01*
X156426426Y-116730147D01*
X156165273Y-116838320D01*
X155930241Y-116995363D01*
X155730363Y-117195241D01*
X155573320Y-117430273D01*
X155568933Y-117440865D01*
X155457385Y-117254869D01*
X155268414Y-117046481D01*
X155042420Y-116878963D01*
X154788087Y-116758754D01*
X154654039Y-116718096D01*
X154432000Y-116840085D01*
X154432000Y-117983000D01*
X154452000Y-117983000D01*
X154452000Y-118237000D01*
X154432000Y-118237000D01*
X154432000Y-118257000D01*
X154178000Y-118257000D01*
X154178000Y-118237000D01*
X154158000Y-118237000D01*
X154158000Y-117983000D01*
X154178000Y-117983000D01*
X154178000Y-116840085D01*
X153955961Y-116718096D01*
X153821913Y-116758754D01*
X153567580Y-116878963D01*
X153341586Y-117046481D01*
X153152615Y-117254869D01*
X153041067Y-117440865D01*
X153036680Y-117430273D01*
X152879637Y-117195241D01*
X152679759Y-116995363D01*
X152444727Y-116838320D01*
X152183574Y-116730147D01*
X151906335Y-116675000D01*
X151623665Y-116675000D01*
X151346426Y-116730147D01*
X151085273Y-116838320D01*
X150850241Y-116995363D01*
X150650363Y-117195241D01*
X150495000Y-117427759D01*
X150339637Y-117195241D01*
X150139759Y-116995363D01*
X149904727Y-116838320D01*
X149643574Y-116730147D01*
X149366335Y-116675000D01*
X149083665Y-116675000D01*
X148806426Y-116730147D01*
X148545273Y-116838320D01*
X148310241Y-116995363D01*
X148111643Y-117193961D01*
X148110812Y-117185518D01*
X148074502Y-117065820D01*
X148015537Y-116955506D01*
X147936185Y-116858815D01*
X147839494Y-116779463D01*
X147729180Y-116720498D01*
X147609482Y-116684188D01*
X147485000Y-116671928D01*
X145885000Y-116671928D01*
X145760518Y-116684188D01*
X145640820Y-116720498D01*
X145530506Y-116779463D01*
X145433815Y-116858815D01*
X145354463Y-116955506D01*
X145295498Y-117065820D01*
X145259188Y-117185518D01*
X145246928Y-117310000D01*
X145246928Y-118910000D01*
X145259188Y-119034482D01*
X145282096Y-119110001D01*
X140452063Y-119110001D01*
X140456904Y-119094039D01*
X140334915Y-118872000D01*
X139192000Y-118872000D01*
X139192000Y-118892000D01*
X138938000Y-118892000D01*
X138938000Y-118872000D01*
X138918000Y-118872000D01*
X138918000Y-118618000D01*
X138938000Y-118618000D01*
X138938000Y-118598000D01*
X139192000Y-118598000D01*
X139192000Y-118618000D01*
X140334915Y-118618000D01*
X140456904Y-118395961D01*
X140416246Y-118261913D01*
X140296037Y-118007580D01*
X140128519Y-117781586D01*
X139920131Y-117592615D01*
X139734135Y-117481067D01*
X139744727Y-117476680D01*
X139979759Y-117319637D01*
X140179637Y-117119759D01*
X140336680Y-116884727D01*
X140444853Y-116623574D01*
X140500000Y-116346335D01*
X140500000Y-116063665D01*
X140444853Y-115786426D01*
X140336680Y-115525273D01*
X140179637Y-115290241D01*
X139979759Y-115090363D01*
X139747241Y-114935000D01*
X139979759Y-114779637D01*
X140179637Y-114579759D01*
X140336680Y-114344727D01*
X140444853Y-114083574D01*
X140500000Y-113806335D01*
X140500000Y-113523665D01*
X140444853Y-113246426D01*
X140336680Y-112985273D01*
X140179637Y-112750241D01*
X139979759Y-112550363D01*
X139747241Y-112395000D01*
X139979759Y-112239637D01*
X140179637Y-112039759D01*
X140336680Y-111804727D01*
X140444853Y-111543574D01*
X140500000Y-111266335D01*
X140500000Y-110983665D01*
X140444853Y-110706426D01*
X140336680Y-110445273D01*
X140179637Y-110210241D01*
X139979759Y-110010363D01*
X139747241Y-109855000D01*
X139979759Y-109699637D01*
X140179637Y-109499759D01*
X140336680Y-109264727D01*
X140444853Y-109003574D01*
X140500000Y-108726335D01*
X140500000Y-108443665D01*
X140444853Y-108166426D01*
X140336680Y-107905273D01*
X140179637Y-107670241D01*
X139979759Y-107470363D01*
X139747241Y-107315000D01*
X139979759Y-107159637D01*
X140179637Y-106959759D01*
X140336680Y-106724727D01*
X140444853Y-106463574D01*
X140500000Y-106186335D01*
X140500000Y-105903665D01*
X140444853Y-105626426D01*
X140336680Y-105365273D01*
X140179637Y-105130241D01*
X139979759Y-104930363D01*
X139744727Y-104773320D01*
X139734135Y-104768933D01*
X139920131Y-104657385D01*
X140128519Y-104468414D01*
X140296037Y-104242420D01*
X140416246Y-103988087D01*
X140456904Y-103854039D01*
X140334915Y-103632000D01*
X139192000Y-103632000D01*
X139192000Y-103652000D01*
X138938000Y-103652000D01*
X138938000Y-103632000D01*
X138918000Y-103632000D01*
X138918000Y-103378000D01*
X138938000Y-103378000D01*
X138938000Y-103358000D01*
X139192000Y-103358000D01*
X139192000Y-103378000D01*
X140334915Y-103378000D01*
X140456904Y-103155961D01*
X140416246Y-103021913D01*
X140296037Y-102767580D01*
X140267192Y-102728665D01*
X145250000Y-102728665D01*
X145250000Y-103011335D01*
X145305147Y-103288574D01*
X145413320Y-103549727D01*
X145570363Y-103784759D01*
X145770241Y-103984637D01*
X146005273Y-104141680D01*
X146266426Y-104249853D01*
X146543665Y-104305000D01*
X146826335Y-104305000D01*
X147103574Y-104249853D01*
X147364727Y-104141680D01*
X147599759Y-103984637D01*
X147799637Y-103784759D01*
X147956680Y-103549727D01*
X147961067Y-103539135D01*
X148072615Y-103725131D01*
X148261586Y-103933519D01*
X148487580Y-104101037D01*
X148741913Y-104221246D01*
X148875961Y-104261904D01*
X149098000Y-104139915D01*
X149098000Y-102997000D01*
X149078000Y-102997000D01*
X149078000Y-102743000D01*
X149098000Y-102743000D01*
X149098000Y-101600085D01*
X148875961Y-101478096D01*
X148741913Y-101518754D01*
X148487580Y-101638963D01*
X148261586Y-101806481D01*
X148072615Y-102014869D01*
X147961067Y-102200865D01*
X147956680Y-102190273D01*
X147799637Y-101955241D01*
X147599759Y-101755363D01*
X147364727Y-101598320D01*
X147103574Y-101490147D01*
X146826335Y-101435000D01*
X146543665Y-101435000D01*
X146266426Y-101490147D01*
X146005273Y-101598320D01*
X145770241Y-101755363D01*
X145570363Y-101955241D01*
X145413320Y-102190273D01*
X145305147Y-102451426D01*
X145250000Y-102728665D01*
X140267192Y-102728665D01*
X140128519Y-102541586D01*
X139920131Y-102352615D01*
X139734135Y-102241067D01*
X139744727Y-102236680D01*
X139979759Y-102079637D01*
X140179637Y-101879759D01*
X140336680Y-101644727D01*
X140444853Y-101383574D01*
X140500000Y-101106335D01*
X140500000Y-100823665D01*
X140444853Y-100546426D01*
X140336680Y-100285273D01*
X140179637Y-100050241D01*
X139979759Y-99850363D01*
X139744727Y-99693320D01*
X139483574Y-99585147D01*
X139206335Y-99530000D01*
X138923665Y-99530000D01*
X138646426Y-99585147D01*
X138385273Y-99693320D01*
X138150241Y-99850363D01*
X137950363Y-100050241D01*
X137793320Y-100285273D01*
X137791425Y-100289848D01*
X135505000Y-98003424D01*
X135505000Y-97878042D01*
X141063000Y-97878042D01*
X141063000Y-98209958D01*
X141127754Y-98535496D01*
X141254772Y-98842147D01*
X141439175Y-99118125D01*
X141673875Y-99352825D01*
X141949853Y-99537228D01*
X142256504Y-99664246D01*
X142582042Y-99729000D01*
X142913958Y-99729000D01*
X143239496Y-99664246D01*
X143546147Y-99537228D01*
X143822125Y-99352825D01*
X144056825Y-99118125D01*
X144241228Y-98842147D01*
X144368246Y-98535496D01*
X144433000Y-98209958D01*
X144433000Y-97878042D01*
X144388806Y-97655863D01*
X146783622Y-97655863D01*
X146877121Y-97952446D01*
X147026684Y-98225089D01*
X147226563Y-98463315D01*
X147469077Y-98657969D01*
X147744906Y-98801571D01*
X147963020Y-98872563D01*
X148209000Y-98752594D01*
X148209000Y-97409000D01*
X146910430Y-97409000D01*
X146783622Y-97655863D01*
X144388806Y-97655863D01*
X144368246Y-97552504D01*
X144241228Y-97245853D01*
X144056825Y-96969875D01*
X143995087Y-96908137D01*
X146783622Y-96908137D01*
X146910430Y-97155000D01*
X148209000Y-97155000D01*
X148209000Y-95811406D01*
X147963020Y-95691437D01*
X147744906Y-95762429D01*
X147469077Y-95906031D01*
X147226563Y-96100685D01*
X147026684Y-96338911D01*
X146877121Y-96611554D01*
X146783622Y-96908137D01*
X143995087Y-96908137D01*
X143822125Y-96735175D01*
X143546147Y-96550772D01*
X143239496Y-96423754D01*
X142913958Y-96359000D01*
X142582042Y-96359000D01*
X142256504Y-96423754D01*
X141949853Y-96550772D01*
X141673875Y-96735175D01*
X141439175Y-96969875D01*
X141254772Y-97245853D01*
X141127754Y-97552504D01*
X141063000Y-97878042D01*
X135505000Y-97878042D01*
X135505000Y-95442552D01*
X135753589Y-95492000D01*
X136026411Y-95492000D01*
X136293989Y-95438775D01*
X136546043Y-95334371D01*
X136772886Y-95182799D01*
X136965799Y-94989886D01*
X137117371Y-94763043D01*
X137221775Y-94510989D01*
X137275000Y-94243411D01*
X137275000Y-93970589D01*
X137221775Y-93703011D01*
X137117371Y-93450957D01*
X137084660Y-93402001D01*
X142433928Y-93402001D01*
X142433928Y-93656000D01*
X142446188Y-93780482D01*
X142482498Y-93900180D01*
X142541463Y-94010494D01*
X142620815Y-94107185D01*
X142717506Y-94186537D01*
X142827820Y-94245502D01*
X142947518Y-94281812D01*
X143072000Y-94294072D01*
X145472000Y-94294072D01*
X145596482Y-94281812D01*
X145716180Y-94245502D01*
X145826494Y-94186537D01*
X145923185Y-94107185D01*
X146002537Y-94010494D01*
X146061502Y-93900180D01*
X146097812Y-93780482D01*
X146110072Y-93656000D01*
X146110072Y-91256000D01*
X146097812Y-91131518D01*
X146061502Y-91011820D01*
X146002537Y-90901506D01*
X145923185Y-90804815D01*
X145826494Y-90725463D01*
X145773244Y-90697000D01*
X148415290Y-90697000D01*
X149841000Y-92122711D01*
X149841001Y-96030244D01*
X149748037Y-96106537D01*
X149600837Y-96285899D01*
X149445437Y-96100685D01*
X149202923Y-95906031D01*
X148927094Y-95762429D01*
X148708980Y-95691437D01*
X148463000Y-95811406D01*
X148463000Y-97155000D01*
X148483000Y-97155000D01*
X148483000Y-97409000D01*
X148463000Y-97409000D01*
X148463000Y-98752594D01*
X148708980Y-98872563D01*
X148927094Y-98801571D01*
X149202923Y-98657969D01*
X149445437Y-98463315D01*
X149600838Y-98278100D01*
X149748037Y-98457463D01*
X149989765Y-98655845D01*
X150265551Y-98803255D01*
X150564796Y-98894030D01*
X150876000Y-98924681D01*
X151187203Y-98894030D01*
X151486448Y-98803255D01*
X151762234Y-98655845D01*
X151888095Y-98552553D01*
X151932963Y-98636494D01*
X152012315Y-98733185D01*
X152109006Y-98812537D01*
X152219320Y-98871502D01*
X152339018Y-98907812D01*
X152463500Y-98920072D01*
X154233270Y-98920072D01*
X155138201Y-99825003D01*
X155161999Y-99854001D01*
X155190997Y-99877799D01*
X155277723Y-99948974D01*
X155409753Y-100019546D01*
X155553014Y-100063003D01*
X155664667Y-100074000D01*
X155664677Y-100074000D01*
X155702000Y-100077676D01*
X155739323Y-100074000D01*
X169126678Y-100074000D01*
X169164000Y-100077676D01*
X169201322Y-100074000D01*
X169201333Y-100074000D01*
X169312986Y-100063003D01*
X169456247Y-100019546D01*
X169588276Y-99948974D01*
X169704001Y-99854001D01*
X169727804Y-99824997D01*
X171380114Y-98172688D01*
X171562665Y-98209000D01*
X171845335Y-98209000D01*
X172122574Y-98153853D01*
X172296042Y-98082000D01*
X174837928Y-98082000D01*
X174850188Y-98206482D01*
X174886498Y-98326180D01*
X174945463Y-98436494D01*
X175024815Y-98533185D01*
X175121506Y-98612537D01*
X175231820Y-98671502D01*
X175351518Y-98707812D01*
X175476000Y-98720072D01*
X175990250Y-98717000D01*
X176149000Y-98558250D01*
X176149000Y-97409000D01*
X176403000Y-97409000D01*
X176403000Y-98558250D01*
X176561750Y-98717000D01*
X177076000Y-98720072D01*
X177200482Y-98707812D01*
X177320180Y-98671502D01*
X177430494Y-98612537D01*
X177527185Y-98533185D01*
X177606537Y-98436494D01*
X177665502Y-98326180D01*
X177701812Y-98206482D01*
X177704231Y-98181920D01*
X177852586Y-98345519D01*
X178078580Y-98513037D01*
X178332913Y-98633246D01*
X178466961Y-98673904D01*
X178689000Y-98551915D01*
X178689000Y-97409000D01*
X176403000Y-97409000D01*
X176149000Y-97409000D01*
X174999750Y-97409000D01*
X174841000Y-97567750D01*
X174837928Y-98082000D01*
X172296042Y-98082000D01*
X172383727Y-98045680D01*
X172618759Y-97888637D01*
X172818637Y-97688759D01*
X172975680Y-97453727D01*
X173083853Y-97192574D01*
X173139000Y-96915335D01*
X173139000Y-96632665D01*
X173109031Y-96482000D01*
X174837928Y-96482000D01*
X174841000Y-96996250D01*
X174999750Y-97155000D01*
X176149000Y-97155000D01*
X176149000Y-96005750D01*
X176403000Y-96005750D01*
X176403000Y-97155000D01*
X178689000Y-97155000D01*
X178689000Y-96012085D01*
X178943000Y-96012085D01*
X178943000Y-97155000D01*
X181229000Y-97155000D01*
X181229000Y-96012085D01*
X181483000Y-96012085D01*
X181483000Y-97155000D01*
X183769000Y-97155000D01*
X183769000Y-96012085D01*
X184023000Y-96012085D01*
X184023000Y-97155000D01*
X186309000Y-97155000D01*
X186309000Y-96012085D01*
X186086961Y-95890096D01*
X185952913Y-95930754D01*
X185698580Y-96050963D01*
X185472586Y-96218481D01*
X185283615Y-96426869D01*
X185166000Y-96622982D01*
X185048385Y-96426869D01*
X184859414Y-96218481D01*
X184633420Y-96050963D01*
X184379087Y-95930754D01*
X184245039Y-95890096D01*
X184023000Y-96012085D01*
X183769000Y-96012085D01*
X183546961Y-95890096D01*
X183412913Y-95930754D01*
X183158580Y-96050963D01*
X182932586Y-96218481D01*
X182743615Y-96426869D01*
X182626000Y-96622982D01*
X182508385Y-96426869D01*
X182319414Y-96218481D01*
X182093420Y-96050963D01*
X181839087Y-95930754D01*
X181705039Y-95890096D01*
X181483000Y-96012085D01*
X181229000Y-96012085D01*
X181006961Y-95890096D01*
X180872913Y-95930754D01*
X180618580Y-96050963D01*
X180392586Y-96218481D01*
X180203615Y-96426869D01*
X180086000Y-96622982D01*
X179968385Y-96426869D01*
X179779414Y-96218481D01*
X179553420Y-96050963D01*
X179299087Y-95930754D01*
X179165039Y-95890096D01*
X178943000Y-96012085D01*
X178689000Y-96012085D01*
X178466961Y-95890096D01*
X178332913Y-95930754D01*
X178078580Y-96050963D01*
X177852586Y-96218481D01*
X177704231Y-96382080D01*
X177701812Y-96357518D01*
X177665502Y-96237820D01*
X177606537Y-96127506D01*
X177527185Y-96030815D01*
X177430494Y-95951463D01*
X177320180Y-95892498D01*
X177200482Y-95856188D01*
X177076000Y-95843928D01*
X176561750Y-95847000D01*
X176403000Y-96005750D01*
X176149000Y-96005750D01*
X175990250Y-95847000D01*
X175476000Y-95843928D01*
X175351518Y-95856188D01*
X175231820Y-95892498D01*
X175121506Y-95951463D01*
X175024815Y-96030815D01*
X174945463Y-96127506D01*
X174886498Y-96237820D01*
X174850188Y-96357518D01*
X174837928Y-96482000D01*
X173109031Y-96482000D01*
X173083853Y-96355426D01*
X172975680Y-96094273D01*
X172818637Y-95859241D01*
X172618759Y-95659363D01*
X172383727Y-95502320D01*
X172122574Y-95394147D01*
X171845335Y-95339000D01*
X171562665Y-95339000D01*
X171285426Y-95394147D01*
X171024273Y-95502320D01*
X170789241Y-95659363D01*
X170589363Y-95859241D01*
X170432320Y-96094273D01*
X170324147Y-96355426D01*
X170269000Y-96632665D01*
X170269000Y-96915335D01*
X170305312Y-97097886D01*
X168849199Y-98554000D01*
X156016802Y-98554000D01*
X155006572Y-97543771D01*
X155006572Y-97123039D01*
X160152096Y-97123039D01*
X160192754Y-97257087D01*
X160312963Y-97511420D01*
X160480481Y-97737414D01*
X160688869Y-97926385D01*
X160930119Y-98071070D01*
X161194960Y-98165909D01*
X161417000Y-98044624D01*
X161417000Y-96901000D01*
X161671000Y-96901000D01*
X161671000Y-98044624D01*
X161893040Y-98165909D01*
X162157881Y-98071070D01*
X162399131Y-97926385D01*
X162607519Y-97737414D01*
X162775037Y-97511420D01*
X162895246Y-97257087D01*
X162935904Y-97123039D01*
X162813915Y-96901000D01*
X161671000Y-96901000D01*
X161417000Y-96901000D01*
X160274085Y-96901000D01*
X160152096Y-97123039D01*
X155006572Y-97123039D01*
X155006572Y-96424961D01*
X160152096Y-96424961D01*
X160274085Y-96647000D01*
X161417000Y-96647000D01*
X161417000Y-95503376D01*
X161671000Y-95503376D01*
X161671000Y-96647000D01*
X162813915Y-96647000D01*
X162935904Y-96424961D01*
X162895246Y-96290913D01*
X162775037Y-96036580D01*
X162607519Y-95810586D01*
X162399131Y-95621615D01*
X162157881Y-95476930D01*
X161893040Y-95382091D01*
X161671000Y-95503376D01*
X161417000Y-95503376D01*
X161194960Y-95382091D01*
X160930119Y-95476930D01*
X160688869Y-95621615D01*
X160480481Y-95810586D01*
X160312963Y-96036580D01*
X160192754Y-96290913D01*
X160152096Y-96424961D01*
X155006572Y-96424961D01*
X155006572Y-96282000D01*
X154994312Y-96157518D01*
X154958002Y-96037820D01*
X154899037Y-95927506D01*
X154819685Y-95830815D01*
X154722994Y-95751463D01*
X154612680Y-95692498D01*
X154492982Y-95656188D01*
X154368500Y-95643928D01*
X152463500Y-95643928D01*
X152339018Y-95656188D01*
X152219320Y-95692498D01*
X152109006Y-95751463D01*
X152012315Y-95830815D01*
X151932963Y-95927506D01*
X151911000Y-95968595D01*
X151911000Y-92275268D01*
X155137000Y-92275268D01*
X155137000Y-92636732D01*
X155207518Y-92991250D01*
X155345844Y-93325199D01*
X155546662Y-93625744D01*
X155802256Y-93881338D01*
X156102801Y-94082156D01*
X156436750Y-94220482D01*
X156791268Y-94291000D01*
X157152732Y-94291000D01*
X157507250Y-94220482D01*
X157841199Y-94082156D01*
X158141744Y-93881338D01*
X158397338Y-93625744D01*
X158598156Y-93325199D01*
X158736482Y-92991250D01*
X158770015Y-92822665D01*
X160109000Y-92822665D01*
X160109000Y-93105335D01*
X160164147Y-93382574D01*
X160272320Y-93643727D01*
X160429363Y-93878759D01*
X160629241Y-94078637D01*
X160864273Y-94235680D01*
X161125426Y-94343853D01*
X161402665Y-94399000D01*
X161685335Y-94399000D01*
X161962574Y-94343853D01*
X162223727Y-94235680D01*
X162458759Y-94078637D01*
X162658637Y-93878759D01*
X162815680Y-93643727D01*
X162923853Y-93382574D01*
X162979000Y-93105335D01*
X162979000Y-92822665D01*
X170269000Y-92822665D01*
X170269000Y-93105335D01*
X170324147Y-93382574D01*
X170432320Y-93643727D01*
X170589363Y-93878759D01*
X170789241Y-94078637D01*
X171024273Y-94235680D01*
X171285426Y-94343853D01*
X171562665Y-94399000D01*
X171845335Y-94399000D01*
X172122574Y-94343853D01*
X172383727Y-94235680D01*
X172618759Y-94078637D01*
X172818637Y-93878759D01*
X172975680Y-93643727D01*
X173083853Y-93382574D01*
X173139000Y-93105335D01*
X173139000Y-92822665D01*
X173083853Y-92545426D01*
X172975680Y-92284273D01*
X172818637Y-92049241D01*
X172618759Y-91849363D01*
X172383727Y-91692320D01*
X172122574Y-91584147D01*
X171845335Y-91529000D01*
X171562665Y-91529000D01*
X171285426Y-91584147D01*
X171024273Y-91692320D01*
X170789241Y-91849363D01*
X170589363Y-92049241D01*
X170432320Y-92284273D01*
X170324147Y-92545426D01*
X170269000Y-92822665D01*
X162979000Y-92822665D01*
X162923853Y-92545426D01*
X162815680Y-92284273D01*
X162658637Y-92049241D01*
X162458759Y-91849363D01*
X162223727Y-91692320D01*
X161962574Y-91584147D01*
X161685335Y-91529000D01*
X161402665Y-91529000D01*
X161125426Y-91584147D01*
X160864273Y-91692320D01*
X160629241Y-91849363D01*
X160429363Y-92049241D01*
X160272320Y-92284273D01*
X160164147Y-92545426D01*
X160109000Y-92822665D01*
X158770015Y-92822665D01*
X158807000Y-92636732D01*
X158807000Y-92275268D01*
X158736482Y-91920750D01*
X158598156Y-91586801D01*
X158397338Y-91286256D01*
X158141744Y-91030662D01*
X157841199Y-90829844D01*
X157507250Y-90691518D01*
X157152732Y-90621000D01*
X156791268Y-90621000D01*
X156436750Y-90691518D01*
X156102801Y-90829844D01*
X155802256Y-91030662D01*
X155546662Y-91286256D01*
X155345844Y-91586801D01*
X155207518Y-91920750D01*
X155137000Y-92275268D01*
X151911000Y-92275268D01*
X151911000Y-91744835D01*
X151916007Y-91694000D01*
X151911000Y-91643162D01*
X151896024Y-91491105D01*
X151836841Y-91296007D01*
X151768958Y-91169007D01*
X151740734Y-91116202D01*
X151643803Y-90998092D01*
X151611396Y-90958604D01*
X151571908Y-90926197D01*
X149611807Y-88966097D01*
X149579396Y-88926604D01*
X149421797Y-88797266D01*
X149241993Y-88701159D01*
X149046895Y-88641976D01*
X148894838Y-88627000D01*
X148894828Y-88627000D01*
X148844000Y-88621994D01*
X148793172Y-88627000D01*
X139242835Y-88627000D01*
X139192000Y-88621993D01*
X139141165Y-88627000D01*
X139141162Y-88627000D01*
X138989105Y-88641976D01*
X138794007Y-88701159D01*
X138710309Y-88745896D01*
X138614202Y-88797266D01*
X138496092Y-88894197D01*
X138456604Y-88926604D01*
X138424197Y-88966092D01*
X137211362Y-90178928D01*
X136410000Y-90178928D01*
X136285518Y-90191188D01*
X136165820Y-90227498D01*
X136100965Y-90262164D01*
X135243799Y-89405000D01*
X135219999Y-89375999D01*
X135175548Y-89339519D01*
X135104274Y-89281026D01*
X134972244Y-89210454D01*
X134828983Y-89166998D01*
X134679998Y-89152324D01*
X134679997Y-89152324D01*
X134531011Y-89166998D01*
X134387751Y-89210454D01*
X134326066Y-89243426D01*
X134255722Y-89281026D01*
X134139997Y-89375999D01*
X134116199Y-89404997D01*
X133000745Y-90520451D01*
X132973843Y-90493549D01*
X132857387Y-90610005D01*
X132791863Y-90371140D01*
X132544884Y-90255240D01*
X132280040Y-90189750D01*
X132007508Y-90177188D01*
X131737762Y-90218035D01*
X131481168Y-90310723D01*
X131368137Y-90371140D01*
X131302612Y-90610007D01*
X132080000Y-91387395D01*
X132094143Y-91373253D01*
X132273748Y-91552858D01*
X132259605Y-91567000D01*
X132273748Y-91581143D01*
X132094143Y-91760748D01*
X132080000Y-91746605D01*
X131302612Y-92523993D01*
X131368137Y-92762860D01*
X131615116Y-92878760D01*
X131879960Y-92944250D01*
X132152492Y-92956812D01*
X132422238Y-92915965D01*
X132590000Y-92855365D01*
X132590000Y-92949091D01*
X132467114Y-93031201D01*
X132274201Y-93224114D01*
X132122629Y-93450957D01*
X132080000Y-93553873D01*
X132037371Y-93450957D01*
X131885799Y-93224114D01*
X131692886Y-93031201D01*
X131466043Y-92879629D01*
X131213989Y-92775225D01*
X130946411Y-92722000D01*
X130673589Y-92722000D01*
X130406011Y-92775225D01*
X130153957Y-92879629D01*
X129927114Y-93031201D01*
X129734201Y-93224114D01*
X129582629Y-93450957D01*
X129540000Y-93553873D01*
X129497371Y-93450957D01*
X129345799Y-93224114D01*
X129152886Y-93031201D01*
X128926043Y-92879629D01*
X128673989Y-92775225D01*
X128406411Y-92722000D01*
X128133589Y-92722000D01*
X127866011Y-92775225D01*
X127613957Y-92879629D01*
X127387114Y-93031201D01*
X127194201Y-93224114D01*
X127042629Y-93450957D01*
X126938225Y-93703011D01*
X126885000Y-93970589D01*
X126885000Y-94243411D01*
X126938225Y-94510989D01*
X127042629Y-94763043D01*
X127194201Y-94989886D01*
X127385000Y-95180685D01*
X127385001Y-99568163D01*
X127289482Y-99539188D01*
X127165000Y-99526928D01*
X125565000Y-99526928D01*
X125440518Y-99539188D01*
X125320820Y-99575498D01*
X125210506Y-99634463D01*
X125113815Y-99713815D01*
X125034463Y-99810506D01*
X124975498Y-99920820D01*
X124939188Y-100040518D01*
X124926928Y-100165000D01*
X124926928Y-101765000D01*
X124939188Y-101889482D01*
X124975498Y-102009180D01*
X125034463Y-102119494D01*
X125113815Y-102216185D01*
X125210506Y-102295537D01*
X125320820Y-102354502D01*
X125440518Y-102390812D01*
X125448961Y-102391643D01*
X125250363Y-102590241D01*
X125093320Y-102825273D01*
X124985147Y-103086426D01*
X124930000Y-103363665D01*
X124930000Y-103646335D01*
X124985147Y-103923574D01*
X125093320Y-104184727D01*
X125250363Y-104419759D01*
X125450241Y-104619637D01*
X125682759Y-104775000D01*
X125450241Y-104930363D01*
X125250363Y-105130241D01*
X125093320Y-105365273D01*
X124985147Y-105626426D01*
X124930000Y-105903665D01*
X124930000Y-106186335D01*
X124985147Y-106463574D01*
X125093320Y-106724727D01*
X125250363Y-106959759D01*
X125450241Y-107159637D01*
X125682759Y-107315000D01*
X125450241Y-107470363D01*
X125250363Y-107670241D01*
X125093320Y-107905273D01*
X124985147Y-108166426D01*
X124930000Y-108443665D01*
X124930000Y-108726335D01*
X124985147Y-109003574D01*
X125093320Y-109264727D01*
X125250363Y-109499759D01*
X125450241Y-109699637D01*
X125682759Y-109855000D01*
X125450241Y-110010363D01*
X125250363Y-110210241D01*
X125093320Y-110445273D01*
X124985147Y-110706426D01*
X124930000Y-110983665D01*
X124930000Y-111266335D01*
X124985147Y-111543574D01*
X125093320Y-111804727D01*
X125250363Y-112039759D01*
X125450241Y-112239637D01*
X125682759Y-112395000D01*
X125450241Y-112550363D01*
X125250363Y-112750241D01*
X125093320Y-112985273D01*
X124985147Y-113246426D01*
X124930000Y-113523665D01*
X124930000Y-113806335D01*
X124985147Y-114083574D01*
X125093320Y-114344727D01*
X125250363Y-114579759D01*
X125450241Y-114779637D01*
X125682759Y-114935000D01*
X125450241Y-115090363D01*
X125250363Y-115290241D01*
X125093320Y-115525273D01*
X124985147Y-115786426D01*
X124930000Y-116063665D01*
X124930000Y-116346335D01*
X124985147Y-116623574D01*
X125093320Y-116884727D01*
X125250363Y-117119759D01*
X125450241Y-117319637D01*
X125682759Y-117475000D01*
X125450241Y-117630363D01*
X125250363Y-117830241D01*
X125093320Y-118065273D01*
X124985147Y-118326426D01*
X124930000Y-118603665D01*
X124930000Y-118886335D01*
X124985147Y-119163574D01*
X125093320Y-119424727D01*
X125250363Y-119659759D01*
X125450241Y-119859637D01*
X125685273Y-120016680D01*
X125946426Y-120124853D01*
X126223665Y-120180000D01*
X126506335Y-120180000D01*
X126688886Y-120143688D01*
X126926202Y-120381004D01*
X126950000Y-120410002D01*
X127065725Y-120504975D01*
X127099447Y-120523000D01*
X123952000Y-120523000D01*
X123952000Y-91430589D01*
X128155000Y-91430589D01*
X128155000Y-91703411D01*
X128208225Y-91970989D01*
X128312629Y-92223043D01*
X128464201Y-92449886D01*
X128657114Y-92642799D01*
X128883957Y-92794371D01*
X129136011Y-92898775D01*
X129403589Y-92952000D01*
X129676411Y-92952000D01*
X129943989Y-92898775D01*
X130196043Y-92794371D01*
X130422886Y-92642799D01*
X130615799Y-92449886D01*
X130767371Y-92223043D01*
X130808511Y-92123721D01*
X130823723Y-92165832D01*
X130884140Y-92278863D01*
X131123007Y-92344388D01*
X131900395Y-91567000D01*
X131123007Y-90789612D01*
X130884140Y-90855137D01*
X130809836Y-91013477D01*
X130767371Y-90910957D01*
X130615799Y-90684114D01*
X130422886Y-90491201D01*
X130196043Y-90339629D01*
X129943989Y-90235225D01*
X129676411Y-90182000D01*
X129403589Y-90182000D01*
X129136011Y-90235225D01*
X128883957Y-90339629D01*
X128657114Y-90491201D01*
X128464201Y-90684114D01*
X128312629Y-90910957D01*
X128208225Y-91163011D01*
X128155000Y-91430589D01*
X123952000Y-91430589D01*
X123952000Y-84996872D01*
X124765000Y-84996872D01*
X124765000Y-85437128D01*
X124850890Y-85868925D01*
X125019369Y-86275669D01*
X125263962Y-86641729D01*
X125575271Y-86953038D01*
X125941331Y-87197631D01*
X126348075Y-87366110D01*
X126779872Y-87452000D01*
X127220128Y-87452000D01*
X127651925Y-87366110D01*
X128058669Y-87197631D01*
X128424729Y-86953038D01*
X128736038Y-86641729D01*
X128980631Y-86275669D01*
X129149110Y-85868925D01*
X129235000Y-85437128D01*
X129235000Y-84996872D01*
X136195000Y-84996872D01*
X136195000Y-85437128D01*
X136280890Y-85868925D01*
X136449369Y-86275669D01*
X136693962Y-86641729D01*
X137005271Y-86953038D01*
X137371331Y-87197631D01*
X137778075Y-87366110D01*
X138209872Y-87452000D01*
X138650128Y-87452000D01*
X139081925Y-87366110D01*
X139488669Y-87197631D01*
X139854729Y-86953038D01*
X140166038Y-86641729D01*
X140410631Y-86275669D01*
X140579110Y-85868925D01*
X140665000Y-85437128D01*
X140665000Y-84996872D01*
X140579110Y-84565075D01*
X140410631Y-84158331D01*
X140322361Y-84026224D01*
X143042381Y-84026224D01*
X143174317Y-84321312D01*
X143515045Y-84492159D01*
X143882557Y-84593250D01*
X144262729Y-84620701D01*
X144640951Y-84573457D01*
X145002690Y-84453333D01*
X145249683Y-84321312D01*
X145381619Y-84026224D01*
X144212000Y-82856605D01*
X143042381Y-84026224D01*
X140322361Y-84026224D01*
X140166038Y-83792271D01*
X139854729Y-83480962D01*
X139488669Y-83236369D01*
X139081925Y-83067890D01*
X138650128Y-82982000D01*
X138209872Y-82982000D01*
X137778075Y-83067890D01*
X137371331Y-83236369D01*
X137005271Y-83480962D01*
X136693962Y-83792271D01*
X136449369Y-84158331D01*
X136280890Y-84565075D01*
X136195000Y-84996872D01*
X129235000Y-84996872D01*
X129149110Y-84565075D01*
X128980631Y-84158331D01*
X128736038Y-83792271D01*
X128424729Y-83480962D01*
X128058669Y-83236369D01*
X127651925Y-83067890D01*
X127220128Y-82982000D01*
X126779872Y-82982000D01*
X126348075Y-83067890D01*
X125941331Y-83236369D01*
X125575271Y-83480962D01*
X125263962Y-83792271D01*
X125019369Y-84158331D01*
X124850890Y-84565075D01*
X124765000Y-84996872D01*
X123952000Y-84996872D01*
X123952000Y-82727729D01*
X142268299Y-82727729D01*
X142315543Y-83105951D01*
X142435667Y-83467690D01*
X142567688Y-83714683D01*
X142862776Y-83846619D01*
X144032395Y-82677000D01*
X142862776Y-81507381D01*
X142567688Y-81639317D01*
X142396841Y-81980045D01*
X142295750Y-82347557D01*
X142268299Y-82727729D01*
X123952000Y-82727729D01*
X123952000Y-81327776D01*
X143042381Y-81327776D01*
X144212000Y-82497395D01*
X145381619Y-81327776D01*
X145249683Y-81032688D01*
X144908955Y-80861841D01*
X144541443Y-80760750D01*
X144161271Y-80733299D01*
X143783049Y-80780543D01*
X143421310Y-80900667D01*
X143174317Y-81032688D01*
X143042381Y-81327776D01*
X123952000Y-81327776D01*
X123952000Y-78867000D01*
X189103000Y-78867000D01*
X189103000Y-82364198D01*
%TA.AperFunction,Conductor*%
D25*
G36*
X189103000Y-82364198D02*
G01*
X186237804Y-79499003D01*
X186214001Y-79469999D01*
X186098276Y-79375026D01*
X185966247Y-79304454D01*
X185822986Y-79260997D01*
X185711333Y-79250000D01*
X185711322Y-79250000D01*
X185674000Y-79246324D01*
X185636678Y-79250000D01*
X150416333Y-79250000D01*
X150379000Y-79246323D01*
X150341667Y-79250000D01*
X150230014Y-79260997D01*
X150086753Y-79304454D01*
X149954724Y-79375026D01*
X149838999Y-79469999D01*
X149815201Y-79498997D01*
X148432986Y-80881213D01*
X148276419Y-80816361D01*
X147902581Y-80742000D01*
X147521419Y-80742000D01*
X147147581Y-80816361D01*
X146795434Y-80962225D01*
X146478509Y-81173987D01*
X146208987Y-81443509D01*
X145997225Y-81760434D01*
X145963967Y-81840725D01*
X145856312Y-81639317D01*
X145561224Y-81507381D01*
X144391605Y-82677000D01*
X145561224Y-83846619D01*
X145856312Y-83714683D01*
X145960952Y-83505995D01*
X145997225Y-83593566D01*
X146208987Y-83910491D01*
X146478509Y-84180013D01*
X146795434Y-84391775D01*
X147147581Y-84537639D01*
X147521419Y-84612000D01*
X147902581Y-84612000D01*
X148276419Y-84537639D01*
X148628566Y-84391775D01*
X148945491Y-84180013D01*
X149215013Y-83910491D01*
X149426775Y-83593566D01*
X149462000Y-83508525D01*
X149497225Y-83593566D01*
X149708987Y-83910491D01*
X149978509Y-84180013D01*
X150295434Y-84391775D01*
X150647581Y-84537639D01*
X151021419Y-84612000D01*
X151402581Y-84612000D01*
X151776419Y-84537639D01*
X152128566Y-84391775D01*
X152445491Y-84180013D01*
X152715013Y-83910491D01*
X152926775Y-83593566D01*
X152962000Y-83508525D01*
X152997225Y-83593566D01*
X153208987Y-83910491D01*
X153478509Y-84180013D01*
X153795434Y-84391775D01*
X154147581Y-84537639D01*
X154521419Y-84612000D01*
X154902581Y-84612000D01*
X155276419Y-84537639D01*
X155628566Y-84391775D01*
X155945491Y-84180013D01*
X156215013Y-83910491D01*
X156426775Y-83593566D01*
X156462000Y-83508525D01*
X156497225Y-83593566D01*
X156708987Y-83910491D01*
X156978509Y-84180013D01*
X157295434Y-84391775D01*
X157647581Y-84537639D01*
X158021419Y-84612000D01*
X158402581Y-84612000D01*
X158776419Y-84537639D01*
X159128566Y-84391775D01*
X159445491Y-84180013D01*
X159715013Y-83910491D01*
X159926775Y-83593566D01*
X159962000Y-83508525D01*
X159997225Y-83593566D01*
X160208987Y-83910491D01*
X160478509Y-84180013D01*
X160795434Y-84391775D01*
X161147581Y-84537639D01*
X161521419Y-84612000D01*
X161902581Y-84612000D01*
X162276419Y-84537639D01*
X162628566Y-84391775D01*
X162945491Y-84180013D01*
X163215013Y-83910491D01*
X163426775Y-83593566D01*
X163462000Y-83508525D01*
X163497225Y-83593566D01*
X163708987Y-83910491D01*
X163978509Y-84180013D01*
X164295434Y-84391775D01*
X164647581Y-84537639D01*
X165021419Y-84612000D01*
X165402581Y-84612000D01*
X165776419Y-84537639D01*
X166128566Y-84391775D01*
X166445491Y-84180013D01*
X166715013Y-83910491D01*
X166926775Y-83593566D01*
X166962000Y-83508525D01*
X166997225Y-83593566D01*
X167208987Y-83910491D01*
X167478509Y-84180013D01*
X167795434Y-84391775D01*
X168147581Y-84537639D01*
X168521419Y-84612000D01*
X168902581Y-84612000D01*
X169276419Y-84537639D01*
X169628566Y-84391775D01*
X169945491Y-84180013D01*
X170215013Y-83910491D01*
X170273928Y-83822318D01*
X170273928Y-83977000D01*
X170286188Y-84101482D01*
X170322498Y-84221180D01*
X170381463Y-84331494D01*
X170460815Y-84428185D01*
X170557506Y-84507537D01*
X170667820Y-84566502D01*
X170787518Y-84602812D01*
X170912000Y-84615072D01*
X173512000Y-84615072D01*
X173636482Y-84602812D01*
X173756180Y-84566502D01*
X173866494Y-84507537D01*
X173963185Y-84428185D01*
X174042537Y-84331494D01*
X174101502Y-84221180D01*
X174137812Y-84101482D01*
X174150072Y-83977000D01*
X174150072Y-83273042D01*
X182338000Y-83273042D01*
X182338000Y-83604958D01*
X182402754Y-83930496D01*
X182529772Y-84237147D01*
X182714175Y-84513125D01*
X182948875Y-84747825D01*
X183224853Y-84932228D01*
X183531504Y-85059246D01*
X183857042Y-85124000D01*
X184188958Y-85124000D01*
X184514496Y-85059246D01*
X184821147Y-84932228D01*
X185097125Y-84747825D01*
X185331825Y-84513125D01*
X185516228Y-84237147D01*
X185643246Y-83930496D01*
X185708000Y-83604958D01*
X185708000Y-83273042D01*
X185643246Y-82947504D01*
X185516228Y-82640853D01*
X185331825Y-82364875D01*
X185097125Y-82130175D01*
X184821147Y-81945772D01*
X184514496Y-81818754D01*
X184188958Y-81754000D01*
X183857042Y-81754000D01*
X183531504Y-81818754D01*
X183224853Y-81945772D01*
X182948875Y-82130175D01*
X182714175Y-82364875D01*
X182529772Y-82640853D01*
X182402754Y-82947504D01*
X182338000Y-83273042D01*
X174150072Y-83273042D01*
X174150072Y-81377000D01*
X174137812Y-81252518D01*
X174101502Y-81132820D01*
X174042537Y-81022506D01*
X173963185Y-80925815D01*
X173866494Y-80846463D01*
X173756180Y-80787498D01*
X173698497Y-80770000D01*
X185359199Y-80770000D01*
X188216000Y-83626802D01*
X188216000Y-90367198D01*
X187834688Y-89985886D01*
X187871000Y-89803335D01*
X187871000Y-89520665D01*
X187815853Y-89243426D01*
X187707680Y-88982273D01*
X187550637Y-88747241D01*
X187350759Y-88547363D01*
X187115727Y-88390320D01*
X186854574Y-88282147D01*
X186577335Y-88227000D01*
X186294665Y-88227000D01*
X186017426Y-88282147D01*
X185756273Y-88390320D01*
X185521241Y-88547363D01*
X185321363Y-88747241D01*
X185166000Y-88979759D01*
X185010637Y-88747241D01*
X184810759Y-88547363D01*
X184575727Y-88390320D01*
X184314574Y-88282147D01*
X184037335Y-88227000D01*
X183754665Y-88227000D01*
X183477426Y-88282147D01*
X183216273Y-88390320D01*
X182981241Y-88547363D01*
X182781363Y-88747241D01*
X182626000Y-88979759D01*
X182470637Y-88747241D01*
X182270759Y-88547363D01*
X182035727Y-88390320D01*
X181774574Y-88282147D01*
X181497335Y-88227000D01*
X181214665Y-88227000D01*
X180937426Y-88282147D01*
X180676273Y-88390320D01*
X180441241Y-88547363D01*
X180241363Y-88747241D01*
X180086000Y-88979759D01*
X179930637Y-88747241D01*
X179730759Y-88547363D01*
X179495727Y-88390320D01*
X179234574Y-88282147D01*
X178957335Y-88227000D01*
X178674665Y-88227000D01*
X178397426Y-88282147D01*
X178136273Y-88390320D01*
X177901241Y-88547363D01*
X177701363Y-88747241D01*
X177546000Y-88979759D01*
X177390637Y-88747241D01*
X177190759Y-88547363D01*
X176955727Y-88390320D01*
X176694574Y-88282147D01*
X176417335Y-88227000D01*
X176134665Y-88227000D01*
X175857426Y-88282147D01*
X175596273Y-88390320D01*
X175361241Y-88547363D01*
X175161363Y-88747241D01*
X175004320Y-88982273D01*
X174896147Y-89243426D01*
X174841000Y-89520665D01*
X174841000Y-89803335D01*
X174896147Y-90080574D01*
X175004320Y-90341727D01*
X175161363Y-90576759D01*
X175361241Y-90776637D01*
X175596273Y-90933680D01*
X175857426Y-91041853D01*
X176134665Y-91097000D01*
X176417335Y-91097000D01*
X176694574Y-91041853D01*
X176955727Y-90933680D01*
X177190759Y-90776637D01*
X177390637Y-90576759D01*
X177546000Y-90344241D01*
X177701363Y-90576759D01*
X177901241Y-90776637D01*
X178136273Y-90933680D01*
X178397426Y-91041853D01*
X178674665Y-91097000D01*
X178957335Y-91097000D01*
X179234574Y-91041853D01*
X179495727Y-90933680D01*
X179730759Y-90776637D01*
X179930637Y-90576759D01*
X180086000Y-90344241D01*
X180241363Y-90576759D01*
X180441241Y-90776637D01*
X180676273Y-90933680D01*
X180937426Y-91041853D01*
X181214665Y-91097000D01*
X181497335Y-91097000D01*
X181774574Y-91041853D01*
X182035727Y-90933680D01*
X182270759Y-90776637D01*
X182470637Y-90576759D01*
X182626000Y-90344241D01*
X182781363Y-90576759D01*
X182981241Y-90776637D01*
X183216273Y-90933680D01*
X183477426Y-91041853D01*
X183754665Y-91097000D01*
X184037335Y-91097000D01*
X184314574Y-91041853D01*
X184575727Y-90933680D01*
X184810759Y-90776637D01*
X185010637Y-90576759D01*
X185166000Y-90344241D01*
X185321363Y-90576759D01*
X185521241Y-90776637D01*
X185756273Y-90933680D01*
X186017426Y-91041853D01*
X186294665Y-91097000D01*
X186577335Y-91097000D01*
X186759886Y-91060688D01*
X187200001Y-91500804D01*
X187200000Y-96070666D01*
X187173420Y-96050963D01*
X186919087Y-95930754D01*
X186785039Y-95890096D01*
X186563000Y-96012085D01*
X186563000Y-97155000D01*
X186583000Y-97155000D01*
X186583000Y-97409000D01*
X186563000Y-97409000D01*
X186563000Y-97429000D01*
X186309000Y-97429000D01*
X186309000Y-97409000D01*
X184023000Y-97409000D01*
X184023000Y-97429000D01*
X183769000Y-97429000D01*
X183769000Y-97409000D01*
X181483000Y-97409000D01*
X181483000Y-97429000D01*
X181229000Y-97429000D01*
X181229000Y-97409000D01*
X178943000Y-97409000D01*
X178943000Y-98551915D01*
X179165039Y-98673904D01*
X179299087Y-98633246D01*
X179553420Y-98513037D01*
X179779414Y-98345519D01*
X179968385Y-98137131D01*
X180086000Y-97941018D01*
X180203615Y-98137131D01*
X180392586Y-98345519D01*
X180618580Y-98513037D01*
X180705248Y-98554000D01*
X179869323Y-98554000D01*
X179832000Y-98550324D01*
X179794677Y-98554000D01*
X179794667Y-98554000D01*
X179683014Y-98564997D01*
X179539753Y-98608454D01*
X179407723Y-98679026D01*
X179357709Y-98720072D01*
X179291999Y-98773999D01*
X179268201Y-98802997D01*
X177778999Y-100292200D01*
X177750001Y-100315998D01*
X177726203Y-100344996D01*
X177726202Y-100344997D01*
X177655027Y-100431723D01*
X177584455Y-100563753D01*
X177540999Y-100707014D01*
X177526325Y-100855999D01*
X177530002Y-100893331D01*
X177530002Y-101479491D01*
X177306335Y-101435000D01*
X177023665Y-101435000D01*
X176746426Y-101490147D01*
X176485273Y-101598320D01*
X176250241Y-101755363D01*
X176050363Y-101955241D01*
X175895000Y-102187759D01*
X175739637Y-101955241D01*
X175539759Y-101755363D01*
X175304727Y-101598320D01*
X175043574Y-101490147D01*
X174766335Y-101435000D01*
X174483665Y-101435000D01*
X174206426Y-101490147D01*
X173945273Y-101598320D01*
X173710241Y-101755363D01*
X173510363Y-101955241D01*
X173355000Y-102187759D01*
X173199637Y-101955241D01*
X172999759Y-101755363D01*
X172764727Y-101598320D01*
X172503574Y-101490147D01*
X172226335Y-101435000D01*
X171943665Y-101435000D01*
X171666426Y-101490147D01*
X171405273Y-101598320D01*
X171170241Y-101755363D01*
X170970363Y-101955241D01*
X170815000Y-102187759D01*
X170659637Y-101955241D01*
X170459759Y-101755363D01*
X170224727Y-101598320D01*
X169963574Y-101490147D01*
X169686335Y-101435000D01*
X169403665Y-101435000D01*
X169126426Y-101490147D01*
X168865273Y-101598320D01*
X168630241Y-101755363D01*
X168430363Y-101955241D01*
X168275000Y-102187759D01*
X168119637Y-101955241D01*
X167919759Y-101755363D01*
X167684727Y-101598320D01*
X167423574Y-101490147D01*
X167146335Y-101435000D01*
X166863665Y-101435000D01*
X166586426Y-101490147D01*
X166325273Y-101598320D01*
X166090241Y-101755363D01*
X165890363Y-101955241D01*
X165735000Y-102187759D01*
X165579637Y-101955241D01*
X165379759Y-101755363D01*
X165144727Y-101598320D01*
X164883574Y-101490147D01*
X164606335Y-101435000D01*
X164323665Y-101435000D01*
X164046426Y-101490147D01*
X163785273Y-101598320D01*
X163550241Y-101755363D01*
X163350363Y-101955241D01*
X163195000Y-102187759D01*
X163039637Y-101955241D01*
X162839759Y-101755363D01*
X162604727Y-101598320D01*
X162343574Y-101490147D01*
X162066335Y-101435000D01*
X161783665Y-101435000D01*
X161506426Y-101490147D01*
X161245273Y-101598320D01*
X161010241Y-101755363D01*
X160810363Y-101955241D01*
X160655000Y-102187759D01*
X160499637Y-101955241D01*
X160299759Y-101755363D01*
X160064727Y-101598320D01*
X159803574Y-101490147D01*
X159526335Y-101435000D01*
X159243665Y-101435000D01*
X158966426Y-101490147D01*
X158705273Y-101598320D01*
X158470241Y-101755363D01*
X158270363Y-101955241D01*
X158115000Y-102187759D01*
X157959637Y-101955241D01*
X157759759Y-101755363D01*
X157524727Y-101598320D01*
X157263574Y-101490147D01*
X156986335Y-101435000D01*
X156703665Y-101435000D01*
X156426426Y-101490147D01*
X156165273Y-101598320D01*
X155930241Y-101755363D01*
X155730363Y-101955241D01*
X155575000Y-102187759D01*
X155419637Y-101955241D01*
X155219759Y-101755363D01*
X154984727Y-101598320D01*
X154723574Y-101490147D01*
X154446335Y-101435000D01*
X154163665Y-101435000D01*
X153886426Y-101490147D01*
X153625273Y-101598320D01*
X153390241Y-101755363D01*
X153190363Y-101955241D01*
X153035000Y-102187759D01*
X152879637Y-101955241D01*
X152679759Y-101755363D01*
X152444727Y-101598320D01*
X152183574Y-101490147D01*
X151906335Y-101435000D01*
X151623665Y-101435000D01*
X151346426Y-101490147D01*
X151085273Y-101598320D01*
X150850241Y-101755363D01*
X150650363Y-101955241D01*
X150493320Y-102190273D01*
X150488933Y-102200865D01*
X150377385Y-102014869D01*
X150188414Y-101806481D01*
X149962420Y-101638963D01*
X149708087Y-101518754D01*
X149574039Y-101478096D01*
X149352000Y-101600085D01*
X149352000Y-102743000D01*
X149372000Y-102743000D01*
X149372000Y-102997000D01*
X149352000Y-102997000D01*
X149352000Y-104139915D01*
X149574039Y-104261904D01*
X149708087Y-104221246D01*
X149962420Y-104101037D01*
X150188414Y-103933519D01*
X150377385Y-103725131D01*
X150488933Y-103539135D01*
X150493320Y-103549727D01*
X150650363Y-103784759D01*
X150850241Y-103984637D01*
X151085273Y-104141680D01*
X151346426Y-104249853D01*
X151623665Y-104305000D01*
X151906335Y-104305000D01*
X152183574Y-104249853D01*
X152444727Y-104141680D01*
X152679759Y-103984637D01*
X152879637Y-103784759D01*
X153035000Y-103552241D01*
X153190363Y-103784759D01*
X153390241Y-103984637D01*
X153625273Y-104141680D01*
X153886426Y-104249853D01*
X154163665Y-104305000D01*
X154446335Y-104305000D01*
X154723574Y-104249853D01*
X154984727Y-104141680D01*
X155219759Y-103984637D01*
X155419637Y-103784759D01*
X155575000Y-103552241D01*
X155730363Y-103784759D01*
X155930241Y-103984637D01*
X156165273Y-104141680D01*
X156426426Y-104249853D01*
X156703665Y-104305000D01*
X156986335Y-104305000D01*
X157263574Y-104249853D01*
X157524727Y-104141680D01*
X157759759Y-103984637D01*
X157959637Y-103784759D01*
X158115000Y-103552241D01*
X158270363Y-103784759D01*
X158470241Y-103984637D01*
X158705273Y-104141680D01*
X158966426Y-104249853D01*
X159243665Y-104305000D01*
X159526335Y-104305000D01*
X159803574Y-104249853D01*
X160064727Y-104141680D01*
X160299759Y-103984637D01*
X160499637Y-103784759D01*
X160655000Y-103552241D01*
X160810363Y-103784759D01*
X161010241Y-103984637D01*
X161245273Y-104141680D01*
X161506426Y-104249853D01*
X161783665Y-104305000D01*
X162066335Y-104305000D01*
X162343574Y-104249853D01*
X162604727Y-104141680D01*
X162839759Y-103984637D01*
X163039637Y-103784759D01*
X163195000Y-103552241D01*
X163350363Y-103784759D01*
X163550241Y-103984637D01*
X163785273Y-104141680D01*
X164046426Y-104249853D01*
X164323665Y-104305000D01*
X164606335Y-104305000D01*
X164883574Y-104249853D01*
X165144727Y-104141680D01*
X165379759Y-103984637D01*
X165579637Y-103784759D01*
X165735000Y-103552241D01*
X165890363Y-103784759D01*
X166090241Y-103984637D01*
X166325273Y-104141680D01*
X166586426Y-104249853D01*
X166863665Y-104305000D01*
X167146335Y-104305000D01*
X167423574Y-104249853D01*
X167684727Y-104141680D01*
X167919759Y-103984637D01*
X168119637Y-103784759D01*
X168275000Y-103552241D01*
X168430363Y-103784759D01*
X168630241Y-103984637D01*
X168865273Y-104141680D01*
X169126426Y-104249853D01*
X169403665Y-104305000D01*
X169686335Y-104305000D01*
X169963574Y-104249853D01*
X170224727Y-104141680D01*
X170459759Y-103984637D01*
X170659637Y-103784759D01*
X170815000Y-103552241D01*
X170970363Y-103784759D01*
X171170241Y-103984637D01*
X171405273Y-104141680D01*
X171666426Y-104249853D01*
X171943665Y-104305000D01*
X172226335Y-104305000D01*
X172503574Y-104249853D01*
X172764727Y-104141680D01*
X172999759Y-103984637D01*
X173199637Y-103784759D01*
X173355000Y-103552241D01*
X173510363Y-103784759D01*
X173710241Y-103984637D01*
X173945273Y-104141680D01*
X174206426Y-104249853D01*
X174483665Y-104305000D01*
X174766335Y-104305000D01*
X175043574Y-104249853D01*
X175304727Y-104141680D01*
X175539759Y-103984637D01*
X175739637Y-103784759D01*
X175895000Y-103552241D01*
X176050363Y-103784759D01*
X176250241Y-103984637D01*
X176484222Y-104140978D01*
X164400202Y-116224999D01*
X163087326Y-116224999D01*
X163050001Y-116221323D01*
X163012676Y-116224999D01*
X163012668Y-116224999D01*
X162901015Y-116235996D01*
X162757754Y-116279453D01*
X162625725Y-116350025D01*
X162510000Y-116444998D01*
X162486202Y-116473996D01*
X162248886Y-116711312D01*
X162066335Y-116675000D01*
X161783665Y-116675000D01*
X161506426Y-116730147D01*
X161245273Y-116838320D01*
X161010241Y-116995363D01*
X160810363Y-117195241D01*
X160655000Y-117427759D01*
X160499637Y-117195241D01*
X160299759Y-116995363D01*
X160064727Y-116838320D01*
X159803574Y-116730147D01*
X159526335Y-116675000D01*
X159243665Y-116675000D01*
X158966426Y-116730147D01*
X158705273Y-116838320D01*
X158470241Y-116995363D01*
X158270363Y-117195241D01*
X158115000Y-117427759D01*
X157959637Y-117195241D01*
X157759759Y-116995363D01*
X157524727Y-116838320D01*
X157263574Y-116730147D01*
X156986335Y-116675000D01*
X156703665Y-116675000D01*
X156426426Y-116730147D01*
X156165273Y-116838320D01*
X155930241Y-116995363D01*
X155730363Y-117195241D01*
X155573320Y-117430273D01*
X155568933Y-117440865D01*
X155457385Y-117254869D01*
X155268414Y-117046481D01*
X155042420Y-116878963D01*
X154788087Y-116758754D01*
X154654039Y-116718096D01*
X154432000Y-116840085D01*
X154432000Y-117983000D01*
X154452000Y-117983000D01*
X154452000Y-118237000D01*
X154432000Y-118237000D01*
X154432000Y-118257000D01*
X154178000Y-118257000D01*
X154178000Y-118237000D01*
X154158000Y-118237000D01*
X154158000Y-117983000D01*
X154178000Y-117983000D01*
X154178000Y-116840085D01*
X153955961Y-116718096D01*
X153821913Y-116758754D01*
X153567580Y-116878963D01*
X153341586Y-117046481D01*
X153152615Y-117254869D01*
X153041067Y-117440865D01*
X153036680Y-117430273D01*
X152879637Y-117195241D01*
X152679759Y-116995363D01*
X152444727Y-116838320D01*
X152183574Y-116730147D01*
X151906335Y-116675000D01*
X151623665Y-116675000D01*
X151346426Y-116730147D01*
X151085273Y-116838320D01*
X150850241Y-116995363D01*
X150650363Y-117195241D01*
X150495000Y-117427759D01*
X150339637Y-117195241D01*
X150139759Y-116995363D01*
X149904727Y-116838320D01*
X149643574Y-116730147D01*
X149366335Y-116675000D01*
X149083665Y-116675000D01*
X148806426Y-116730147D01*
X148545273Y-116838320D01*
X148310241Y-116995363D01*
X148111643Y-117193961D01*
X148110812Y-117185518D01*
X148074502Y-117065820D01*
X148015537Y-116955506D01*
X147936185Y-116858815D01*
X147839494Y-116779463D01*
X147729180Y-116720498D01*
X147609482Y-116684188D01*
X147485000Y-116671928D01*
X145885000Y-116671928D01*
X145760518Y-116684188D01*
X145640820Y-116720498D01*
X145530506Y-116779463D01*
X145433815Y-116858815D01*
X145354463Y-116955506D01*
X145295498Y-117065820D01*
X145259188Y-117185518D01*
X145246928Y-117310000D01*
X145246928Y-118910000D01*
X145259188Y-119034482D01*
X145282096Y-119110001D01*
X140452063Y-119110001D01*
X140456904Y-119094039D01*
X140334915Y-118872000D01*
X139192000Y-118872000D01*
X139192000Y-118892000D01*
X138938000Y-118892000D01*
X138938000Y-118872000D01*
X138918000Y-118872000D01*
X138918000Y-118618000D01*
X138938000Y-118618000D01*
X138938000Y-118598000D01*
X139192000Y-118598000D01*
X139192000Y-118618000D01*
X140334915Y-118618000D01*
X140456904Y-118395961D01*
X140416246Y-118261913D01*
X140296037Y-118007580D01*
X140128519Y-117781586D01*
X139920131Y-117592615D01*
X139734135Y-117481067D01*
X139744727Y-117476680D01*
X139979759Y-117319637D01*
X140179637Y-117119759D01*
X140336680Y-116884727D01*
X140444853Y-116623574D01*
X140500000Y-116346335D01*
X140500000Y-116063665D01*
X140444853Y-115786426D01*
X140336680Y-115525273D01*
X140179637Y-115290241D01*
X139979759Y-115090363D01*
X139747241Y-114935000D01*
X139979759Y-114779637D01*
X140179637Y-114579759D01*
X140336680Y-114344727D01*
X140444853Y-114083574D01*
X140500000Y-113806335D01*
X140500000Y-113523665D01*
X140444853Y-113246426D01*
X140336680Y-112985273D01*
X140179637Y-112750241D01*
X139979759Y-112550363D01*
X139747241Y-112395000D01*
X139979759Y-112239637D01*
X140179637Y-112039759D01*
X140336680Y-111804727D01*
X140444853Y-111543574D01*
X140500000Y-111266335D01*
X140500000Y-110983665D01*
X140444853Y-110706426D01*
X140336680Y-110445273D01*
X140179637Y-110210241D01*
X139979759Y-110010363D01*
X139747241Y-109855000D01*
X139979759Y-109699637D01*
X140179637Y-109499759D01*
X140336680Y-109264727D01*
X140444853Y-109003574D01*
X140500000Y-108726335D01*
X140500000Y-108443665D01*
X140444853Y-108166426D01*
X140336680Y-107905273D01*
X140179637Y-107670241D01*
X139979759Y-107470363D01*
X139747241Y-107315000D01*
X139979759Y-107159637D01*
X140179637Y-106959759D01*
X140336680Y-106724727D01*
X140444853Y-106463574D01*
X140500000Y-106186335D01*
X140500000Y-105903665D01*
X140444853Y-105626426D01*
X140336680Y-105365273D01*
X140179637Y-105130241D01*
X139979759Y-104930363D01*
X139744727Y-104773320D01*
X139734135Y-104768933D01*
X139920131Y-104657385D01*
X140128519Y-104468414D01*
X140296037Y-104242420D01*
X140416246Y-103988087D01*
X140456904Y-103854039D01*
X140334915Y-103632000D01*
X139192000Y-103632000D01*
X139192000Y-103652000D01*
X138938000Y-103652000D01*
X138938000Y-103632000D01*
X138918000Y-103632000D01*
X138918000Y-103378000D01*
X138938000Y-103378000D01*
X138938000Y-103358000D01*
X139192000Y-103358000D01*
X139192000Y-103378000D01*
X140334915Y-103378000D01*
X140456904Y-103155961D01*
X140416246Y-103021913D01*
X140296037Y-102767580D01*
X140267192Y-102728665D01*
X145250000Y-102728665D01*
X145250000Y-103011335D01*
X145305147Y-103288574D01*
X145413320Y-103549727D01*
X145570363Y-103784759D01*
X145770241Y-103984637D01*
X146005273Y-104141680D01*
X146266426Y-104249853D01*
X146543665Y-104305000D01*
X146826335Y-104305000D01*
X147103574Y-104249853D01*
X147364727Y-104141680D01*
X147599759Y-103984637D01*
X147799637Y-103784759D01*
X147956680Y-103549727D01*
X147961067Y-103539135D01*
X148072615Y-103725131D01*
X148261586Y-103933519D01*
X148487580Y-104101037D01*
X148741913Y-104221246D01*
X148875961Y-104261904D01*
X149098000Y-104139915D01*
X149098000Y-102997000D01*
X149078000Y-102997000D01*
X149078000Y-102743000D01*
X149098000Y-102743000D01*
X149098000Y-101600085D01*
X148875961Y-101478096D01*
X148741913Y-101518754D01*
X148487580Y-101638963D01*
X148261586Y-101806481D01*
X148072615Y-102014869D01*
X147961067Y-102200865D01*
X147956680Y-102190273D01*
X147799637Y-101955241D01*
X147599759Y-101755363D01*
X147364727Y-101598320D01*
X147103574Y-101490147D01*
X146826335Y-101435000D01*
X146543665Y-101435000D01*
X146266426Y-101490147D01*
X146005273Y-101598320D01*
X145770241Y-101755363D01*
X145570363Y-101955241D01*
X145413320Y-102190273D01*
X145305147Y-102451426D01*
X145250000Y-102728665D01*
X140267192Y-102728665D01*
X140128519Y-102541586D01*
X139920131Y-102352615D01*
X139734135Y-102241067D01*
X139744727Y-102236680D01*
X139979759Y-102079637D01*
X140179637Y-101879759D01*
X140336680Y-101644727D01*
X140444853Y-101383574D01*
X140500000Y-101106335D01*
X140500000Y-100823665D01*
X140444853Y-100546426D01*
X140336680Y-100285273D01*
X140179637Y-100050241D01*
X139979759Y-99850363D01*
X139744727Y-99693320D01*
X139483574Y-99585147D01*
X139206335Y-99530000D01*
X138923665Y-99530000D01*
X138646426Y-99585147D01*
X138385273Y-99693320D01*
X138150241Y-99850363D01*
X137950363Y-100050241D01*
X137793320Y-100285273D01*
X137791425Y-100289848D01*
X135505000Y-98003424D01*
X135505000Y-97878042D01*
X141063000Y-97878042D01*
X141063000Y-98209958D01*
X141127754Y-98535496D01*
X141254772Y-98842147D01*
X141439175Y-99118125D01*
X141673875Y-99352825D01*
X141949853Y-99537228D01*
X142256504Y-99664246D01*
X142582042Y-99729000D01*
X142913958Y-99729000D01*
X143239496Y-99664246D01*
X143546147Y-99537228D01*
X143822125Y-99352825D01*
X144056825Y-99118125D01*
X144241228Y-98842147D01*
X144368246Y-98535496D01*
X144433000Y-98209958D01*
X144433000Y-97878042D01*
X144388806Y-97655863D01*
X146783622Y-97655863D01*
X146877121Y-97952446D01*
X147026684Y-98225089D01*
X147226563Y-98463315D01*
X147469077Y-98657969D01*
X147744906Y-98801571D01*
X147963020Y-98872563D01*
X148209000Y-98752594D01*
X148209000Y-97409000D01*
X146910430Y-97409000D01*
X146783622Y-97655863D01*
X144388806Y-97655863D01*
X144368246Y-97552504D01*
X144241228Y-97245853D01*
X144056825Y-96969875D01*
X143995087Y-96908137D01*
X146783622Y-96908137D01*
X146910430Y-97155000D01*
X148209000Y-97155000D01*
X148209000Y-95811406D01*
X147963020Y-95691437D01*
X147744906Y-95762429D01*
X147469077Y-95906031D01*
X147226563Y-96100685D01*
X147026684Y-96338911D01*
X146877121Y-96611554D01*
X146783622Y-96908137D01*
X143995087Y-96908137D01*
X143822125Y-96735175D01*
X143546147Y-96550772D01*
X143239496Y-96423754D01*
X142913958Y-96359000D01*
X142582042Y-96359000D01*
X142256504Y-96423754D01*
X141949853Y-96550772D01*
X141673875Y-96735175D01*
X141439175Y-96969875D01*
X141254772Y-97245853D01*
X141127754Y-97552504D01*
X141063000Y-97878042D01*
X135505000Y-97878042D01*
X135505000Y-95442552D01*
X135753589Y-95492000D01*
X136026411Y-95492000D01*
X136293989Y-95438775D01*
X136546043Y-95334371D01*
X136772886Y-95182799D01*
X136965799Y-94989886D01*
X137117371Y-94763043D01*
X137221775Y-94510989D01*
X137275000Y-94243411D01*
X137275000Y-93970589D01*
X137221775Y-93703011D01*
X137117371Y-93450957D01*
X137084660Y-93402001D01*
X142433928Y-93402001D01*
X142433928Y-93656000D01*
X142446188Y-93780482D01*
X142482498Y-93900180D01*
X142541463Y-94010494D01*
X142620815Y-94107185D01*
X142717506Y-94186537D01*
X142827820Y-94245502D01*
X142947518Y-94281812D01*
X143072000Y-94294072D01*
X145472000Y-94294072D01*
X145596482Y-94281812D01*
X145716180Y-94245502D01*
X145826494Y-94186537D01*
X145923185Y-94107185D01*
X146002537Y-94010494D01*
X146061502Y-93900180D01*
X146097812Y-93780482D01*
X146110072Y-93656000D01*
X146110072Y-91256000D01*
X146097812Y-91131518D01*
X146061502Y-91011820D01*
X146002537Y-90901506D01*
X145923185Y-90804815D01*
X145826494Y-90725463D01*
X145773244Y-90697000D01*
X148415290Y-90697000D01*
X149841000Y-92122711D01*
X149841001Y-96030244D01*
X149748037Y-96106537D01*
X149600837Y-96285899D01*
X149445437Y-96100685D01*
X149202923Y-95906031D01*
X148927094Y-95762429D01*
X148708980Y-95691437D01*
X148463000Y-95811406D01*
X148463000Y-97155000D01*
X148483000Y-97155000D01*
X148483000Y-97409000D01*
X148463000Y-97409000D01*
X148463000Y-98752594D01*
X148708980Y-98872563D01*
X148927094Y-98801571D01*
X149202923Y-98657969D01*
X149445437Y-98463315D01*
X149600838Y-98278100D01*
X149748037Y-98457463D01*
X149989765Y-98655845D01*
X150265551Y-98803255D01*
X150564796Y-98894030D01*
X150876000Y-98924681D01*
X151187203Y-98894030D01*
X151486448Y-98803255D01*
X151762234Y-98655845D01*
X151888095Y-98552553D01*
X151932963Y-98636494D01*
X152012315Y-98733185D01*
X152109006Y-98812537D01*
X152219320Y-98871502D01*
X152339018Y-98907812D01*
X152463500Y-98920072D01*
X154233270Y-98920072D01*
X155138201Y-99825003D01*
X155161999Y-99854001D01*
X155190997Y-99877799D01*
X155277723Y-99948974D01*
X155409753Y-100019546D01*
X155553014Y-100063003D01*
X155664667Y-100074000D01*
X155664677Y-100074000D01*
X155702000Y-100077676D01*
X155739323Y-100074000D01*
X169126678Y-100074000D01*
X169164000Y-100077676D01*
X169201322Y-100074000D01*
X169201333Y-100074000D01*
X169312986Y-100063003D01*
X169456247Y-100019546D01*
X169588276Y-99948974D01*
X169704001Y-99854001D01*
X169727804Y-99824997D01*
X171380114Y-98172688D01*
X171562665Y-98209000D01*
X171845335Y-98209000D01*
X172122574Y-98153853D01*
X172296042Y-98082000D01*
X174837928Y-98082000D01*
X174850188Y-98206482D01*
X174886498Y-98326180D01*
X174945463Y-98436494D01*
X175024815Y-98533185D01*
X175121506Y-98612537D01*
X175231820Y-98671502D01*
X175351518Y-98707812D01*
X175476000Y-98720072D01*
X175990250Y-98717000D01*
X176149000Y-98558250D01*
X176149000Y-97409000D01*
X176403000Y-97409000D01*
X176403000Y-98558250D01*
X176561750Y-98717000D01*
X177076000Y-98720072D01*
X177200482Y-98707812D01*
X177320180Y-98671502D01*
X177430494Y-98612537D01*
X177527185Y-98533185D01*
X177606537Y-98436494D01*
X177665502Y-98326180D01*
X177701812Y-98206482D01*
X177704231Y-98181920D01*
X177852586Y-98345519D01*
X178078580Y-98513037D01*
X178332913Y-98633246D01*
X178466961Y-98673904D01*
X178689000Y-98551915D01*
X178689000Y-97409000D01*
X176403000Y-97409000D01*
X176149000Y-97409000D01*
X174999750Y-97409000D01*
X174841000Y-97567750D01*
X174837928Y-98082000D01*
X172296042Y-98082000D01*
X172383727Y-98045680D01*
X172618759Y-97888637D01*
X172818637Y-97688759D01*
X172975680Y-97453727D01*
X173083853Y-97192574D01*
X173139000Y-96915335D01*
X173139000Y-96632665D01*
X173109031Y-96482000D01*
X174837928Y-96482000D01*
X174841000Y-96996250D01*
X174999750Y-97155000D01*
X176149000Y-97155000D01*
X176149000Y-96005750D01*
X176403000Y-96005750D01*
X176403000Y-97155000D01*
X178689000Y-97155000D01*
X178689000Y-96012085D01*
X178943000Y-96012085D01*
X178943000Y-97155000D01*
X181229000Y-97155000D01*
X181229000Y-96012085D01*
X181483000Y-96012085D01*
X181483000Y-97155000D01*
X183769000Y-97155000D01*
X183769000Y-96012085D01*
X184023000Y-96012085D01*
X184023000Y-97155000D01*
X186309000Y-97155000D01*
X186309000Y-96012085D01*
X186086961Y-95890096D01*
X185952913Y-95930754D01*
X185698580Y-96050963D01*
X185472586Y-96218481D01*
X185283615Y-96426869D01*
X185166000Y-96622982D01*
X185048385Y-96426869D01*
X184859414Y-96218481D01*
X184633420Y-96050963D01*
X184379087Y-95930754D01*
X184245039Y-95890096D01*
X184023000Y-96012085D01*
X183769000Y-96012085D01*
X183546961Y-95890096D01*
X183412913Y-95930754D01*
X183158580Y-96050963D01*
X182932586Y-96218481D01*
X182743615Y-96426869D01*
X182626000Y-96622982D01*
X182508385Y-96426869D01*
X182319414Y-96218481D01*
X182093420Y-96050963D01*
X181839087Y-95930754D01*
X181705039Y-95890096D01*
X181483000Y-96012085D01*
X181229000Y-96012085D01*
X181006961Y-95890096D01*
X180872913Y-95930754D01*
X180618580Y-96050963D01*
X180392586Y-96218481D01*
X180203615Y-96426869D01*
X180086000Y-96622982D01*
X179968385Y-96426869D01*
X179779414Y-96218481D01*
X179553420Y-96050963D01*
X179299087Y-95930754D01*
X179165039Y-95890096D01*
X178943000Y-96012085D01*
X178689000Y-96012085D01*
X178466961Y-95890096D01*
X178332913Y-95930754D01*
X178078580Y-96050963D01*
X177852586Y-96218481D01*
X177704231Y-96382080D01*
X177701812Y-96357518D01*
X177665502Y-96237820D01*
X177606537Y-96127506D01*
X177527185Y-96030815D01*
X177430494Y-95951463D01*
X177320180Y-95892498D01*
X177200482Y-95856188D01*
X177076000Y-95843928D01*
X176561750Y-95847000D01*
X176403000Y-96005750D01*
X176149000Y-96005750D01*
X175990250Y-95847000D01*
X175476000Y-95843928D01*
X175351518Y-95856188D01*
X175231820Y-95892498D01*
X175121506Y-95951463D01*
X175024815Y-96030815D01*
X174945463Y-96127506D01*
X174886498Y-96237820D01*
X174850188Y-96357518D01*
X174837928Y-96482000D01*
X173109031Y-96482000D01*
X173083853Y-96355426D01*
X172975680Y-96094273D01*
X172818637Y-95859241D01*
X172618759Y-95659363D01*
X172383727Y-95502320D01*
X172122574Y-95394147D01*
X171845335Y-95339000D01*
X171562665Y-95339000D01*
X171285426Y-95394147D01*
X171024273Y-95502320D01*
X170789241Y-95659363D01*
X170589363Y-95859241D01*
X170432320Y-96094273D01*
X170324147Y-96355426D01*
X170269000Y-96632665D01*
X170269000Y-96915335D01*
X170305312Y-97097886D01*
X168849199Y-98554000D01*
X156016802Y-98554000D01*
X155006572Y-97543771D01*
X155006572Y-97123039D01*
X160152096Y-97123039D01*
X160192754Y-97257087D01*
X160312963Y-97511420D01*
X160480481Y-97737414D01*
X160688869Y-97926385D01*
X160930119Y-98071070D01*
X161194960Y-98165909D01*
X161417000Y-98044624D01*
X161417000Y-96901000D01*
X161671000Y-96901000D01*
X161671000Y-98044624D01*
X161893040Y-98165909D01*
X162157881Y-98071070D01*
X162399131Y-97926385D01*
X162607519Y-97737414D01*
X162775037Y-97511420D01*
X162895246Y-97257087D01*
X162935904Y-97123039D01*
X162813915Y-96901000D01*
X161671000Y-96901000D01*
X161417000Y-96901000D01*
X160274085Y-96901000D01*
X160152096Y-97123039D01*
X155006572Y-97123039D01*
X155006572Y-96424961D01*
X160152096Y-96424961D01*
X160274085Y-96647000D01*
X161417000Y-96647000D01*
X161417000Y-95503376D01*
X161671000Y-95503376D01*
X161671000Y-96647000D01*
X162813915Y-96647000D01*
X162935904Y-96424961D01*
X162895246Y-96290913D01*
X162775037Y-96036580D01*
X162607519Y-95810586D01*
X162399131Y-95621615D01*
X162157881Y-95476930D01*
X161893040Y-95382091D01*
X161671000Y-95503376D01*
X161417000Y-95503376D01*
X161194960Y-95382091D01*
X160930119Y-95476930D01*
X160688869Y-95621615D01*
X160480481Y-95810586D01*
X160312963Y-96036580D01*
X160192754Y-96290913D01*
X160152096Y-96424961D01*
X155006572Y-96424961D01*
X155006572Y-96282000D01*
X154994312Y-96157518D01*
X154958002Y-96037820D01*
X154899037Y-95927506D01*
X154819685Y-95830815D01*
X154722994Y-95751463D01*
X154612680Y-95692498D01*
X154492982Y-95656188D01*
X154368500Y-95643928D01*
X152463500Y-95643928D01*
X152339018Y-95656188D01*
X152219320Y-95692498D01*
X152109006Y-95751463D01*
X152012315Y-95830815D01*
X151932963Y-95927506D01*
X151911000Y-95968595D01*
X151911000Y-92275268D01*
X155137000Y-92275268D01*
X155137000Y-92636732D01*
X155207518Y-92991250D01*
X155345844Y-93325199D01*
X155546662Y-93625744D01*
X155802256Y-93881338D01*
X156102801Y-94082156D01*
X156436750Y-94220482D01*
X156791268Y-94291000D01*
X157152732Y-94291000D01*
X157507250Y-94220482D01*
X157841199Y-94082156D01*
X158141744Y-93881338D01*
X158397338Y-93625744D01*
X158598156Y-93325199D01*
X158736482Y-92991250D01*
X158770015Y-92822665D01*
X160109000Y-92822665D01*
X160109000Y-93105335D01*
X160164147Y-93382574D01*
X160272320Y-93643727D01*
X160429363Y-93878759D01*
X160629241Y-94078637D01*
X160864273Y-94235680D01*
X161125426Y-94343853D01*
X161402665Y-94399000D01*
X161685335Y-94399000D01*
X161962574Y-94343853D01*
X162223727Y-94235680D01*
X162458759Y-94078637D01*
X162658637Y-93878759D01*
X162815680Y-93643727D01*
X162923853Y-93382574D01*
X162979000Y-93105335D01*
X162979000Y-92822665D01*
X170269000Y-92822665D01*
X170269000Y-93105335D01*
X170324147Y-93382574D01*
X170432320Y-93643727D01*
X170589363Y-93878759D01*
X170789241Y-94078637D01*
X171024273Y-94235680D01*
X171285426Y-94343853D01*
X171562665Y-94399000D01*
X171845335Y-94399000D01*
X172122574Y-94343853D01*
X172383727Y-94235680D01*
X172618759Y-94078637D01*
X172818637Y-93878759D01*
X172975680Y-93643727D01*
X173083853Y-93382574D01*
X173139000Y-93105335D01*
X173139000Y-92822665D01*
X173083853Y-92545426D01*
X172975680Y-92284273D01*
X172818637Y-92049241D01*
X172618759Y-91849363D01*
X172383727Y-91692320D01*
X172122574Y-91584147D01*
X171845335Y-91529000D01*
X171562665Y-91529000D01*
X171285426Y-91584147D01*
X171024273Y-91692320D01*
X170789241Y-91849363D01*
X170589363Y-92049241D01*
X170432320Y-92284273D01*
X170324147Y-92545426D01*
X170269000Y-92822665D01*
X162979000Y-92822665D01*
X162923853Y-92545426D01*
X162815680Y-92284273D01*
X162658637Y-92049241D01*
X162458759Y-91849363D01*
X162223727Y-91692320D01*
X161962574Y-91584147D01*
X161685335Y-91529000D01*
X161402665Y-91529000D01*
X161125426Y-91584147D01*
X160864273Y-91692320D01*
X160629241Y-91849363D01*
X160429363Y-92049241D01*
X160272320Y-92284273D01*
X160164147Y-92545426D01*
X160109000Y-92822665D01*
X158770015Y-92822665D01*
X158807000Y-92636732D01*
X158807000Y-92275268D01*
X158736482Y-91920750D01*
X158598156Y-91586801D01*
X158397338Y-91286256D01*
X158141744Y-91030662D01*
X157841199Y-90829844D01*
X157507250Y-90691518D01*
X157152732Y-90621000D01*
X156791268Y-90621000D01*
X156436750Y-90691518D01*
X156102801Y-90829844D01*
X155802256Y-91030662D01*
X155546662Y-91286256D01*
X155345844Y-91586801D01*
X155207518Y-91920750D01*
X155137000Y-92275268D01*
X151911000Y-92275268D01*
X151911000Y-91744835D01*
X151916007Y-91694000D01*
X151911000Y-91643162D01*
X151896024Y-91491105D01*
X151836841Y-91296007D01*
X151768958Y-91169007D01*
X151740734Y-91116202D01*
X151643803Y-90998092D01*
X151611396Y-90958604D01*
X151571908Y-90926197D01*
X149611807Y-88966097D01*
X149579396Y-88926604D01*
X149421797Y-88797266D01*
X149241993Y-88701159D01*
X149046895Y-88641976D01*
X148894838Y-88627000D01*
X148894828Y-88627000D01*
X148844000Y-88621994D01*
X148793172Y-88627000D01*
X139242835Y-88627000D01*
X139192000Y-88621993D01*
X139141165Y-88627000D01*
X139141162Y-88627000D01*
X138989105Y-88641976D01*
X138794007Y-88701159D01*
X138710309Y-88745896D01*
X138614202Y-88797266D01*
X138496092Y-88894197D01*
X138456604Y-88926604D01*
X138424197Y-88966092D01*
X137211362Y-90178928D01*
X136410000Y-90178928D01*
X136285518Y-90191188D01*
X136165820Y-90227498D01*
X136100965Y-90262164D01*
X135243799Y-89405000D01*
X135219999Y-89375999D01*
X135175548Y-89339519D01*
X135104274Y-89281026D01*
X134972244Y-89210454D01*
X134828983Y-89166998D01*
X134679998Y-89152324D01*
X134679997Y-89152324D01*
X134531011Y-89166998D01*
X134387751Y-89210454D01*
X134326066Y-89243426D01*
X134255722Y-89281026D01*
X134139997Y-89375999D01*
X134116199Y-89404997D01*
X133000745Y-90520451D01*
X132973843Y-90493549D01*
X132857387Y-90610005D01*
X132791863Y-90371140D01*
X132544884Y-90255240D01*
X132280040Y-90189750D01*
X132007508Y-90177188D01*
X131737762Y-90218035D01*
X131481168Y-90310723D01*
X131368137Y-90371140D01*
X131302612Y-90610007D01*
X132080000Y-91387395D01*
X132094143Y-91373253D01*
X132273748Y-91552858D01*
X132259605Y-91567000D01*
X132273748Y-91581143D01*
X132094143Y-91760748D01*
X132080000Y-91746605D01*
X131302612Y-92523993D01*
X131368137Y-92762860D01*
X131615116Y-92878760D01*
X131879960Y-92944250D01*
X132152492Y-92956812D01*
X132422238Y-92915965D01*
X132590000Y-92855365D01*
X132590000Y-92949091D01*
X132467114Y-93031201D01*
X132274201Y-93224114D01*
X132122629Y-93450957D01*
X132080000Y-93553873D01*
X132037371Y-93450957D01*
X131885799Y-93224114D01*
X131692886Y-93031201D01*
X131466043Y-92879629D01*
X131213989Y-92775225D01*
X130946411Y-92722000D01*
X130673589Y-92722000D01*
X130406011Y-92775225D01*
X130153957Y-92879629D01*
X129927114Y-93031201D01*
X129734201Y-93224114D01*
X129582629Y-93450957D01*
X129540000Y-93553873D01*
X129497371Y-93450957D01*
X129345799Y-93224114D01*
X129152886Y-93031201D01*
X128926043Y-92879629D01*
X128673989Y-92775225D01*
X128406411Y-92722000D01*
X128133589Y-92722000D01*
X127866011Y-92775225D01*
X127613957Y-92879629D01*
X127387114Y-93031201D01*
X127194201Y-93224114D01*
X127042629Y-93450957D01*
X126938225Y-93703011D01*
X126885000Y-93970589D01*
X126885000Y-94243411D01*
X126938225Y-94510989D01*
X127042629Y-94763043D01*
X127194201Y-94989886D01*
X127385000Y-95180685D01*
X127385001Y-99568163D01*
X127289482Y-99539188D01*
X127165000Y-99526928D01*
X125565000Y-99526928D01*
X125440518Y-99539188D01*
X125320820Y-99575498D01*
X125210506Y-99634463D01*
X125113815Y-99713815D01*
X125034463Y-99810506D01*
X124975498Y-99920820D01*
X124939188Y-100040518D01*
X124926928Y-100165000D01*
X124926928Y-101765000D01*
X124939188Y-101889482D01*
X124975498Y-102009180D01*
X125034463Y-102119494D01*
X125113815Y-102216185D01*
X125210506Y-102295537D01*
X125320820Y-102354502D01*
X125440518Y-102390812D01*
X125448961Y-102391643D01*
X125250363Y-102590241D01*
X125093320Y-102825273D01*
X124985147Y-103086426D01*
X124930000Y-103363665D01*
X124930000Y-103646335D01*
X124985147Y-103923574D01*
X125093320Y-104184727D01*
X125250363Y-104419759D01*
X125450241Y-104619637D01*
X125682759Y-104775000D01*
X125450241Y-104930363D01*
X125250363Y-105130241D01*
X125093320Y-105365273D01*
X124985147Y-105626426D01*
X124930000Y-105903665D01*
X124930000Y-106186335D01*
X124985147Y-106463574D01*
X125093320Y-106724727D01*
X125250363Y-106959759D01*
X125450241Y-107159637D01*
X125682759Y-107315000D01*
X125450241Y-107470363D01*
X125250363Y-107670241D01*
X125093320Y-107905273D01*
X124985147Y-108166426D01*
X124930000Y-108443665D01*
X124930000Y-108726335D01*
X124985147Y-109003574D01*
X125093320Y-109264727D01*
X125250363Y-109499759D01*
X125450241Y-109699637D01*
X125682759Y-109855000D01*
X125450241Y-110010363D01*
X125250363Y-110210241D01*
X125093320Y-110445273D01*
X124985147Y-110706426D01*
X124930000Y-110983665D01*
X124930000Y-111266335D01*
X124985147Y-111543574D01*
X125093320Y-111804727D01*
X125250363Y-112039759D01*
X125450241Y-112239637D01*
X125682759Y-112395000D01*
X125450241Y-112550363D01*
X125250363Y-112750241D01*
X125093320Y-112985273D01*
X124985147Y-113246426D01*
X124930000Y-113523665D01*
X124930000Y-113806335D01*
X124985147Y-114083574D01*
X125093320Y-114344727D01*
X125250363Y-114579759D01*
X125450241Y-114779637D01*
X125682759Y-114935000D01*
X125450241Y-115090363D01*
X125250363Y-115290241D01*
X125093320Y-115525273D01*
X124985147Y-115786426D01*
X124930000Y-116063665D01*
X124930000Y-116346335D01*
X124985147Y-116623574D01*
X125093320Y-116884727D01*
X125250363Y-117119759D01*
X125450241Y-117319637D01*
X125682759Y-117475000D01*
X125450241Y-117630363D01*
X125250363Y-117830241D01*
X125093320Y-118065273D01*
X124985147Y-118326426D01*
X124930000Y-118603665D01*
X124930000Y-118886335D01*
X124985147Y-119163574D01*
X125093320Y-119424727D01*
X125250363Y-119659759D01*
X125450241Y-119859637D01*
X125685273Y-120016680D01*
X125946426Y-120124853D01*
X126223665Y-120180000D01*
X126506335Y-120180000D01*
X126688886Y-120143688D01*
X126926202Y-120381004D01*
X126950000Y-120410002D01*
X127065725Y-120504975D01*
X127099447Y-120523000D01*
X123952000Y-120523000D01*
X123952000Y-91430589D01*
X128155000Y-91430589D01*
X128155000Y-91703411D01*
X128208225Y-91970989D01*
X128312629Y-92223043D01*
X128464201Y-92449886D01*
X128657114Y-92642799D01*
X128883957Y-92794371D01*
X129136011Y-92898775D01*
X129403589Y-92952000D01*
X129676411Y-92952000D01*
X129943989Y-92898775D01*
X130196043Y-92794371D01*
X130422886Y-92642799D01*
X130615799Y-92449886D01*
X130767371Y-92223043D01*
X130808511Y-92123721D01*
X130823723Y-92165832D01*
X130884140Y-92278863D01*
X131123007Y-92344388D01*
X131900395Y-91567000D01*
X131123007Y-90789612D01*
X130884140Y-90855137D01*
X130809836Y-91013477D01*
X130767371Y-90910957D01*
X130615799Y-90684114D01*
X130422886Y-90491201D01*
X130196043Y-90339629D01*
X129943989Y-90235225D01*
X129676411Y-90182000D01*
X129403589Y-90182000D01*
X129136011Y-90235225D01*
X128883957Y-90339629D01*
X128657114Y-90491201D01*
X128464201Y-90684114D01*
X128312629Y-90910957D01*
X128208225Y-91163011D01*
X128155000Y-91430589D01*
X123952000Y-91430589D01*
X123952000Y-84996872D01*
X124765000Y-84996872D01*
X124765000Y-85437128D01*
X124850890Y-85868925D01*
X125019369Y-86275669D01*
X125263962Y-86641729D01*
X125575271Y-86953038D01*
X125941331Y-87197631D01*
X126348075Y-87366110D01*
X126779872Y-87452000D01*
X127220128Y-87452000D01*
X127651925Y-87366110D01*
X128058669Y-87197631D01*
X128424729Y-86953038D01*
X128736038Y-86641729D01*
X128980631Y-86275669D01*
X129149110Y-85868925D01*
X129235000Y-85437128D01*
X129235000Y-84996872D01*
X136195000Y-84996872D01*
X136195000Y-85437128D01*
X136280890Y-85868925D01*
X136449369Y-86275669D01*
X136693962Y-86641729D01*
X137005271Y-86953038D01*
X137371331Y-87197631D01*
X137778075Y-87366110D01*
X138209872Y-87452000D01*
X138650128Y-87452000D01*
X139081925Y-87366110D01*
X139488669Y-87197631D01*
X139854729Y-86953038D01*
X140166038Y-86641729D01*
X140410631Y-86275669D01*
X140579110Y-85868925D01*
X140665000Y-85437128D01*
X140665000Y-84996872D01*
X140579110Y-84565075D01*
X140410631Y-84158331D01*
X140322361Y-84026224D01*
X143042381Y-84026224D01*
X143174317Y-84321312D01*
X143515045Y-84492159D01*
X143882557Y-84593250D01*
X144262729Y-84620701D01*
X144640951Y-84573457D01*
X145002690Y-84453333D01*
X145249683Y-84321312D01*
X145381619Y-84026224D01*
X144212000Y-82856605D01*
X143042381Y-84026224D01*
X140322361Y-84026224D01*
X140166038Y-83792271D01*
X139854729Y-83480962D01*
X139488669Y-83236369D01*
X139081925Y-83067890D01*
X138650128Y-82982000D01*
X138209872Y-82982000D01*
X137778075Y-83067890D01*
X137371331Y-83236369D01*
X137005271Y-83480962D01*
X136693962Y-83792271D01*
X136449369Y-84158331D01*
X136280890Y-84565075D01*
X136195000Y-84996872D01*
X129235000Y-84996872D01*
X129149110Y-84565075D01*
X128980631Y-84158331D01*
X128736038Y-83792271D01*
X128424729Y-83480962D01*
X128058669Y-83236369D01*
X127651925Y-83067890D01*
X127220128Y-82982000D01*
X126779872Y-82982000D01*
X126348075Y-83067890D01*
X125941331Y-83236369D01*
X125575271Y-83480962D01*
X125263962Y-83792271D01*
X125019369Y-84158331D01*
X124850890Y-84565075D01*
X124765000Y-84996872D01*
X123952000Y-84996872D01*
X123952000Y-82727729D01*
X142268299Y-82727729D01*
X142315543Y-83105951D01*
X142435667Y-83467690D01*
X142567688Y-83714683D01*
X142862776Y-83846619D01*
X144032395Y-82677000D01*
X142862776Y-81507381D01*
X142567688Y-81639317D01*
X142396841Y-81980045D01*
X142295750Y-82347557D01*
X142268299Y-82727729D01*
X123952000Y-82727729D01*
X123952000Y-81327776D01*
X143042381Y-81327776D01*
X144212000Y-82497395D01*
X145381619Y-81327776D01*
X145249683Y-81032688D01*
X144908955Y-80861841D01*
X144541443Y-80760750D01*
X144161271Y-80733299D01*
X143783049Y-80780543D01*
X143421310Y-80900667D01*
X143174317Y-81032688D01*
X143042381Y-81327776D01*
X123952000Y-81327776D01*
X123952000Y-78867000D01*
X189103000Y-78867000D01*
X189103000Y-82364198D01*
G37*
%TD.AperFunction*%
D24*
X132122629Y-94763043D02*
X132274201Y-94989886D01*
X132467114Y-95182799D01*
X132693957Y-95334371D01*
X132946011Y-95438775D01*
X133213589Y-95492000D01*
X133486411Y-95492000D01*
X133735001Y-95442552D01*
X133735001Y-98326523D01*
X133730719Y-98370002D01*
X133747805Y-98543492D01*
X133798412Y-98710315D01*
X133880590Y-98864061D01*
X133963468Y-98965048D01*
X133963471Y-98965051D01*
X133989644Y-98996943D01*
X133978308Y-99000997D01*
X133853086Y-99067929D01*
X133781503Y-99311898D01*
X134594600Y-100124995D01*
X134608743Y-100110853D01*
X134788348Y-100290458D01*
X134774205Y-100304600D01*
X135587302Y-101117697D01*
X135831271Y-101046114D01*
X135899769Y-100901350D01*
X136929999Y-101931580D01*
X136930000Y-104751520D01*
X136925718Y-104794999D01*
X136942804Y-104968489D01*
X136993411Y-105135312D01*
X137075589Y-105289058D01*
X137158467Y-105390045D01*
X137158470Y-105390048D01*
X137186183Y-105423816D01*
X137219950Y-105451528D01*
X137636983Y-105868561D01*
X137630000Y-105903665D01*
X137630000Y-106186335D01*
X137685147Y-106463574D01*
X137793320Y-106724727D01*
X137950363Y-106959759D01*
X138150241Y-107159637D01*
X138382759Y-107315000D01*
X138150241Y-107470363D01*
X137950363Y-107670241D01*
X137793320Y-107905273D01*
X137685147Y-108166426D01*
X137630000Y-108443665D01*
X137630000Y-108726335D01*
X137685147Y-109003574D01*
X137793320Y-109264727D01*
X137950363Y-109499759D01*
X138150241Y-109699637D01*
X138382759Y-109855000D01*
X138150241Y-110010363D01*
X137950363Y-110210241D01*
X137793320Y-110445273D01*
X137756176Y-110534947D01*
X129155000Y-101933772D01*
X129155000Y-100188665D01*
X129425800Y-100188665D01*
X129425800Y-100471335D01*
X129480947Y-100748574D01*
X129589120Y-101009727D01*
X129746163Y-101244759D01*
X129946041Y-101444637D01*
X130181073Y-101601680D01*
X130442226Y-101709853D01*
X130719465Y-101765000D01*
X131002135Y-101765000D01*
X131279374Y-101709853D01*
X131540527Y-101601680D01*
X131775559Y-101444637D01*
X131922894Y-101297302D01*
X133781503Y-101297302D01*
X133853086Y-101541271D01*
X134108596Y-101662171D01*
X134382784Y-101730900D01*
X134665112Y-101744817D01*
X134944730Y-101703387D01*
X135210892Y-101608203D01*
X135336114Y-101541271D01*
X135407697Y-101297302D01*
X134594600Y-100484205D01*
X133781503Y-101297302D01*
X131922894Y-101297302D01*
X131975437Y-101244759D01*
X132132480Y-101009727D01*
X132240653Y-100748574D01*
X132295800Y-100471335D01*
X132295800Y-100375112D01*
X133154383Y-100375112D01*
X133195813Y-100654730D01*
X133290997Y-100920892D01*
X133357929Y-101046114D01*
X133601898Y-101117697D01*
X134414995Y-100304600D01*
X133601898Y-99491503D01*
X133357929Y-99563086D01*
X133237029Y-99818596D01*
X133168300Y-100092784D01*
X133154383Y-100375112D01*
X132295800Y-100375112D01*
X132295800Y-100188665D01*
X132240653Y-99911426D01*
X132132480Y-99650273D01*
X131975437Y-99415241D01*
X131775559Y-99215363D01*
X131540527Y-99058320D01*
X131279374Y-98950147D01*
X131002135Y-98895000D01*
X130719465Y-98895000D01*
X130442226Y-98950147D01*
X130181073Y-99058320D01*
X129946041Y-99215363D01*
X129746163Y-99415241D01*
X129589120Y-99650273D01*
X129480947Y-99911426D01*
X129425800Y-100188665D01*
X129155000Y-100188665D01*
X129155000Y-95180685D01*
X129345799Y-94989886D01*
X129497371Y-94763043D01*
X129540000Y-94660127D01*
X129582629Y-94763043D01*
X129734201Y-94989886D01*
X129927114Y-95182799D01*
X130153957Y-95334371D01*
X130406011Y-95438775D01*
X130673589Y-95492000D01*
X130946411Y-95492000D01*
X131213989Y-95438775D01*
X131466043Y-95334371D01*
X131692886Y-95182799D01*
X131885799Y-94989886D01*
X132037371Y-94763043D01*
X132080000Y-94660127D01*
X132122629Y-94763043D01*
%TA.AperFunction,Conductor*%
D25*
G36*
X132122629Y-94763043D02*
G01*
X132274201Y-94989886D01*
X132467114Y-95182799D01*
X132693957Y-95334371D01*
X132946011Y-95438775D01*
X133213589Y-95492000D01*
X133486411Y-95492000D01*
X133735001Y-95442552D01*
X133735001Y-98326523D01*
X133730719Y-98370002D01*
X133747805Y-98543492D01*
X133798412Y-98710315D01*
X133880590Y-98864061D01*
X133963468Y-98965048D01*
X133963471Y-98965051D01*
X133989644Y-98996943D01*
X133978308Y-99000997D01*
X133853086Y-99067929D01*
X133781503Y-99311898D01*
X134594600Y-100124995D01*
X134608743Y-100110853D01*
X134788348Y-100290458D01*
X134774205Y-100304600D01*
X135587302Y-101117697D01*
X135831271Y-101046114D01*
X135899769Y-100901350D01*
X136929999Y-101931580D01*
X136930000Y-104751520D01*
X136925718Y-104794999D01*
X136942804Y-104968489D01*
X136993411Y-105135312D01*
X137075589Y-105289058D01*
X137158467Y-105390045D01*
X137158470Y-105390048D01*
X137186183Y-105423816D01*
X137219950Y-105451528D01*
X137636983Y-105868561D01*
X137630000Y-105903665D01*
X137630000Y-106186335D01*
X137685147Y-106463574D01*
X137793320Y-106724727D01*
X137950363Y-106959759D01*
X138150241Y-107159637D01*
X138382759Y-107315000D01*
X138150241Y-107470363D01*
X137950363Y-107670241D01*
X137793320Y-107905273D01*
X137685147Y-108166426D01*
X137630000Y-108443665D01*
X137630000Y-108726335D01*
X137685147Y-109003574D01*
X137793320Y-109264727D01*
X137950363Y-109499759D01*
X138150241Y-109699637D01*
X138382759Y-109855000D01*
X138150241Y-110010363D01*
X137950363Y-110210241D01*
X137793320Y-110445273D01*
X137756176Y-110534947D01*
X129155000Y-101933772D01*
X129155000Y-100188665D01*
X129425800Y-100188665D01*
X129425800Y-100471335D01*
X129480947Y-100748574D01*
X129589120Y-101009727D01*
X129746163Y-101244759D01*
X129946041Y-101444637D01*
X130181073Y-101601680D01*
X130442226Y-101709853D01*
X130719465Y-101765000D01*
X131002135Y-101765000D01*
X131279374Y-101709853D01*
X131540527Y-101601680D01*
X131775559Y-101444637D01*
X131922894Y-101297302D01*
X133781503Y-101297302D01*
X133853086Y-101541271D01*
X134108596Y-101662171D01*
X134382784Y-101730900D01*
X134665112Y-101744817D01*
X134944730Y-101703387D01*
X135210892Y-101608203D01*
X135336114Y-101541271D01*
X135407697Y-101297302D01*
X134594600Y-100484205D01*
X133781503Y-101297302D01*
X131922894Y-101297302D01*
X131975437Y-101244759D01*
X132132480Y-101009727D01*
X132240653Y-100748574D01*
X132295800Y-100471335D01*
X132295800Y-100375112D01*
X133154383Y-100375112D01*
X133195813Y-100654730D01*
X133290997Y-100920892D01*
X133357929Y-101046114D01*
X133601898Y-101117697D01*
X134414995Y-100304600D01*
X133601898Y-99491503D01*
X133357929Y-99563086D01*
X133237029Y-99818596D01*
X133168300Y-100092784D01*
X133154383Y-100375112D01*
X132295800Y-100375112D01*
X132295800Y-100188665D01*
X132240653Y-99911426D01*
X132132480Y-99650273D01*
X131975437Y-99415241D01*
X131775559Y-99215363D01*
X131540527Y-99058320D01*
X131279374Y-98950147D01*
X131002135Y-98895000D01*
X130719465Y-98895000D01*
X130442226Y-98950147D01*
X130181073Y-99058320D01*
X129946041Y-99215363D01*
X129746163Y-99415241D01*
X129589120Y-99650273D01*
X129480947Y-99911426D01*
X129425800Y-100188665D01*
X129155000Y-100188665D01*
X129155000Y-95180685D01*
X129345799Y-94989886D01*
X129497371Y-94763043D01*
X129540000Y-94660127D01*
X129582629Y-94763043D01*
X129734201Y-94989886D01*
X129927114Y-95182799D01*
X130153957Y-95334371D01*
X130406011Y-95438775D01*
X130673589Y-95492000D01*
X130946411Y-95492000D01*
X131213989Y-95438775D01*
X131466043Y-95334371D01*
X131692886Y-95182799D01*
X131885799Y-94989886D01*
X132037371Y-94763043D01*
X132080000Y-94660127D01*
X132122629Y-94763043D01*
G37*
%TD.AperFunction*%
%TD*%
M02*
