%TF.GenerationSoftware,KiCad,Pcbnew,(5.1.9-0-10_14)*%
%TF.CreationDate,2021-03-28T23:18:51-04:00*%
%TF.ProjectId,shademaker,73686164-656d-4616-9b65-722e6b696361,rev?*%
%TF.SameCoordinates,Original*%
%TF.FileFunction,Legend,Top*%
%TF.FilePolarity,Positive*%
%FSLAX46Y46*%
G04 Gerber Fmt 4.6, Leading zero omitted, Abs format (unit mm)*
G04 Created by KiCad (PCBNEW (5.1.9-0-10_14)) date 2021-03-28 23:18:51*
%MOMM*%
%LPD*%
G01*
G04 APERTURE LIST*
%ADD10C,0.150000*%
%ADD11C,0.120000*%
G04 APERTURE END LIST*
D10*
X146629571Y-87473285D02*
X147093857Y-87473285D01*
X146843857Y-87759000D01*
X146951000Y-87759000D01*
X147022428Y-87794714D01*
X147058142Y-87830428D01*
X147093857Y-87901857D01*
X147093857Y-88080428D01*
X147058142Y-88151857D01*
X147022428Y-88187571D01*
X146951000Y-88223285D01*
X146736714Y-88223285D01*
X146665285Y-88187571D01*
X146629571Y-88151857D01*
X147415285Y-88151857D02*
X147451000Y-88187571D01*
X147415285Y-88223285D01*
X147379571Y-88187571D01*
X147415285Y-88151857D01*
X147415285Y-88223285D01*
X147701000Y-87473285D02*
X148165285Y-87473285D01*
X147915285Y-87759000D01*
X148022428Y-87759000D01*
X148093857Y-87794714D01*
X148129571Y-87830428D01*
X148165285Y-87901857D01*
X148165285Y-88080428D01*
X148129571Y-88151857D01*
X148093857Y-88187571D01*
X148022428Y-88223285D01*
X147808142Y-88223285D01*
X147736714Y-88187571D01*
X147701000Y-88151857D01*
X148415285Y-87723285D02*
X148593857Y-88223285D01*
X148772428Y-87723285D01*
X171622714Y-87473285D02*
X171622714Y-88080428D01*
X171658428Y-88151857D01*
X171694142Y-88187571D01*
X171765571Y-88223285D01*
X171908428Y-88223285D01*
X171979857Y-88187571D01*
X172015571Y-88151857D01*
X172051285Y-88080428D01*
X172051285Y-87473285D01*
X172408428Y-88223285D02*
X172408428Y-87473285D01*
X172694142Y-87473285D01*
X172765571Y-87509000D01*
X172801285Y-87544714D01*
X172837000Y-87616142D01*
X172837000Y-87723285D01*
X172801285Y-87794714D01*
X172765571Y-87830428D01*
X172694142Y-87866142D01*
X172408428Y-87866142D01*
X167245285Y-88223285D02*
X167245285Y-87473285D01*
X167423857Y-87473285D01*
X167531000Y-87509000D01*
X167602428Y-87580428D01*
X167638142Y-87651857D01*
X167673857Y-87794714D01*
X167673857Y-87901857D01*
X167638142Y-88044714D01*
X167602428Y-88116142D01*
X167531000Y-88187571D01*
X167423857Y-88223285D01*
X167245285Y-88223285D01*
X168138142Y-87473285D02*
X168281000Y-87473285D01*
X168352428Y-87509000D01*
X168423857Y-87580428D01*
X168459571Y-87723285D01*
X168459571Y-87973285D01*
X168423857Y-88116142D01*
X168352428Y-88187571D01*
X168281000Y-88223285D01*
X168138142Y-88223285D01*
X168066714Y-88187571D01*
X167995285Y-88116142D01*
X167959571Y-87973285D01*
X167959571Y-87723285D01*
X167995285Y-87580428D01*
X168066714Y-87509000D01*
X168138142Y-87473285D01*
X168709571Y-87473285D02*
X168888142Y-88223285D01*
X169031000Y-87687571D01*
X169173857Y-88223285D01*
X169352428Y-87473285D01*
X169638142Y-88223285D02*
X169638142Y-87473285D01*
X170066714Y-88223285D01*
X170066714Y-87473285D01*
X163850000Y-88009000D02*
X164207142Y-88009000D01*
X163778571Y-88223285D02*
X164028571Y-87473285D01*
X164278571Y-88223285D01*
X164528571Y-87473285D02*
X164528571Y-88080428D01*
X164564285Y-88151857D01*
X164600000Y-88187571D01*
X164671428Y-88223285D01*
X164814285Y-88223285D01*
X164885714Y-88187571D01*
X164921428Y-88151857D01*
X164957142Y-88080428D01*
X164957142Y-87473285D01*
X165207142Y-87473285D02*
X165635714Y-87473285D01*
X165421428Y-88223285D02*
X165421428Y-87473285D01*
X166028571Y-87473285D02*
X166171428Y-87473285D01*
X166242857Y-87509000D01*
X166314285Y-87580428D01*
X166350000Y-87723285D01*
X166350000Y-87973285D01*
X166314285Y-88116142D01*
X166242857Y-88187571D01*
X166171428Y-88223285D01*
X166028571Y-88223285D01*
X165957142Y-88187571D01*
X165885714Y-88116142D01*
X165850000Y-87973285D01*
X165850000Y-87723285D01*
X165885714Y-87580428D01*
X165957142Y-87509000D01*
X166028571Y-87473285D01*
X160633285Y-88187571D02*
X160740428Y-88223285D01*
X160919000Y-88223285D01*
X160990428Y-88187571D01*
X161026142Y-88151857D01*
X161061857Y-88080428D01*
X161061857Y-88009000D01*
X161026142Y-87937571D01*
X160990428Y-87901857D01*
X160919000Y-87866142D01*
X160776142Y-87830428D01*
X160704714Y-87794714D01*
X160669000Y-87759000D01*
X160633285Y-87687571D01*
X160633285Y-87616142D01*
X160669000Y-87544714D01*
X160704714Y-87509000D01*
X160776142Y-87473285D01*
X160954714Y-87473285D01*
X161061857Y-87509000D01*
X161383285Y-88223285D02*
X161383285Y-87473285D01*
X161561857Y-87473285D01*
X161669000Y-87509000D01*
X161740428Y-87580428D01*
X161776142Y-87651857D01*
X161811857Y-87794714D01*
X161811857Y-87901857D01*
X161776142Y-88044714D01*
X161740428Y-88116142D01*
X161669000Y-88187571D01*
X161561857Y-88223285D01*
X161383285Y-88223285D01*
X162097571Y-88009000D02*
X162454714Y-88009000D01*
X162026142Y-88223285D02*
X162276142Y-87473285D01*
X162526142Y-88223285D01*
X157095142Y-88187571D02*
X157202285Y-88223285D01*
X157380857Y-88223285D01*
X157452285Y-88187571D01*
X157488000Y-88151857D01*
X157523714Y-88080428D01*
X157523714Y-88009000D01*
X157488000Y-87937571D01*
X157452285Y-87901857D01*
X157380857Y-87866142D01*
X157238000Y-87830428D01*
X157166571Y-87794714D01*
X157130857Y-87759000D01*
X157095142Y-87687571D01*
X157095142Y-87616142D01*
X157130857Y-87544714D01*
X157166571Y-87509000D01*
X157238000Y-87473285D01*
X157416571Y-87473285D01*
X157523714Y-87509000D01*
X158273714Y-88151857D02*
X158238000Y-88187571D01*
X158130857Y-88223285D01*
X158059428Y-88223285D01*
X157952285Y-88187571D01*
X157880857Y-88116142D01*
X157845142Y-88044714D01*
X157809428Y-87901857D01*
X157809428Y-87794714D01*
X157845142Y-87651857D01*
X157880857Y-87580428D01*
X157952285Y-87509000D01*
X158059428Y-87473285D01*
X158130857Y-87473285D01*
X158238000Y-87509000D01*
X158273714Y-87544714D01*
X158952285Y-88223285D02*
X158595142Y-88223285D01*
X158595142Y-87473285D01*
X153828857Y-87417714D02*
X153864571Y-87382000D01*
X153936000Y-87346285D01*
X154114571Y-87346285D01*
X154186000Y-87382000D01*
X154221714Y-87417714D01*
X154257428Y-87489142D01*
X154257428Y-87560571D01*
X154221714Y-87667714D01*
X153793142Y-88096285D01*
X154257428Y-88096285D01*
X154900285Y-87596285D02*
X154900285Y-88096285D01*
X154721714Y-87310571D02*
X154543142Y-87846285D01*
X155007428Y-87846285D01*
X155221714Y-87596285D02*
X155400285Y-88096285D01*
X155578857Y-87596285D01*
X151276857Y-87473285D02*
X150919714Y-87473285D01*
X150884000Y-87830428D01*
X150919714Y-87794714D01*
X150991142Y-87759000D01*
X151169714Y-87759000D01*
X151241142Y-87794714D01*
X151276857Y-87830428D01*
X151312571Y-87901857D01*
X151312571Y-88080428D01*
X151276857Y-88151857D01*
X151241142Y-88187571D01*
X151169714Y-88223285D01*
X150991142Y-88223285D01*
X150919714Y-88187571D01*
X150884000Y-88151857D01*
X151562571Y-87723285D02*
X151741142Y-88223285D01*
X151919714Y-87723285D01*
X143700571Y-87509000D02*
X143629142Y-87473285D01*
X143522000Y-87473285D01*
X143414857Y-87509000D01*
X143343428Y-87580428D01*
X143307714Y-87651857D01*
X143272000Y-87794714D01*
X143272000Y-87901857D01*
X143307714Y-88044714D01*
X143343428Y-88116142D01*
X143414857Y-88187571D01*
X143522000Y-88223285D01*
X143593428Y-88223285D01*
X143700571Y-88187571D01*
X143736285Y-88151857D01*
X143736285Y-87901857D01*
X143593428Y-87901857D01*
X144057714Y-88223285D02*
X144057714Y-87473285D01*
X144486285Y-88223285D01*
X144486285Y-87473285D01*
X144843428Y-88223285D02*
X144843428Y-87473285D01*
X145022000Y-87473285D01*
X145129142Y-87509000D01*
X145200571Y-87580428D01*
X145236285Y-87651857D01*
X145272000Y-87794714D01*
X145272000Y-87901857D01*
X145236285Y-88044714D01*
X145200571Y-88116142D01*
X145129142Y-88187571D01*
X145022000Y-88223285D01*
X144843428Y-88223285D01*
X157655714Y-100229142D02*
X157655714Y-99329142D01*
X158041428Y-100229142D02*
X158041428Y-99757714D01*
X157998571Y-99672000D01*
X157912857Y-99629142D01*
X157784285Y-99629142D01*
X157698571Y-99672000D01*
X157655714Y-99714857D01*
X158341428Y-99629142D02*
X158684285Y-99629142D01*
X158470000Y-99329142D02*
X158470000Y-100100571D01*
X158512857Y-100186285D01*
X158598571Y-100229142D01*
X158684285Y-100229142D01*
X158855714Y-99629142D02*
X159198571Y-99629142D01*
X158984285Y-99329142D02*
X158984285Y-100100571D01*
X159027142Y-100186285D01*
X159112857Y-100229142D01*
X159198571Y-100229142D01*
X159498571Y-99629142D02*
X159498571Y-100529142D01*
X159498571Y-99672000D02*
X159584285Y-99629142D01*
X159755714Y-99629142D01*
X159841428Y-99672000D01*
X159884285Y-99714857D01*
X159927142Y-99800571D01*
X159927142Y-100057714D01*
X159884285Y-100143428D01*
X159841428Y-100186285D01*
X159755714Y-100229142D01*
X159584285Y-100229142D01*
X159498571Y-100186285D01*
X160270000Y-100186285D02*
X160355714Y-100229142D01*
X160527142Y-100229142D01*
X160612857Y-100186285D01*
X160655714Y-100100571D01*
X160655714Y-100057714D01*
X160612857Y-99972000D01*
X160527142Y-99929142D01*
X160398571Y-99929142D01*
X160312857Y-99886285D01*
X160270000Y-99800571D01*
X160270000Y-99757714D01*
X160312857Y-99672000D01*
X160398571Y-99629142D01*
X160527142Y-99629142D01*
X160612857Y-99672000D01*
X161041428Y-100143428D02*
X161084285Y-100186285D01*
X161041428Y-100229142D01*
X160998571Y-100186285D01*
X161041428Y-100143428D01*
X161041428Y-100229142D01*
X161041428Y-99672000D02*
X161084285Y-99714857D01*
X161041428Y-99757714D01*
X160998571Y-99714857D01*
X161041428Y-99672000D01*
X161041428Y-99757714D01*
X162112857Y-99286285D02*
X161341428Y-100443428D01*
X163055714Y-99286285D02*
X162284285Y-100443428D01*
X163741428Y-99629142D02*
X163741428Y-100357714D01*
X163698571Y-100443428D01*
X163655714Y-100486285D01*
X163570000Y-100529142D01*
X163441428Y-100529142D01*
X163355714Y-100486285D01*
X163741428Y-100186285D02*
X163655714Y-100229142D01*
X163484285Y-100229142D01*
X163398571Y-100186285D01*
X163355714Y-100143428D01*
X163312857Y-100057714D01*
X163312857Y-99800571D01*
X163355714Y-99714857D01*
X163398571Y-99672000D01*
X163484285Y-99629142D01*
X163655714Y-99629142D01*
X163741428Y-99672000D01*
X164170000Y-100229142D02*
X164170000Y-99629142D01*
X164170000Y-99329142D02*
X164127142Y-99372000D01*
X164170000Y-99414857D01*
X164212857Y-99372000D01*
X164170000Y-99329142D01*
X164170000Y-99414857D01*
X164470000Y-99629142D02*
X164812857Y-99629142D01*
X164598571Y-99329142D02*
X164598571Y-100100571D01*
X164641428Y-100186285D01*
X164727142Y-100229142D01*
X164812857Y-100229142D01*
X165112857Y-100229142D02*
X165112857Y-99329142D01*
X165498571Y-100229142D02*
X165498571Y-99757714D01*
X165455714Y-99672000D01*
X165370000Y-99629142D01*
X165241428Y-99629142D01*
X165155714Y-99672000D01*
X165112857Y-99714857D01*
X166312857Y-99629142D02*
X166312857Y-100229142D01*
X165927142Y-99629142D02*
X165927142Y-100100571D01*
X165970000Y-100186285D01*
X166055714Y-100229142D01*
X166184285Y-100229142D01*
X166270000Y-100186285D01*
X166312857Y-100143428D01*
X166741428Y-100229142D02*
X166741428Y-99329142D01*
X166741428Y-99672000D02*
X166827142Y-99629142D01*
X166998571Y-99629142D01*
X167084285Y-99672000D01*
X167127142Y-99714857D01*
X167170000Y-99800571D01*
X167170000Y-100057714D01*
X167127142Y-100143428D01*
X167084285Y-100186285D01*
X166998571Y-100229142D01*
X166827142Y-100229142D01*
X166741428Y-100186285D01*
X167555714Y-100143428D02*
X167598571Y-100186285D01*
X167555714Y-100229142D01*
X167512857Y-100186285D01*
X167555714Y-100143428D01*
X167555714Y-100229142D01*
X168370000Y-100186285D02*
X168284285Y-100229142D01*
X168112857Y-100229142D01*
X168027142Y-100186285D01*
X167984285Y-100143428D01*
X167941428Y-100057714D01*
X167941428Y-99800571D01*
X167984285Y-99714857D01*
X168027142Y-99672000D01*
X168112857Y-99629142D01*
X168284285Y-99629142D01*
X168370000Y-99672000D01*
X168884285Y-100229142D02*
X168798571Y-100186285D01*
X168755714Y-100143428D01*
X168712857Y-100057714D01*
X168712857Y-99800571D01*
X168755714Y-99714857D01*
X168798571Y-99672000D01*
X168884285Y-99629142D01*
X169012857Y-99629142D01*
X169098571Y-99672000D01*
X169141428Y-99714857D01*
X169184285Y-99800571D01*
X169184285Y-100057714D01*
X169141428Y-100143428D01*
X169098571Y-100186285D01*
X169012857Y-100229142D01*
X168884285Y-100229142D01*
X169570000Y-100229142D02*
X169570000Y-99629142D01*
X169570000Y-99714857D02*
X169612857Y-99672000D01*
X169698571Y-99629142D01*
X169827142Y-99629142D01*
X169912857Y-99672000D01*
X169955714Y-99757714D01*
X169955714Y-100229142D01*
X169955714Y-99757714D02*
X169998571Y-99672000D01*
X170084285Y-99629142D01*
X170212857Y-99629142D01*
X170298571Y-99672000D01*
X170341428Y-99757714D01*
X170341428Y-100229142D01*
X171412857Y-99286285D02*
X170641428Y-100443428D01*
X171712857Y-99629142D02*
X171712857Y-100400571D01*
X171670000Y-100486285D01*
X171584285Y-100529142D01*
X171541428Y-100529142D01*
X171712857Y-99329142D02*
X171670000Y-99372000D01*
X171712857Y-99414857D01*
X171755714Y-99372000D01*
X171712857Y-99329142D01*
X171712857Y-99414857D01*
X172527142Y-100229142D02*
X172527142Y-99757714D01*
X172484285Y-99672000D01*
X172398571Y-99629142D01*
X172227142Y-99629142D01*
X172141428Y-99672000D01*
X172527142Y-100186285D02*
X172441428Y-100229142D01*
X172227142Y-100229142D01*
X172141428Y-100186285D01*
X172098571Y-100100571D01*
X172098571Y-100014857D01*
X172141428Y-99929142D01*
X172227142Y-99886285D01*
X172441428Y-99886285D01*
X172527142Y-99843428D01*
X172955714Y-100229142D02*
X172955714Y-99629142D01*
X172955714Y-99714857D02*
X172998571Y-99672000D01*
X173084285Y-99629142D01*
X173212857Y-99629142D01*
X173298571Y-99672000D01*
X173341428Y-99757714D01*
X173341428Y-100229142D01*
X173341428Y-99757714D02*
X173384285Y-99672000D01*
X173470000Y-99629142D01*
X173598571Y-99629142D01*
X173684285Y-99672000D01*
X173727142Y-99757714D01*
X173727142Y-100229142D01*
X174155714Y-100229142D02*
X174155714Y-99629142D01*
X174155714Y-99329142D02*
X174112857Y-99372000D01*
X174155714Y-99414857D01*
X174198571Y-99372000D01*
X174155714Y-99329142D01*
X174155714Y-99414857D01*
X174927142Y-100186285D02*
X174841428Y-100229142D01*
X174670000Y-100229142D01*
X174584285Y-100186285D01*
X174541428Y-100100571D01*
X174541428Y-99757714D01*
X174584285Y-99672000D01*
X174670000Y-99629142D01*
X174841428Y-99629142D01*
X174927142Y-99672000D01*
X174970000Y-99757714D01*
X174970000Y-99843428D01*
X174541428Y-99929142D01*
X175355714Y-100229142D02*
X175355714Y-99329142D01*
X175355714Y-99672000D02*
X175441428Y-99629142D01*
X175612857Y-99629142D01*
X175698571Y-99672000D01*
X175741428Y-99714857D01*
X175784285Y-99800571D01*
X175784285Y-100057714D01*
X175741428Y-100143428D01*
X175698571Y-100186285D01*
X175612857Y-100229142D01*
X175441428Y-100229142D01*
X175355714Y-100186285D01*
X176170000Y-100229142D02*
X176170000Y-99629142D01*
X176170000Y-99329142D02*
X176127142Y-99372000D01*
X176170000Y-99414857D01*
X176212857Y-99372000D01*
X176170000Y-99329142D01*
X176170000Y-99414857D01*
X176598571Y-100229142D02*
X176598571Y-99329142D01*
X176684285Y-99886285D02*
X176941428Y-100229142D01*
X176941428Y-99629142D02*
X176598571Y-99972000D01*
X177327142Y-100229142D02*
X177327142Y-99629142D01*
X177327142Y-99329142D02*
X177284285Y-99372000D01*
X177327142Y-99414857D01*
X177370000Y-99372000D01*
X177327142Y-99329142D01*
X177327142Y-99414857D01*
X178098571Y-100186285D02*
X178012857Y-100229142D01*
X177841428Y-100229142D01*
X177755714Y-100186285D01*
X177712857Y-100100571D01*
X177712857Y-99757714D01*
X177755714Y-99672000D01*
X177841428Y-99629142D01*
X178012857Y-99629142D01*
X178098571Y-99672000D01*
X178141428Y-99757714D01*
X178141428Y-99843428D01*
X177712857Y-99929142D01*
X178484285Y-100186285D02*
X178570000Y-100229142D01*
X178741428Y-100229142D01*
X178827142Y-100186285D01*
X178870000Y-100100571D01*
X178870000Y-100057714D01*
X178827142Y-99972000D01*
X178741428Y-99929142D01*
X178612857Y-99929142D01*
X178527142Y-99886285D01*
X178484285Y-99800571D01*
X178484285Y-99757714D01*
X178527142Y-99672000D01*
X178612857Y-99629142D01*
X178741428Y-99629142D01*
X178827142Y-99672000D01*
X179898571Y-99286285D02*
X179127142Y-100443428D01*
X180155714Y-100186285D02*
X180241428Y-100229142D01*
X180412857Y-100229142D01*
X180498571Y-100186285D01*
X180541428Y-100100571D01*
X180541428Y-100057714D01*
X180498571Y-99972000D01*
X180412857Y-99929142D01*
X180284285Y-99929142D01*
X180198571Y-99886285D01*
X180155714Y-99800571D01*
X180155714Y-99757714D01*
X180198571Y-99672000D01*
X180284285Y-99629142D01*
X180412857Y-99629142D01*
X180498571Y-99672000D01*
X180927142Y-100229142D02*
X180927142Y-99329142D01*
X181312857Y-100229142D02*
X181312857Y-99757714D01*
X181270000Y-99672000D01*
X181184285Y-99629142D01*
X181055714Y-99629142D01*
X180970000Y-99672000D01*
X180927142Y-99714857D01*
X182127142Y-100229142D02*
X182127142Y-99757714D01*
X182084285Y-99672000D01*
X181998571Y-99629142D01*
X181827142Y-99629142D01*
X181741428Y-99672000D01*
X182127142Y-100186285D02*
X182041428Y-100229142D01*
X181827142Y-100229142D01*
X181741428Y-100186285D01*
X181698571Y-100100571D01*
X181698571Y-100014857D01*
X181741428Y-99929142D01*
X181827142Y-99886285D01*
X182041428Y-99886285D01*
X182127142Y-99843428D01*
X182941428Y-100229142D02*
X182941428Y-99329142D01*
X182941428Y-100186285D02*
X182855714Y-100229142D01*
X182684285Y-100229142D01*
X182598571Y-100186285D01*
X182555714Y-100143428D01*
X182512857Y-100057714D01*
X182512857Y-99800571D01*
X182555714Y-99714857D01*
X182598571Y-99672000D01*
X182684285Y-99629142D01*
X182855714Y-99629142D01*
X182941428Y-99672000D01*
X183712857Y-100186285D02*
X183627142Y-100229142D01*
X183455714Y-100229142D01*
X183370000Y-100186285D01*
X183327142Y-100100571D01*
X183327142Y-99757714D01*
X183370000Y-99672000D01*
X183455714Y-99629142D01*
X183627142Y-99629142D01*
X183712857Y-99672000D01*
X183755714Y-99757714D01*
X183755714Y-99843428D01*
X183327142Y-99929142D01*
X184141428Y-100229142D02*
X184141428Y-99629142D01*
X184141428Y-99714857D02*
X184184285Y-99672000D01*
X184270000Y-99629142D01*
X184398571Y-99629142D01*
X184484285Y-99672000D01*
X184527142Y-99757714D01*
X184527142Y-100229142D01*
X184527142Y-99757714D02*
X184570000Y-99672000D01*
X184655714Y-99629142D01*
X184784285Y-99629142D01*
X184870000Y-99672000D01*
X184912857Y-99757714D01*
X184912857Y-100229142D01*
X185727142Y-100229142D02*
X185727142Y-99757714D01*
X185684285Y-99672000D01*
X185598571Y-99629142D01*
X185427142Y-99629142D01*
X185341428Y-99672000D01*
X185727142Y-100186285D02*
X185641428Y-100229142D01*
X185427142Y-100229142D01*
X185341428Y-100186285D01*
X185298571Y-100100571D01*
X185298571Y-100014857D01*
X185341428Y-99929142D01*
X185427142Y-99886285D01*
X185641428Y-99886285D01*
X185727142Y-99843428D01*
X186155714Y-100229142D02*
X186155714Y-99329142D01*
X186241428Y-99886285D02*
X186498571Y-100229142D01*
X186498571Y-99629142D02*
X186155714Y-99972000D01*
X187227142Y-100186285D02*
X187141428Y-100229142D01*
X186970000Y-100229142D01*
X186884285Y-100186285D01*
X186841428Y-100100571D01*
X186841428Y-99757714D01*
X186884285Y-99672000D01*
X186970000Y-99629142D01*
X187141428Y-99629142D01*
X187227142Y-99672000D01*
X187270000Y-99757714D01*
X187270000Y-99843428D01*
X186841428Y-99929142D01*
X187655714Y-100229142D02*
X187655714Y-99629142D01*
X187655714Y-99800571D02*
X187698571Y-99714857D01*
X187741428Y-99672000D01*
X187827142Y-99629142D01*
X187912857Y-99629142D01*
X143456000Y-89860380D02*
X143456000Y-88860380D01*
X143694095Y-88860380D01*
X143836952Y-88908000D01*
X143932190Y-89003238D01*
X143979809Y-89098476D01*
X144027428Y-89288952D01*
X144027428Y-89431809D01*
X143979809Y-89622285D01*
X143932190Y-89717523D01*
X143836952Y-89812761D01*
X143694095Y-89860380D01*
X143456000Y-89860380D01*
X144456000Y-89336571D02*
X144789333Y-89336571D01*
X144932190Y-89860380D02*
X144456000Y-89860380D01*
X144456000Y-88860380D01*
X144932190Y-88860380D01*
X145313142Y-89812761D02*
X145456000Y-89860380D01*
X145694095Y-89860380D01*
X145789333Y-89812761D01*
X145836952Y-89765142D01*
X145884571Y-89669904D01*
X145884571Y-89574666D01*
X145836952Y-89479428D01*
X145789333Y-89431809D01*
X145694095Y-89384190D01*
X145503619Y-89336571D01*
X145408380Y-89288952D01*
X145360761Y-89241333D01*
X145313142Y-89146095D01*
X145313142Y-89050857D01*
X145360761Y-88955619D01*
X145408380Y-88908000D01*
X145503619Y-88860380D01*
X145741714Y-88860380D01*
X145884571Y-88908000D01*
X146313142Y-89860380D02*
X146313142Y-88860380D01*
X147313142Y-88908000D02*
X147217904Y-88860380D01*
X147075047Y-88860380D01*
X146932190Y-88908000D01*
X146836952Y-89003238D01*
X146789333Y-89098476D01*
X146741714Y-89288952D01*
X146741714Y-89431809D01*
X146789333Y-89622285D01*
X146836952Y-89717523D01*
X146932190Y-89812761D01*
X147075047Y-89860380D01*
X147170285Y-89860380D01*
X147313142Y-89812761D01*
X147360761Y-89765142D01*
X147360761Y-89431809D01*
X147170285Y-89431809D01*
X147789333Y-89860380D02*
X147789333Y-88860380D01*
X148360761Y-89860380D01*
X148360761Y-88860380D01*
X149932190Y-89336571D02*
X150075047Y-89384190D01*
X150122666Y-89431809D01*
X150170285Y-89527047D01*
X150170285Y-89669904D01*
X150122666Y-89765142D01*
X150075047Y-89812761D01*
X149979809Y-89860380D01*
X149598857Y-89860380D01*
X149598857Y-88860380D01*
X149932190Y-88860380D01*
X150027428Y-88908000D01*
X150075047Y-88955619D01*
X150122666Y-89050857D01*
X150122666Y-89146095D01*
X150075047Y-89241333D01*
X150027428Y-89288952D01*
X149932190Y-89336571D01*
X149598857Y-89336571D01*
X150789333Y-89384190D02*
X150789333Y-89860380D01*
X150456000Y-88860380D02*
X150789333Y-89384190D01*
X151122666Y-88860380D01*
X152503619Y-88860380D02*
X152503619Y-89574666D01*
X152456000Y-89717523D01*
X152360761Y-89812761D01*
X152217904Y-89860380D01*
X152122666Y-89860380D01*
X152932190Y-89574666D02*
X153408380Y-89574666D01*
X152836952Y-89860380D02*
X153170285Y-88860380D01*
X153503619Y-89860380D01*
X153836952Y-89860380D02*
X153836952Y-88860380D01*
X154170285Y-89574666D01*
X154503619Y-88860380D01*
X154503619Y-89860380D01*
X154979809Y-89860380D02*
X154979809Y-88860380D01*
X155456000Y-89336571D02*
X155789333Y-89336571D01*
X155932190Y-89860380D02*
X155456000Y-89860380D01*
X155456000Y-88860380D01*
X155932190Y-88860380D01*
X157646476Y-88908000D02*
X157551238Y-88860380D01*
X157408380Y-88860380D01*
X157265523Y-88908000D01*
X157170285Y-89003238D01*
X157122666Y-89098476D01*
X157075047Y-89288952D01*
X157075047Y-89431809D01*
X157122666Y-89622285D01*
X157170285Y-89717523D01*
X157265523Y-89812761D01*
X157408380Y-89860380D01*
X157503619Y-89860380D01*
X157646476Y-89812761D01*
X157694095Y-89765142D01*
X157694095Y-89431809D01*
X157503619Y-89431809D01*
X158122666Y-89860380D02*
X158122666Y-88860380D01*
X159075047Y-89860380D02*
X158598857Y-89860380D01*
X158598857Y-88860380D01*
X159932190Y-88908000D02*
X159836952Y-88860380D01*
X159694095Y-88860380D01*
X159551238Y-88908000D01*
X159456000Y-89003238D01*
X159408380Y-89098476D01*
X159360761Y-89288952D01*
X159360761Y-89431809D01*
X159408380Y-89622285D01*
X159456000Y-89717523D01*
X159551238Y-89812761D01*
X159694095Y-89860380D01*
X159789333Y-89860380D01*
X159932190Y-89812761D01*
X159979809Y-89765142D01*
X159979809Y-89431809D01*
X159789333Y-89431809D01*
X160408380Y-89336571D02*
X160741714Y-89336571D01*
X160884571Y-89860380D02*
X160408380Y-89860380D01*
X160408380Y-88860380D01*
X160884571Y-88860380D01*
X161313142Y-89860380D02*
X161313142Y-88860380D01*
X161884571Y-89860380D01*
X161884571Y-88860380D01*
X163122666Y-89479428D02*
X163884571Y-89479428D01*
X165075047Y-88955619D02*
X165122666Y-88908000D01*
X165217904Y-88860380D01*
X165456000Y-88860380D01*
X165551238Y-88908000D01*
X165598857Y-88955619D01*
X165646476Y-89050857D01*
X165646476Y-89146095D01*
X165598857Y-89288952D01*
X165027428Y-89860380D01*
X165646476Y-89860380D01*
X166265523Y-88860380D02*
X166360761Y-88860380D01*
X166456000Y-88908000D01*
X166503619Y-88955619D01*
X166551238Y-89050857D01*
X166598857Y-89241333D01*
X166598857Y-89479428D01*
X166551238Y-89669904D01*
X166503619Y-89765142D01*
X166456000Y-89812761D01*
X166360761Y-89860380D01*
X166265523Y-89860380D01*
X166170285Y-89812761D01*
X166122666Y-89765142D01*
X166075047Y-89669904D01*
X166027428Y-89479428D01*
X166027428Y-89241333D01*
X166075047Y-89050857D01*
X166122666Y-88955619D01*
X166170285Y-88908000D01*
X166265523Y-88860380D01*
X166979809Y-88955619D02*
X167027428Y-88908000D01*
X167122666Y-88860380D01*
X167360761Y-88860380D01*
X167456000Y-88908000D01*
X167503619Y-88955619D01*
X167551238Y-89050857D01*
X167551238Y-89146095D01*
X167503619Y-89288952D01*
X166932190Y-89860380D01*
X167551238Y-89860380D01*
X168503619Y-89860380D02*
X167932190Y-89860380D01*
X168217904Y-89860380D02*
X168217904Y-88860380D01*
X168122666Y-89003238D01*
X168027428Y-89098476D01*
X167932190Y-89146095D01*
D11*
%TO.C,SW1*%
X174166000Y-96882000D02*
X174166000Y-90061000D01*
X188547000Y-96882000D02*
X188547000Y-90061000D01*
X174166000Y-96882000D02*
X175236000Y-96882000D01*
X177316000Y-96882000D02*
X177827000Y-96882000D01*
X179806000Y-96882000D02*
X180367000Y-96882000D01*
X182346000Y-96882000D02*
X182907000Y-96882000D01*
X184886000Y-96882000D02*
X185446000Y-96882000D01*
X187426000Y-96882000D02*
X188547000Y-96882000D01*
X187426000Y-90061000D02*
X188547000Y-90061000D01*
X184886000Y-90061000D02*
X185446000Y-90061000D01*
X182346000Y-90061000D02*
X182907000Y-90061000D01*
X179806000Y-90061000D02*
X180367000Y-90061000D01*
X174166000Y-90061000D02*
X175286000Y-90061000D01*
X177266000Y-90061000D02*
X177827000Y-90061000D01*
X173926000Y-97122000D02*
X173926000Y-95739000D01*
X173926000Y-97122000D02*
X175236000Y-97122000D01*
X175641000Y-95282000D02*
X176911000Y-95282000D01*
X176911000Y-95282000D02*
X176911000Y-91662000D01*
X176911000Y-91662000D02*
X175641000Y-91662000D01*
X175641000Y-91662000D02*
X175641000Y-95282000D01*
X175761000Y-95282000D02*
X175761000Y-94075333D01*
X175881000Y-95282000D02*
X175881000Y-94075333D01*
X176001000Y-95282000D02*
X176001000Y-94075333D01*
X176121000Y-95282000D02*
X176121000Y-94075333D01*
X176241000Y-95282000D02*
X176241000Y-94075333D01*
X176361000Y-95282000D02*
X176361000Y-94075333D01*
X176481000Y-95282000D02*
X176481000Y-94075333D01*
X176601000Y-95282000D02*
X176601000Y-94075333D01*
X176721000Y-95282000D02*
X176721000Y-94075333D01*
X176841000Y-95282000D02*
X176841000Y-94075333D01*
X175641000Y-94075333D02*
X176911000Y-94075333D01*
X178181000Y-95282000D02*
X179451000Y-95282000D01*
X179451000Y-95282000D02*
X179451000Y-91662000D01*
X179451000Y-91662000D02*
X178181000Y-91662000D01*
X178181000Y-91662000D02*
X178181000Y-95282000D01*
X178301000Y-95282000D02*
X178301000Y-94075333D01*
X178421000Y-95282000D02*
X178421000Y-94075333D01*
X178541000Y-95282000D02*
X178541000Y-94075333D01*
X178661000Y-95282000D02*
X178661000Y-94075333D01*
X178781000Y-95282000D02*
X178781000Y-94075333D01*
X178901000Y-95282000D02*
X178901000Y-94075333D01*
X179021000Y-95282000D02*
X179021000Y-94075333D01*
X179141000Y-95282000D02*
X179141000Y-94075333D01*
X179261000Y-95282000D02*
X179261000Y-94075333D01*
X179381000Y-95282000D02*
X179381000Y-94075333D01*
X178181000Y-94075333D02*
X179451000Y-94075333D01*
X180721000Y-95282000D02*
X181991000Y-95282000D01*
X181991000Y-95282000D02*
X181991000Y-91662000D01*
X181991000Y-91662000D02*
X180721000Y-91662000D01*
X180721000Y-91662000D02*
X180721000Y-95282000D01*
X180841000Y-95282000D02*
X180841000Y-94075333D01*
X180961000Y-95282000D02*
X180961000Y-94075333D01*
X181081000Y-95282000D02*
X181081000Y-94075333D01*
X181201000Y-95282000D02*
X181201000Y-94075333D01*
X181321000Y-95282000D02*
X181321000Y-94075333D01*
X181441000Y-95282000D02*
X181441000Y-94075333D01*
X181561000Y-95282000D02*
X181561000Y-94075333D01*
X181681000Y-95282000D02*
X181681000Y-94075333D01*
X181801000Y-95282000D02*
X181801000Y-94075333D01*
X181921000Y-95282000D02*
X181921000Y-94075333D01*
X180721000Y-94075333D02*
X181991000Y-94075333D01*
X183261000Y-95282000D02*
X184531000Y-95282000D01*
X184531000Y-95282000D02*
X184531000Y-91662000D01*
X184531000Y-91662000D02*
X183261000Y-91662000D01*
X183261000Y-91662000D02*
X183261000Y-95282000D01*
X183381000Y-95282000D02*
X183381000Y-94075333D01*
X183501000Y-95282000D02*
X183501000Y-94075333D01*
X183621000Y-95282000D02*
X183621000Y-94075333D01*
X183741000Y-95282000D02*
X183741000Y-94075333D01*
X183861000Y-95282000D02*
X183861000Y-94075333D01*
X183981000Y-95282000D02*
X183981000Y-94075333D01*
X184101000Y-95282000D02*
X184101000Y-94075333D01*
X184221000Y-95282000D02*
X184221000Y-94075333D01*
X184341000Y-95282000D02*
X184341000Y-94075333D01*
X184461000Y-95282000D02*
X184461000Y-94075333D01*
X183261000Y-94075333D02*
X184531000Y-94075333D01*
X185801000Y-95282000D02*
X187071000Y-95282000D01*
X187071000Y-95282000D02*
X187071000Y-91662000D01*
X187071000Y-91662000D02*
X185801000Y-91662000D01*
X185801000Y-91662000D02*
X185801000Y-95282000D01*
X185921000Y-95282000D02*
X185921000Y-94075333D01*
X186041000Y-95282000D02*
X186041000Y-94075333D01*
X186161000Y-95282000D02*
X186161000Y-94075333D01*
X186281000Y-95282000D02*
X186281000Y-94075333D01*
X186401000Y-95282000D02*
X186401000Y-94075333D01*
X186521000Y-95282000D02*
X186521000Y-94075333D01*
X186641000Y-95282000D02*
X186641000Y-94075333D01*
X186761000Y-95282000D02*
X186761000Y-94075333D01*
X186881000Y-95282000D02*
X186881000Y-94075333D01*
X187001000Y-95282000D02*
X187001000Y-94075333D01*
X185801000Y-94075333D02*
X187071000Y-94075333D01*
%TO.C,R1*%
X162584000Y-96774000D02*
X163354000Y-96774000D01*
X170664000Y-96774000D02*
X169894000Y-96774000D01*
X163354000Y-98144000D02*
X169894000Y-98144000D01*
X163354000Y-95404000D02*
X163354000Y-98144000D01*
X169894000Y-95404000D02*
X163354000Y-95404000D01*
X169894000Y-98144000D02*
X169894000Y-95404000D01*
%TO.C,ARDUINO1*%
X142745000Y-101470000D02*
X142745000Y-119510000D01*
X186185000Y-101470000D02*
X142745000Y-101470000D01*
X186185000Y-119510000D02*
X186185000Y-101470000D01*
X183515000Y-116840000D02*
X183515000Y-119510000D01*
X147955000Y-116840000D02*
X183515000Y-116840000D01*
X147955000Y-116840000D02*
X147955000Y-119510000D01*
X183515000Y-104140000D02*
X183515000Y-101470000D01*
X145415000Y-104140000D02*
X183515000Y-104140000D01*
X145415000Y-104140000D02*
X145415000Y-101470000D01*
X142745000Y-119510000D02*
X145415000Y-119510000D01*
X147955000Y-119510000D02*
X186185000Y-119510000D01*
X145415000Y-116840000D02*
X145415000Y-119510000D01*
X147955000Y-116840000D02*
X145415000Y-116840000D01*
%TO.C,SCREW1*%
X145151915Y-83934767D02*
G75*
G02*
X143272000Y-83935000I-939915J-342233D01*
G01*
X148651915Y-83934767D02*
G75*
G02*
X146772000Y-83935000I-939915J-342233D01*
G01*
X152151915Y-83934767D02*
G75*
G02*
X150272000Y-83935000I-939915J-342233D01*
G01*
X155651915Y-83934767D02*
G75*
G02*
X153772000Y-83935000I-939915J-342233D01*
G01*
X159151915Y-83934767D02*
G75*
G02*
X157272000Y-83935000I-939915J-342233D01*
G01*
X162651915Y-83934767D02*
G75*
G02*
X160772000Y-83935000I-939915J-342233D01*
G01*
X166151915Y-83934767D02*
G75*
G02*
X164272000Y-83935000I-939915J-342233D01*
G01*
X169651915Y-83934767D02*
G75*
G02*
X167772000Y-83935000I-939915J-342233D01*
G01*
X173209890Y-84206434D02*
G75*
G02*
X171214000Y-84208000I-997890J-70566D01*
G01*
X174522000Y-81576000D02*
X173752000Y-81576000D01*
X170672000Y-81576000D02*
X169845000Y-81576000D01*
X167578000Y-81576000D02*
X166345000Y-81576000D01*
X164078000Y-81576000D02*
X162845000Y-81576000D01*
X160578000Y-81576000D02*
X159345000Y-81576000D01*
X157078000Y-81576000D02*
X155845000Y-81576000D01*
X153578000Y-81576000D02*
X152345000Y-81576000D01*
X150078000Y-81576000D02*
X148845000Y-81576000D01*
X146578000Y-81576000D02*
X145345000Y-81576000D01*
X143078000Y-81576000D02*
X141902000Y-81576000D01*
X174522000Y-86437000D02*
X141902000Y-86437000D01*
X174522000Y-78017000D02*
X141902000Y-78017000D01*
X174522000Y-86437000D02*
X174522000Y-78017000D01*
X141902000Y-86437000D02*
X141902000Y-78017000D01*
X173612000Y-85677000D02*
X170812000Y-85677000D01*
X173612000Y-85677000D02*
X173612000Y-84217000D01*
X170812000Y-85677000D02*
X170812000Y-84217000D01*
X170112000Y-85677000D02*
X167312000Y-85677000D01*
X170112000Y-81927000D02*
X170111000Y-81927000D01*
X167312000Y-81927000D02*
X167312000Y-81927000D01*
X170112000Y-85677000D02*
X170112000Y-83366000D01*
X170112000Y-81988000D02*
X170112000Y-81927000D01*
X167312000Y-85677000D02*
X167312000Y-83366000D01*
X167312000Y-81988000D02*
X167312000Y-81927000D01*
X166612000Y-85677000D02*
X163812000Y-85677000D01*
X166612000Y-81927000D02*
X166611000Y-81927000D01*
X163812000Y-81927000D02*
X163812000Y-81927000D01*
X166612000Y-85677000D02*
X166612000Y-83366000D01*
X166612000Y-81988000D02*
X166612000Y-81927000D01*
X163812000Y-85677000D02*
X163812000Y-83366000D01*
X163812000Y-81988000D02*
X163812000Y-81927000D01*
X163112000Y-85677000D02*
X160312000Y-85677000D01*
X163112000Y-81927000D02*
X163111000Y-81927000D01*
X160312000Y-81927000D02*
X160312000Y-81927000D01*
X163112000Y-85677000D02*
X163112000Y-83366000D01*
X163112000Y-81988000D02*
X163112000Y-81927000D01*
X160312000Y-85677000D02*
X160312000Y-83366000D01*
X160312000Y-81988000D02*
X160312000Y-81927000D01*
X159612000Y-85677000D02*
X156812000Y-85677000D01*
X159612000Y-81927000D02*
X159611000Y-81927000D01*
X156812000Y-81927000D02*
X156812000Y-81927000D01*
X159612000Y-85677000D02*
X159612000Y-83366000D01*
X159612000Y-81988000D02*
X159612000Y-81927000D01*
X156812000Y-85677000D02*
X156812000Y-83366000D01*
X156812000Y-81988000D02*
X156812000Y-81927000D01*
X156111000Y-85677000D02*
X153312000Y-85677000D01*
X156111000Y-81927000D02*
X156111000Y-81927000D01*
X153312000Y-81927000D02*
X153312000Y-81927000D01*
X156111000Y-85677000D02*
X156111000Y-83366000D01*
X156111000Y-81988000D02*
X156111000Y-81927000D01*
X153312000Y-85677000D02*
X153312000Y-83366000D01*
X153312000Y-81988000D02*
X153312000Y-81927000D01*
X152612000Y-85677000D02*
X149812000Y-85677000D01*
X152612000Y-81927000D02*
X152611000Y-81927000D01*
X149812000Y-81927000D02*
X149812000Y-81927000D01*
X152612000Y-85677000D02*
X152612000Y-83366000D01*
X152612000Y-81988000D02*
X152612000Y-81927000D01*
X149812000Y-85677000D02*
X149812000Y-83366000D01*
X149812000Y-81988000D02*
X149812000Y-81927000D01*
X149112000Y-85677000D02*
X146312000Y-85677000D01*
X149112000Y-81927000D02*
X149111000Y-81927000D01*
X146312000Y-81927000D02*
X146312000Y-81927000D01*
X149112000Y-85677000D02*
X149112000Y-83366000D01*
X149112000Y-81988000D02*
X149112000Y-81927000D01*
X146312000Y-85677000D02*
X146312000Y-83366000D01*
X146312000Y-81988000D02*
X146312000Y-81927000D01*
X145612000Y-85677000D02*
X142812000Y-85677000D01*
X145612000Y-81927000D02*
X145611000Y-81927000D01*
X142812000Y-81927000D02*
X142812000Y-81927000D01*
X145612000Y-85677000D02*
X145612000Y-83366000D01*
X145612000Y-81988000D02*
X145612000Y-81927000D01*
X142812000Y-85677000D02*
X142812000Y-83366000D01*
X142812000Y-81988000D02*
X142812000Y-81927000D01*
X174762000Y-80017000D02*
X174762000Y-77777000D01*
X174762000Y-77777000D02*
X172762000Y-77777000D01*
%TO.C,STEPPER1*%
X140465000Y-99565000D02*
X127635000Y-99565000D01*
X140465000Y-120145000D02*
X140465000Y-99565000D01*
X124965000Y-120145000D02*
X140465000Y-120145000D01*
X124965000Y-102235000D02*
X124965000Y-120145000D01*
X127635000Y-102235000D02*
X124965000Y-102235000D01*
X127635000Y-99565000D02*
X127635000Y-102235000D01*
X124965000Y-99565000D02*
X124965000Y-100965000D01*
X126365000Y-99565000D02*
X124965000Y-99565000D01*
X127635000Y-102235000D02*
X127635000Y-120145000D01*
X137795000Y-99565000D02*
X137795000Y-120145000D01*
%TO.C,R2*%
X163354000Y-91594000D02*
X163354000Y-94334000D01*
X163354000Y-94334000D02*
X169894000Y-94334000D01*
X169894000Y-94334000D02*
X169894000Y-91594000D01*
X169894000Y-91594000D02*
X163354000Y-91594000D01*
X162584000Y-92964000D02*
X163354000Y-92964000D01*
X170664000Y-92964000D02*
X169894000Y-92964000D01*
%TO.C,RJ45*%
X140475000Y-95447000D02*
X140475000Y-77487000D01*
X124955000Y-95447000D02*
X140475000Y-95447000D01*
X124955000Y-95447000D02*
X124955000Y-77487000D01*
X140475000Y-77487000D02*
X124955000Y-77487000D01*
X140660000Y-91567000D02*
X141160000Y-92067000D01*
X141160000Y-92067000D02*
X141160000Y-91067000D01*
X141160000Y-91067000D02*
X140660000Y-91567000D01*
%TO.C,C1*%
X135965000Y-100330000D02*
G75*
G03*
X135965000Y-100330000I-3270000J0D01*
G01*
%TO.C,M2*%
X127836800Y-119630000D02*
X127836800Y-111530000D01*
X130836800Y-111530000D02*
X130836800Y-119630000D01*
X127836800Y-119630000D02*
X130836800Y-119630000D01*
X130836800Y-111530000D02*
X127836800Y-111530000D01*
%TO.C,M1*%
X131240400Y-119630000D02*
X131240400Y-111530000D01*
X134240400Y-111530000D02*
X134240400Y-119630000D01*
X131240400Y-119630000D02*
X134240400Y-119630000D01*
X134240400Y-111530000D02*
X131240400Y-111530000D01*
%TO.C,MO1*%
X134644000Y-119630000D02*
X134644000Y-111530000D01*
X137644000Y-111530000D02*
X137644000Y-119630000D01*
X134644000Y-119630000D02*
X137644000Y-119630000D01*
X137644000Y-111530000D02*
X134644000Y-111530000D01*
%TO.C,Q1*%
X149025000Y-100552000D02*
X149025000Y-99042000D01*
X152726000Y-100552000D02*
X152726000Y-99042000D01*
X155996000Y-99042000D02*
X145756000Y-99042000D01*
X145756000Y-100552000D02*
X145756000Y-95911000D01*
X155996000Y-100552000D02*
X155996000Y-95911000D01*
X155996000Y-95911000D02*
X145756000Y-95911000D01*
X155996000Y-100552000D02*
X145756000Y-100552000D01*
%TO.C,D1*%
X147842000Y-90536000D02*
X147842000Y-94376000D01*
X148082000Y-90536000D02*
X148082000Y-94376000D01*
X147962000Y-90536000D02*
X147962000Y-94376000D01*
X155532000Y-92456000D02*
X154542000Y-92456000D01*
X145712000Y-92456000D02*
X146702000Y-92456000D01*
X154542000Y-90536000D02*
X146702000Y-90536000D01*
X154542000Y-94376000D02*
X154542000Y-90536000D01*
X146702000Y-94376000D02*
X154542000Y-94376000D01*
X146702000Y-90536000D02*
X146702000Y-94376000D01*
%TO.C,SW1*%
D10*
X177014761Y-87828380D02*
X177014761Y-86828380D01*
X177443333Y-86590285D02*
X177538571Y-86542666D01*
X177681428Y-86542666D01*
X177776666Y-86590285D01*
X177824285Y-86685523D01*
X177824285Y-86780761D01*
X177776666Y-86876000D01*
X177443333Y-87209333D01*
X177824285Y-87209333D01*
X178824285Y-87733142D02*
X178776666Y-87780761D01*
X178633809Y-87828380D01*
X178538571Y-87828380D01*
X178395714Y-87780761D01*
X178300476Y-87685523D01*
X178252857Y-87590285D01*
X178205238Y-87399809D01*
X178205238Y-87256952D01*
X178252857Y-87066476D01*
X178300476Y-86971238D01*
X178395714Y-86876000D01*
X178538571Y-86828380D01*
X178633809Y-86828380D01*
X178776666Y-86876000D01*
X178824285Y-86923619D01*
X179967142Y-87542666D02*
X180443333Y-87542666D01*
X179871904Y-87828380D02*
X180205238Y-86828380D01*
X180538571Y-87828380D01*
X180871904Y-87828380D02*
X180871904Y-86828380D01*
X181110000Y-86828380D01*
X181252857Y-86876000D01*
X181348095Y-86971238D01*
X181395714Y-87066476D01*
X181443333Y-87256952D01*
X181443333Y-87399809D01*
X181395714Y-87590285D01*
X181348095Y-87685523D01*
X181252857Y-87780761D01*
X181110000Y-87828380D01*
X180871904Y-87828380D01*
X181871904Y-87828380D02*
X181871904Y-86828380D01*
X182110000Y-86828380D01*
X182252857Y-86876000D01*
X182348095Y-86971238D01*
X182395714Y-87066476D01*
X182443333Y-87256952D01*
X182443333Y-87399809D01*
X182395714Y-87590285D01*
X182348095Y-87685523D01*
X182252857Y-87780761D01*
X182110000Y-87828380D01*
X181871904Y-87828380D01*
X183443333Y-87828380D02*
X183110000Y-87352190D01*
X182871904Y-87828380D02*
X182871904Y-86828380D01*
X183252857Y-86828380D01*
X183348095Y-86876000D01*
X183395714Y-86923619D01*
X183443333Y-87018857D01*
X183443333Y-87161714D01*
X183395714Y-87256952D01*
X183348095Y-87304571D01*
X183252857Y-87352190D01*
X182871904Y-87352190D01*
X183871904Y-87304571D02*
X184205238Y-87304571D01*
X184348095Y-87828380D02*
X183871904Y-87828380D01*
X183871904Y-86828380D01*
X184348095Y-86828380D01*
X184729047Y-87780761D02*
X184871904Y-87828380D01*
X185110000Y-87828380D01*
X185205238Y-87780761D01*
X185252857Y-87733142D01*
X185300476Y-87637904D01*
X185300476Y-87542666D01*
X185252857Y-87447428D01*
X185205238Y-87399809D01*
X185110000Y-87352190D01*
X184919523Y-87304571D01*
X184824285Y-87256952D01*
X184776666Y-87209333D01*
X184729047Y-87114095D01*
X184729047Y-87018857D01*
X184776666Y-86923619D01*
X184824285Y-86876000D01*
X184919523Y-86828380D01*
X185157619Y-86828380D01*
X185300476Y-86876000D01*
X185681428Y-87780761D02*
X185824285Y-87828380D01*
X186062380Y-87828380D01*
X186157619Y-87780761D01*
X186205238Y-87733142D01*
X186252857Y-87637904D01*
X186252857Y-87542666D01*
X186205238Y-87447428D01*
X186157619Y-87399809D01*
X186062380Y-87352190D01*
X185871904Y-87304571D01*
X185776666Y-87256952D01*
X185729047Y-87209333D01*
X185681428Y-87114095D01*
X185681428Y-87018857D01*
X185729047Y-86923619D01*
X185776666Y-86876000D01*
X185871904Y-86828380D01*
X186110000Y-86828380D01*
X186252857Y-86876000D01*
%TO.C,R1*%
X166203333Y-97099380D02*
X165870000Y-96623190D01*
X165631904Y-97099380D02*
X165631904Y-96099380D01*
X166012857Y-96099380D01*
X166108095Y-96147000D01*
X166155714Y-96194619D01*
X166203333Y-96289857D01*
X166203333Y-96432714D01*
X166155714Y-96527952D01*
X166108095Y-96575571D01*
X166012857Y-96623190D01*
X165631904Y-96623190D01*
X167155714Y-97099380D02*
X166584285Y-97099380D01*
X166870000Y-97099380D02*
X166870000Y-96099380D01*
X166774761Y-96242238D01*
X166679523Y-96337476D01*
X166584285Y-96385095D01*
%TO.C,ARDUINO1*%
X159163428Y-110656666D02*
X159639619Y-110656666D01*
X159068190Y-110942380D02*
X159401523Y-109942380D01*
X159734857Y-110942380D01*
X160639619Y-110942380D02*
X160306285Y-110466190D01*
X160068190Y-110942380D02*
X160068190Y-109942380D01*
X160449142Y-109942380D01*
X160544380Y-109990000D01*
X160592000Y-110037619D01*
X160639619Y-110132857D01*
X160639619Y-110275714D01*
X160592000Y-110370952D01*
X160544380Y-110418571D01*
X160449142Y-110466190D01*
X160068190Y-110466190D01*
X161068190Y-110942380D02*
X161068190Y-109942380D01*
X161306285Y-109942380D01*
X161449142Y-109990000D01*
X161544380Y-110085238D01*
X161592000Y-110180476D01*
X161639619Y-110370952D01*
X161639619Y-110513809D01*
X161592000Y-110704285D01*
X161544380Y-110799523D01*
X161449142Y-110894761D01*
X161306285Y-110942380D01*
X161068190Y-110942380D01*
X162068190Y-109942380D02*
X162068190Y-110751904D01*
X162115809Y-110847142D01*
X162163428Y-110894761D01*
X162258666Y-110942380D01*
X162449142Y-110942380D01*
X162544380Y-110894761D01*
X162592000Y-110847142D01*
X162639619Y-110751904D01*
X162639619Y-109942380D01*
X163115809Y-110942380D02*
X163115809Y-109942380D01*
X163592000Y-110942380D02*
X163592000Y-109942380D01*
X164163428Y-110942380D01*
X164163428Y-109942380D01*
X164830095Y-109942380D02*
X165020571Y-109942380D01*
X165115809Y-109990000D01*
X165211047Y-110085238D01*
X165258666Y-110275714D01*
X165258666Y-110609047D01*
X165211047Y-110799523D01*
X165115809Y-110894761D01*
X165020571Y-110942380D01*
X164830095Y-110942380D01*
X164734857Y-110894761D01*
X164639619Y-110799523D01*
X164592000Y-110609047D01*
X164592000Y-110275714D01*
X164639619Y-110085238D01*
X164734857Y-109990000D01*
X164830095Y-109942380D01*
X166449142Y-110942380D02*
X166449142Y-109942380D01*
X167020571Y-110942380D01*
X167020571Y-109942380D01*
X167449142Y-110656666D02*
X167925333Y-110656666D01*
X167353904Y-110942380D02*
X167687238Y-109942380D01*
X168020571Y-110942380D01*
X168353904Y-110942380D02*
X168353904Y-109942380D01*
X168925333Y-110942380D01*
X168925333Y-109942380D01*
X169592000Y-109942380D02*
X169782476Y-109942380D01*
X169877714Y-109990000D01*
X169972952Y-110085238D01*
X170020571Y-110275714D01*
X170020571Y-110609047D01*
X169972952Y-110799523D01*
X169877714Y-110894761D01*
X169782476Y-110942380D01*
X169592000Y-110942380D01*
X169496761Y-110894761D01*
X169401523Y-110799523D01*
X169353904Y-110609047D01*
X169353904Y-110275714D01*
X169401523Y-110085238D01*
X169496761Y-109990000D01*
X169592000Y-109942380D01*
%TO.C,SCREW1*%
X151829333Y-80668761D02*
X151972190Y-80716380D01*
X152210285Y-80716380D01*
X152305523Y-80668761D01*
X152353142Y-80621142D01*
X152400761Y-80525904D01*
X152400761Y-80430666D01*
X152353142Y-80335428D01*
X152305523Y-80287809D01*
X152210285Y-80240190D01*
X152019809Y-80192571D01*
X151924571Y-80144952D01*
X151876952Y-80097333D01*
X151829333Y-80002095D01*
X151829333Y-79906857D01*
X151876952Y-79811619D01*
X151924571Y-79764000D01*
X152019809Y-79716380D01*
X152257904Y-79716380D01*
X152400761Y-79764000D01*
X153400761Y-80621142D02*
X153353142Y-80668761D01*
X153210285Y-80716380D01*
X153115047Y-80716380D01*
X152972190Y-80668761D01*
X152876952Y-80573523D01*
X152829333Y-80478285D01*
X152781714Y-80287809D01*
X152781714Y-80144952D01*
X152829333Y-79954476D01*
X152876952Y-79859238D01*
X152972190Y-79764000D01*
X153115047Y-79716380D01*
X153210285Y-79716380D01*
X153353142Y-79764000D01*
X153400761Y-79811619D01*
X154400761Y-80716380D02*
X154067428Y-80240190D01*
X153829333Y-80716380D02*
X153829333Y-79716380D01*
X154210285Y-79716380D01*
X154305523Y-79764000D01*
X154353142Y-79811619D01*
X154400761Y-79906857D01*
X154400761Y-80049714D01*
X154353142Y-80144952D01*
X154305523Y-80192571D01*
X154210285Y-80240190D01*
X153829333Y-80240190D01*
X154829333Y-80192571D02*
X155162666Y-80192571D01*
X155305523Y-80716380D02*
X154829333Y-80716380D01*
X154829333Y-79716380D01*
X155305523Y-79716380D01*
X155638857Y-79716380D02*
X155876952Y-80716380D01*
X156067428Y-80002095D01*
X156257904Y-80716380D01*
X156496000Y-79716380D01*
X157496000Y-79716380D02*
X158067428Y-79716380D01*
X157781714Y-80716380D02*
X157781714Y-79716380D01*
X158400761Y-80192571D02*
X158734095Y-80192571D01*
X158876952Y-80716380D02*
X158400761Y-80716380D01*
X158400761Y-79716380D01*
X158876952Y-79716380D01*
X159876952Y-80716380D02*
X159543619Y-80240190D01*
X159305523Y-80716380D02*
X159305523Y-79716380D01*
X159686476Y-79716380D01*
X159781714Y-79764000D01*
X159829333Y-79811619D01*
X159876952Y-79906857D01*
X159876952Y-80049714D01*
X159829333Y-80144952D01*
X159781714Y-80192571D01*
X159686476Y-80240190D01*
X159305523Y-80240190D01*
X160305523Y-80716380D02*
X160305523Y-79716380D01*
X160638857Y-80430666D01*
X160972190Y-79716380D01*
X160972190Y-80716380D01*
X161448380Y-80716380D02*
X161448380Y-79716380D01*
X161924571Y-80716380D02*
X161924571Y-79716380D01*
X162496000Y-80716380D01*
X162496000Y-79716380D01*
X162924571Y-80430666D02*
X163400761Y-80430666D01*
X162829333Y-80716380D02*
X163162666Y-79716380D01*
X163496000Y-80716380D01*
X164305523Y-80716380D02*
X163829333Y-80716380D01*
X163829333Y-79716380D01*
X164591238Y-80668761D02*
X164734095Y-80716380D01*
X164972190Y-80716380D01*
X165067428Y-80668761D01*
X165115047Y-80621142D01*
X165162666Y-80525904D01*
X165162666Y-80430666D01*
X165115047Y-80335428D01*
X165067428Y-80287809D01*
X164972190Y-80240190D01*
X164781714Y-80192571D01*
X164686476Y-80144952D01*
X164638857Y-80097333D01*
X164591238Y-80002095D01*
X164591238Y-79906857D01*
X164638857Y-79811619D01*
X164686476Y-79764000D01*
X164781714Y-79716380D01*
X165019809Y-79716380D01*
X165162666Y-79764000D01*
%TO.C,STEPPER1*%
X130024571Y-108100761D02*
X130167428Y-108148380D01*
X130405523Y-108148380D01*
X130500761Y-108100761D01*
X130548380Y-108053142D01*
X130596000Y-107957904D01*
X130596000Y-107862666D01*
X130548380Y-107767428D01*
X130500761Y-107719809D01*
X130405523Y-107672190D01*
X130215047Y-107624571D01*
X130119809Y-107576952D01*
X130072190Y-107529333D01*
X130024571Y-107434095D01*
X130024571Y-107338857D01*
X130072190Y-107243619D01*
X130119809Y-107196000D01*
X130215047Y-107148380D01*
X130453142Y-107148380D01*
X130596000Y-107196000D01*
X130881714Y-107148380D02*
X131453142Y-107148380D01*
X131167428Y-108148380D02*
X131167428Y-107148380D01*
X131786476Y-107624571D02*
X132119809Y-107624571D01*
X132262666Y-108148380D02*
X131786476Y-108148380D01*
X131786476Y-107148380D01*
X132262666Y-107148380D01*
X132691238Y-108148380D02*
X132691238Y-107148380D01*
X133072190Y-107148380D01*
X133167428Y-107196000D01*
X133215047Y-107243619D01*
X133262666Y-107338857D01*
X133262666Y-107481714D01*
X133215047Y-107576952D01*
X133167428Y-107624571D01*
X133072190Y-107672190D01*
X132691238Y-107672190D01*
X133691238Y-108148380D02*
X133691238Y-107148380D01*
X134072190Y-107148380D01*
X134167428Y-107196000D01*
X134215047Y-107243619D01*
X134262666Y-107338857D01*
X134262666Y-107481714D01*
X134215047Y-107576952D01*
X134167428Y-107624571D01*
X134072190Y-107672190D01*
X133691238Y-107672190D01*
X134691238Y-107624571D02*
X135024571Y-107624571D01*
X135167428Y-108148380D02*
X134691238Y-108148380D01*
X134691238Y-107148380D01*
X135167428Y-107148380D01*
X136167428Y-108148380D02*
X135834095Y-107672190D01*
X135596000Y-108148380D02*
X135596000Y-107148380D01*
X135976952Y-107148380D01*
X136072190Y-107196000D01*
X136119809Y-107243619D01*
X136167428Y-107338857D01*
X136167428Y-107481714D01*
X136119809Y-107576952D01*
X136072190Y-107624571D01*
X135976952Y-107672190D01*
X135596000Y-107672190D01*
%TO.C,R2*%
X166203333Y-93416380D02*
X165870000Y-92940190D01*
X165631904Y-93416380D02*
X165631904Y-92416380D01*
X166012857Y-92416380D01*
X166108095Y-92464000D01*
X166155714Y-92511619D01*
X166203333Y-92606857D01*
X166203333Y-92749714D01*
X166155714Y-92844952D01*
X166108095Y-92892571D01*
X166012857Y-92940190D01*
X165631904Y-92940190D01*
X166584285Y-92511619D02*
X166631904Y-92464000D01*
X166727142Y-92416380D01*
X166965238Y-92416380D01*
X167060476Y-92464000D01*
X167108095Y-92511619D01*
X167155714Y-92606857D01*
X167155714Y-92702095D01*
X167108095Y-92844952D01*
X166536666Y-93416380D01*
X167155714Y-93416380D01*
%TO.C,RJ45*%
X131564190Y-86050380D02*
X131230857Y-85574190D01*
X130992761Y-86050380D02*
X130992761Y-85050380D01*
X131373714Y-85050380D01*
X131468952Y-85098000D01*
X131516571Y-85145619D01*
X131564190Y-85240857D01*
X131564190Y-85383714D01*
X131516571Y-85478952D01*
X131468952Y-85526571D01*
X131373714Y-85574190D01*
X130992761Y-85574190D01*
X132278476Y-85050380D02*
X132278476Y-85764666D01*
X132230857Y-85907523D01*
X132135619Y-86002761D01*
X131992761Y-86050380D01*
X131897523Y-86050380D01*
X133183238Y-85383714D02*
X133183238Y-86050380D01*
X132945142Y-85002761D02*
X132707047Y-85717047D01*
X133326095Y-85717047D01*
X134183238Y-85050380D02*
X133707047Y-85050380D01*
X133659428Y-85526571D01*
X133707047Y-85478952D01*
X133802285Y-85431333D01*
X134040380Y-85431333D01*
X134135619Y-85478952D01*
X134183238Y-85526571D01*
X134230857Y-85621809D01*
X134230857Y-85859904D01*
X134183238Y-85955142D01*
X134135619Y-86002761D01*
X134040380Y-86050380D01*
X133802285Y-86050380D01*
X133707047Y-86002761D01*
X133659428Y-85955142D01*
X130992761Y-96702571D02*
X131135619Y-96750190D01*
X131183238Y-96797809D01*
X131230857Y-96893047D01*
X131230857Y-97035904D01*
X131183238Y-97131142D01*
X131135619Y-97178761D01*
X131040380Y-97226380D01*
X130659428Y-97226380D01*
X130659428Y-96226380D01*
X130992761Y-96226380D01*
X131088000Y-96274000D01*
X131135619Y-96321619D01*
X131183238Y-96416857D01*
X131183238Y-96512095D01*
X131135619Y-96607333D01*
X131088000Y-96654952D01*
X130992761Y-96702571D01*
X130659428Y-96702571D01*
X132135619Y-97226380D02*
X131659428Y-97226380D01*
X131659428Y-96226380D01*
X132468952Y-97226380D02*
X132468952Y-96226380D01*
X132945142Y-97226380D02*
X132945142Y-96226380D01*
X133516571Y-97226380D01*
X133516571Y-96226380D01*
X133992761Y-97226380D02*
X133992761Y-96226380D01*
X134230857Y-96226380D01*
X134373714Y-96274000D01*
X134468952Y-96369238D01*
X134516571Y-96464476D01*
X134564190Y-96654952D01*
X134564190Y-96797809D01*
X134516571Y-96988285D01*
X134468952Y-97083523D01*
X134373714Y-97178761D01*
X134230857Y-97226380D01*
X133992761Y-97226380D01*
%TO.C,C1*%
X132675333Y-100737942D02*
X132627714Y-100785561D01*
X132484857Y-100833180D01*
X132389619Y-100833180D01*
X132246761Y-100785561D01*
X132151523Y-100690323D01*
X132103904Y-100595085D01*
X132056285Y-100404609D01*
X132056285Y-100261752D01*
X132103904Y-100071276D01*
X132151523Y-99976038D01*
X132246761Y-99880800D01*
X132389619Y-99833180D01*
X132484857Y-99833180D01*
X132627714Y-99880800D01*
X132675333Y-99928419D01*
X133627714Y-100833180D02*
X133056285Y-100833180D01*
X133342000Y-100833180D02*
X133342000Y-99833180D01*
X133246761Y-99976038D01*
X133151523Y-100071276D01*
X133056285Y-100118895D01*
%TO.C,.*%
X142748000Y-95201142D02*
X142795619Y-95248761D01*
X142748000Y-95296380D01*
X142700380Y-95248761D01*
X142748000Y-95201142D01*
X142748000Y-95296380D01*
X184023000Y-80596142D02*
X184070619Y-80643761D01*
X184023000Y-80691380D01*
X183975380Y-80643761D01*
X184023000Y-80596142D01*
X184023000Y-80691380D01*
%TO.C,M2*%
X129992380Y-116379523D02*
X128992380Y-116379523D01*
X129706666Y-116046190D01*
X128992380Y-115712857D01*
X129992380Y-115712857D01*
X129087619Y-115284285D02*
X129040000Y-115236666D01*
X128992380Y-115141428D01*
X128992380Y-114903333D01*
X129040000Y-114808095D01*
X129087619Y-114760476D01*
X129182857Y-114712857D01*
X129278095Y-114712857D01*
X129420952Y-114760476D01*
X129992380Y-115331904D01*
X129992380Y-114712857D01*
%TO.C,M1*%
X133294380Y-116379523D02*
X132294380Y-116379523D01*
X133008666Y-116046190D01*
X132294380Y-115712857D01*
X133294380Y-115712857D01*
X133294380Y-114712857D02*
X133294380Y-115284285D01*
X133294380Y-114998571D02*
X132294380Y-114998571D01*
X132437238Y-115093809D01*
X132532476Y-115189047D01*
X132580095Y-115284285D01*
%TO.C,MO1*%
X136596380Y-116379523D02*
X135596380Y-116379523D01*
X136310666Y-116046190D01*
X135596380Y-115712857D01*
X136596380Y-115712857D01*
X135596380Y-115046190D02*
X135596380Y-114950952D01*
X135644000Y-114855714D01*
X135691619Y-114808095D01*
X135786857Y-114760476D01*
X135977333Y-114712857D01*
X136215428Y-114712857D01*
X136405904Y-114760476D01*
X136501142Y-114808095D01*
X136548761Y-114855714D01*
X136596380Y-114950952D01*
X136596380Y-115046190D01*
X136548761Y-115141428D01*
X136501142Y-115189047D01*
X136405904Y-115236666D01*
X136215428Y-115284285D01*
X135977333Y-115284285D01*
X135786857Y-115236666D01*
X135691619Y-115189047D01*
X135644000Y-115141428D01*
X135596380Y-115046190D01*
%TO.C,D1*%
X150569704Y-93086180D02*
X150569704Y-92086180D01*
X150807800Y-92086180D01*
X150950657Y-92133800D01*
X151045895Y-92229038D01*
X151093514Y-92324276D01*
X151141133Y-92514752D01*
X151141133Y-92657609D01*
X151093514Y-92848085D01*
X151045895Y-92943323D01*
X150950657Y-93038561D01*
X150807800Y-93086180D01*
X150569704Y-93086180D01*
X152093514Y-93086180D02*
X151522085Y-93086180D01*
X151807800Y-93086180D02*
X151807800Y-92086180D01*
X151712561Y-92229038D01*
X151617323Y-92324276D01*
X151522085Y-92371895D01*
%TD*%
M02*
