M48
; DRILL file {KiCad (5.1.9-0-10_14)} date Sunday, March 28, 2021 at 11:18:50 PM
; FORMAT={-:-/ absolute / inch / decimal}
; #@! TF.CreationDate,2021-03-28T23:18:50-04:00
; #@! TF.GenerationSoftware,Kicad,Pcbnew,(5.1.9-0-10_14)
; #@! TF.FileFunction,Plated,1,2,PTH
FMAT,2
INCH
T1C0.0299
T2C0.0315
T3C0.0394
T4C0.0433
T5C0.0472
T6C0.0512
%
G90
G05
T1
X5.05Y-3.705
X5.1Y-3.605
X5.15Y-3.705
X5.2Y-3.605
X5.25Y-3.705
X5.3Y-3.605
X5.35Y-3.705
X5.4Y-3.605
T2
X4.975Y-3.975
X4.975Y-4.075
X4.975Y-4.175
X4.975Y-4.275
X4.975Y-4.375
X4.975Y-4.475
X4.975Y-4.575
X4.975Y-4.675
X5.152Y-3.95
X5.299Y-3.949
X5.475Y-3.975
X5.475Y-4.075
X5.475Y-4.175
X5.475Y-4.275
X5.475Y-4.375
X5.475Y-4.475
X5.475Y-4.575
X5.475Y-4.675
X6.36Y-3.66
X6.36Y-3.81
X6.76Y-3.66
X6.76Y-3.81
X6.94Y-3.53
X6.94Y-3.83
X7.04Y-3.53
X7.04Y-3.83
X7.14Y-3.53
X7.14Y-3.83
X7.24Y-3.53
X7.24Y-3.83
X7.34Y-3.53
X7.34Y-3.83
T3
X5.775Y-4.05
X5.775Y-4.65
X5.875Y-4.05
X5.875Y-4.65
X5.975Y-4.05
X5.975Y-4.65
X6.075Y-4.05
X6.075Y-4.65
X6.175Y-4.05
X6.175Y-4.65
X6.275Y-4.05
X6.275Y-4.65
X6.375Y-4.05
X6.375Y-4.65
X6.475Y-4.05
X6.475Y-4.65
X6.575Y-4.05
X6.575Y-4.65
X6.675Y-4.05
X6.675Y-4.65
X6.775Y-4.05
X6.775Y-4.65
X6.875Y-4.05
X6.875Y-4.65
X6.975Y-4.05
X6.975Y-4.65
X7.075Y-4.05
X7.075Y-4.65
X7.175Y-4.05
X7.175Y-4.65
T4
X5.84Y-3.83
X5.94Y-3.83
X6.04Y-3.83
T5
X5.68Y-3.64
X6.18Y-3.64
T6
X5.092Y-4.45
X5.092Y-4.65
X5.226Y-4.45
X5.226Y-4.65
X5.36Y-4.45
X5.36Y-4.65
X5.6776Y-3.255
X5.8154Y-3.255
X5.9532Y-3.255
X6.091Y-3.255
X6.2288Y-3.255
X6.3666Y-3.255
X6.5044Y-3.255
X6.6422Y-3.255
X6.78Y-3.255
T0
M30
